{"glyphs":{"0":{"ha":783,"x_min":161,"x_max":846,"o":"m 846 696 q 833 548 846 628 q 797 388 821 468 q 735 235 772 308 q 647 104 697 161 q 532 13 596 47 q 392 -21 468 -21 q 217 52 274 -21 q 161 268 161 125 q 174 416 161 336 q 210 576 186 496 q 272 729 235 656 q 360 860 310 803 q 474 951 411 917 q 615 985 538 985 q 790 912 733 985 q 846 696 846 839 m 714 679 q 689 828 714 783 q 600 872 664 872 q 517 846 557 872 q 442 775 476 819 q 381 672 408 731 q 333 547 353 613 q 303 414 314 482 q 293 285 293 346 q 318 136 293 181 q 407 92 343 92 q 491 118 451 92 q 565 189 531 144 q 626 292 599 233 q 674 417 654 351 q 703 549 693 482 q 714 679 714 617 z "},"1":{"ha":783,"x_min":313,"x_max":742,"o":"m 567 771 q 520 740 547 756 q 462 708 493 724 q 397 680 431 693 q 333 657 364 667 l 313 764 q 483 842 396 794 q 649 963 569 890 l 742 963 l 511 0 l 382 0 l 567 771 z "},"2":{"ha":783,"x_min":110,"x_max":818,"o":"m 818 767 q 794 638 818 693 q 731 535 771 582 q 638 448 690 489 q 525 363 585 407 q 451 306 490 336 q 378 242 413 275 q 317 176 343 210 q 279 108 290 142 l 697 108 l 672 0 l 110 0 q 149 133 121 74 q 217 243 178 193 q 305 335 257 293 q 404 415 353 376 q 509 494 458 456 q 599 572 560 532 q 661 654 638 611 q 685 749 685 697 q 653 840 685 807 q 551 872 622 872 q 478 863 513 872 q 415 839 443 853 q 366 809 388 825 q 332 781 344 793 l 288 881 q 336 917 307 899 q 402 950 365 935 q 481 975 439 965 q 568 985 524 985 q 683 966 635 985 q 760 917 731 947 q 804 847 790 886 q 818 767 818 808 z "},"3":{"ha":783,"x_min":96,"x_max":803,"o":"m 346 93 q 449 106 401 93 q 533 146 497 119 q 588 212 568 172 q 607 304 607 251 q 547 424 607 388 q 386 460 486 460 l 357 460 l 382 565 l 425 565 q 515 577 471 565 q 594 613 558 589 q 651 673 629 638 q 672 756 672 708 q 637 844 672 814 q 535 874 601 874 q 427 855 475 874 q 344 814 379 836 l 314 914 q 358 939 332 926 q 417 962 385 951 q 484 978 449 972 q 556 985 519 985 q 667 968 621 985 q 744 922 714 951 q 789 853 775 893 q 803 769 803 814 q 749 613 803 678 q 604 513 696 549 q 652 485 628 503 q 695 442 676 468 q 726 383 714 417 q 738 307 738 349 q 712 173 738 233 q 636 69 686 113 q 513 3 586 26 q 342 -21 439 -21 q 252 -14 293 -21 q 179 2 211 -7 q 126 21 147 11 q 96 36 104 31 l 144 146 q 172 131 154 140 q 214 114 189 122 q 272 99 239 106 q 346 93 304 93 z "},"4":{"ha":783,"x_min":121,"x_max":840,"o":"m 668 246 l 610 0 l 485 0 l 543 246 l 121 246 l 142 333 q 244 482 181 399 q 384 651 307 565 q 546 819 461 738 q 714 963 631 900 l 840 963 l 693 351 l 806 351 l 781 246 l 668 246 m 678 801 q 574 708 628 760 q 467 597 519 656 q 365 476 414 539 q 278 351 317 414 l 569 351 l 678 801 z "},"5":{"ha":783,"x_min":101,"x_max":871,"o":"m 511 854 q 491 790 503 826 q 467 717 479 754 q 443 647 454 681 q 425 592 432 614 q 663 506 583 571 q 743 319 743 440 q 719 186 743 249 q 646 78 696 124 q 519 6 596 32 q 336 -21 442 -21 q 252 -14 292 -21 q 181 2 213 -7 q 129 20 150 11 q 101 33 108 29 l 151 142 q 219 112 171 131 q 343 93 267 93 q 449 108 400 93 q 535 149 499 122 q 592 217 571 176 q 613 307 613 257 q 578 408 613 371 q 492 463 543 444 q 381 488 440 482 q 271 496 321 493 q 314 618 293 560 q 353 733 335 676 q 389 845 372 789 q 421 963 406 901 l 871 963 l 846 854 l 511 854 z "},"6":{"ha":783,"x_min":172,"x_max":879,"o":"m 328 442 q 307 351 314 397 q 300 268 300 304 q 331 133 300 181 q 442 85 363 85 q 538 108 496 85 q 608 168 579 131 q 651 252 636 206 q 665 347 665 299 q 633 449 665 414 q 525 483 600 483 q 427 474 476 483 q 328 442 378 465 m 172 257 q 222 532 172 403 q 360 758 271 661 q 577 910 450 854 q 861 967 704 967 l 879 967 l 864 857 l 857 857 q 678 831 758 857 q 536 763 599 806 q 430 664 474 721 q 361 544 386 607 q 457 578 406 567 q 556 590 508 590 q 663 572 618 590 q 738 522 708 553 q 780 449 767 490 q 793 361 793 407 q 772 223 793 292 q 706 100 750 154 q 591 13 661 46 q 424 -21 521 -21 q 237 53 301 -21 q 172 257 172 128 z "},"7":{"ha":783,"x_min":219,"x_max":921,"o":"m 219 0 q 274 153 240 74 q 351 314 308 233 q 444 472 394 394 q 544 620 493 550 q 648 749 596 690 q 747 850 700 808 l 290 850 l 317 963 l 921 963 l 894 851 q 757 708 835 800 q 603 502 679 617 q 460 258 526 388 q 356 0 393 129 l 219 0 z "},"8":{"ha":783,"x_min":140,"x_max":854,"o":"m 651 485 q 731 406 699 453 q 764 286 764 360 q 741 169 764 225 q 672 72 718 114 q 557 4 626 29 q 396 -21 488 -21 q 278 -1 326 -21 q 199 49 229 18 q 154 118 168 79 q 140 196 140 157 q 199 374 140 296 q 363 503 258 451 q 278 675 278 569 q 301 793 278 738 q 367 892 324 849 q 472 960 410 935 q 611 985 533 985 q 722 967 675 985 q 797 918 768 949 q 840 849 826 888 q 854 771 854 811 q 801 603 854 675 q 651 485 747 532 m 458 454 q 386 413 421 438 q 325 357 351 388 q 283 291 299 326 q 268 218 268 256 q 275 167 268 190 q 299 124 282 143 q 343 95 315 106 q 413 85 371 85 q 499 99 458 85 q 571 138 540 113 q 619 197 601 163 q 636 274 636 232 q 589 383 636 342 q 458 454 542 425 m 550 529 q 617 568 585 546 q 673 619 649 590 q 712 681 697 647 q 726 757 726 715 q 721 800 726 778 q 701 840 715 822 q 660 868 686 857 q 596 879 635 879 q 519 865 554 879 q 459 825 485 850 q 419 765 433 800 q 404 688 404 729 q 439 592 404 629 q 550 529 474 554 z "},"9":{"ha":783,"x_min":118,"x_max":835,"o":"m 453 378 q 345 396 390 378 q 271 445 300 414 q 228 518 242 476 q 214 606 214 560 q 235 743 214 675 q 302 865 257 811 q 415 951 347 918 q 575 983 483 983 q 769 909 704 983 q 835 706 835 835 q 788 428 835 557 q 654 203 742 299 q 440 52 567 107 q 154 -3 314 -3 q 140 -3 147 -3 q 118 -1 132 -3 l 142 108 q 155 107 146 107 q 167 107 164 107 q 341 131 264 107 q 477 199 418 156 q 578 299 536 242 q 647 422 619 356 q 551 389 603 400 q 453 378 500 378 m 483 485 q 581 494 532 485 q 681 526 631 503 q 700 615 693 568 q 707 707 707 661 q 674 831 707 783 q 565 878 640 878 q 469 855 511 878 q 399 796 428 832 q 356 713 371 760 q 342 619 342 667 q 375 519 342 553 q 483 485 408 485 z "},"\u0000":{"ha":0,"x_min":0,"x_max":0,"o":""},"\b":{"ha":0,"x_min":0,"x_max":0,"o":""},"\u001d":{"ha":0,"x_min":0,"x_max":0,"o":""},"\t":{"ha":321,"x_min":0,"x_max":0,"o":""},"\r":{"ha":321,"x_min":0,"x_max":0,"o":""}," ":{"ha":321,"x_min":0,"x_max":0,"o":""},"!":{"ha":347,"x_min":101,"x_max":469,"o":"m 469 963 l 407 700 q 384 613 399 667 q 352 503 369 560 q 316 391 335 446 q 282 300 297 336 l 203 300 q 228 490 214 394 q 271 701 243 585 l 333 963 l 469 963 m 185 -18 q 124 3 146 -18 q 101 64 101 24 q 131 141 101 114 q 200 168 161 168 q 262 147 239 168 q 285 83 285 125 q 276 41 285 60 q 253 9 267 22 q 221 -11 239 -4 q 185 -18 203 -18 z "},"\"":{"ha":569,"x_min":293,"x_max":724,"o":"m 483 1056 l 467 986 q 424 842 450 918 q 368 696 399 767 l 293 696 q 308 844 299 771 q 335 988 318 917 l 351 1056 l 483 1056 m 724 1056 l 707 986 q 665 842 690 918 q 608 696 639 767 l 533 696 q 549 844 539 771 q 575 988 558 917 l 592 1056 l 724 1056 z "},"#":{"ha":908,"x_min":126,"x_max":1010,"o":"m 558 708 l 776 708 l 885 963 l 1001 963 l 893 708 l 1010 708 l 985 606 l 850 606 l 742 357 l 925 357 l 900 254 l 699 254 l 590 0 l 474 0 l 581 254 l 364 254 l 256 0 l 139 0 l 246 254 l 126 254 l 151 357 l 290 357 l 397 606 l 211 606 l 236 708 l 440 708 l 550 963 l 667 963 l 558 708 m 407 357 l 625 357 l 733 606 l 515 606 l 407 357 z "},"$":{"ha":783,"x_min":117,"x_max":842,"o":"m 385 133 q 465 141 425 133 q 538 167 506 149 q 589 215 569 185 q 608 289 608 244 q 597 342 608 319 q 563 382 585 364 q 512 415 542 400 q 447 446 482 429 q 387 478 417 460 q 333 522 357 496 q 295 583 310 547 q 281 668 281 618 q 348 835 281 768 q 549 919 415 903 l 586 1078 l 699 1078 l 661 922 q 769 898 721 917 q 842 863 817 879 l 783 767 q 715 799 760 783 q 603 814 669 814 q 527 806 563 814 q 465 782 492 799 q 422 740 438 765 q 407 679 407 714 q 442 592 407 622 q 547 528 476 561 q 619 492 585 511 q 680 446 654 472 q 721 384 706 419 q 736 300 736 349 q 715 192 736 239 q 656 110 694 144 q 563 56 617 76 q 446 28 510 35 l 404 -151 l 292 -151 l 335 29 q 265 38 299 31 q 203 54 232 44 q 151 74 174 64 q 117 93 129 85 l 176 192 q 253 155 201 176 q 385 133 304 133 z "},"%":{"ha":1161,"x_min":219,"x_max":1158,"o":"m 374 0 l 242 0 l 1004 963 l 1136 963 l 374 0 m 219 661 q 238 777 219 719 q 291 881 257 835 q 375 955 325 926 q 488 983 425 983 q 617 935 571 983 q 664 794 664 888 q 645 678 664 736 q 592 575 626 621 q 508 501 558 529 q 396 472 458 472 q 266 520 313 472 q 219 661 219 568 m 561 785 q 545 862 561 832 q 481 892 529 892 q 410 869 440 892 q 361 815 381 847 q 332 743 342 782 q 322 671 322 704 q 338 594 322 624 q 403 564 354 564 q 473 586 443 564 q 522 641 503 608 q 551 713 542 674 q 561 785 561 751 m 714 168 q 733 284 714 226 q 785 388 751 342 q 869 462 819 433 q 982 490 919 490 q 1112 442 1065 490 q 1158 301 1158 394 q 1140 185 1158 243 q 1087 82 1121 128 q 1003 8 1053 36 q 890 -21 953 -21 q 760 27 807 -21 q 714 168 714 75 m 1056 292 q 1040 369 1056 339 q 975 399 1024 399 q 905 376 935 399 q 856 322 875 354 q 826 250 836 289 q 817 178 817 211 q 833 101 817 131 q 897 71 849 71 q 967 93 938 71 q 1017 148 997 115 q 1046 219 1036 181 q 1056 292 1056 258 z "},"&":{"ha":889,"x_min":108,"x_max":922,"o":"m 108 204 q 128 317 108 267 q 184 406 149 367 q 268 477 219 446 q 374 533 317 508 q 333 615 350 572 q 317 714 317 658 q 338 826 317 776 q 397 912 358 876 q 490 966 435 947 q 611 985 544 985 q 686 973 650 985 q 749 938 722 961 q 791 880 775 914 q 807 800 807 846 q 788 702 807 746 q 733 622 768 658 q 649 556 697 586 q 542 499 600 525 l 703 275 q 810 471 769 360 l 922 457 q 865 327 903 399 q 768 188 826 256 q 833 92 803 139 q 879 0 863 44 l 746 0 q 719 51 735 25 q 683 104 703 76 q 544 20 621 53 q 367 -12 467 -12 q 249 3 297 -12 q 169 49 200 19 q 123 117 138 78 q 108 204 108 157 m 375 94 q 506 119 442 94 q 621 190 569 143 l 429 454 q 358 417 393 439 q 297 368 324 396 q 252 305 269 340 q 235 226 235 269 q 266 131 235 168 q 375 94 297 94 m 438 722 q 452 649 438 685 q 489 576 467 613 q 561 610 525 590 q 626 657 597 631 q 672 715 654 683 q 689 785 689 747 q 663 857 689 832 q 593 882 638 882 q 484 842 531 882 q 438 722 438 803 z "},"'":{"ha":328,"x_min":293,"x_max":483,"o":"m 483 1056 l 467 986 q 424 842 450 918 q 368 696 399 767 l 293 696 q 308 844 299 771 q 335 988 318 917 l 351 1056 l 483 1056 z "},"(":{"ha":440,"x_min":175,"x_max":682,"o":"m 682 1026 q 524 841 594 939 q 403 638 453 743 q 327 423 354 533 q 300 199 300 313 q 317 -14 300 81 q 374 -196 333 -108 l 275 -251 q 201 -58 228 -168 q 175 172 175 51 q 281 664 175 436 q 596 1088 388 892 l 682 1026 z "},")":{"ha":440,"x_min":-69,"x_max":438,"o":"m -69 -196 q 89 -10 18 -108 q 209 192 160 88 q 285 408 258 297 q 313 632 313 518 q 296 844 313 750 q 239 1026 279 939 l 338 1082 q 411 889 385 999 q 438 658 438 779 q 331 167 438 394 q 17 -257 225 -61 l -69 -196 z "},"*":{"ha":653,"x_min":206,"x_max":769,"o":"m 550 951 q 540 840 550 893 q 518 729 529 788 q 616 783 568 757 q 722 829 664 810 l 731 832 l 769 715 l 758 711 q 647 684 703 690 q 533 674 592 678 q 619 598 579 635 q 694 513 660 561 l 701 503 l 600 432 l 594 440 q 537 540 561 490 q 488 642 513 589 q 438 540 463 589 q 381 440 414 490 l 375 432 l 274 503 l 281 513 q 356 598 315 561 q 442 674 396 635 q 328 684 383 678 q 217 711 272 690 l 206 715 l 244 832 l 253 829 q 359 783 311 810 q 457 729 407 757 q 435 840 446 788 q 425 951 425 893 l 425 963 l 550 963 l 550 951 z "},"+":{"ha":783,"x_min":165,"x_max":815,"o":"m 632 754 l 563 468 l 815 468 l 789 358 l 536 358 l 467 71 l 350 71 l 418 358 l 165 358 l 192 468 l 444 468 l 514 754 l 632 754 z "},",":{"ha":342,"x_min":4,"x_max":275,"o":"m 275 158 q 251 57 268 108 q 210 -44 235 6 q 156 -138 186 -93 q 92 -221 125 -183 l 4 -185 q 55 -103 32 -147 q 94 -12 78 -58 q 122 77 111 33 q 138 158 133 121 l 275 158 z "},"-":{"ha":407,"x_min":121,"x_max":485,"o":"m 149 476 l 485 476 l 457 356 l 121 356 l 149 476 z "},".":{"ha":342,"x_min":94,"x_max":278,"o":"m 178 -18 q 117 3 139 -18 q 94 64 94 24 q 124 141 94 114 q 193 168 154 168 q 255 147 232 168 q 278 83 278 125 q 269 41 278 60 q 246 9 260 22 q 214 -11 232 -4 q 178 -18 196 -18 z "},"/":{"ha":522,"x_min":-92,"x_max":814,"o":"m 38 -257 l -92 -257 l 685 1088 l 814 1088 l 38 -257 z "},":":{"ha":342,"x_min":94,"x_max":410,"o":"m 310 536 q 249 557 271 536 q 226 618 226 578 q 256 695 226 668 q 325 722 286 722 q 387 701 364 722 q 410 638 410 679 q 401 595 410 614 q 378 563 392 576 q 346 543 364 550 q 310 536 328 536 m 178 -18 q 117 3 139 -18 q 94 64 94 24 q 124 141 94 114 q 193 168 154 168 q 255 147 232 168 q 278 83 278 125 q 269 41 278 60 q 246 9 260 22 q 214 -11 232 -4 q 178 -18 196 -18 z "},";":{"ha":342,"x_min":4,"x_max":410,"o":"m 275 158 q 251 57 268 108 q 210 -44 235 6 q 156 -138 186 -93 q 92 -221 125 -183 l 4 -185 q 55 -103 32 -147 q 94 -12 78 -58 q 122 77 111 33 q 138 158 133 121 l 275 158 m 310 536 q 249 557 271 536 q 226 618 226 578 q 256 695 226 668 q 325 722 286 722 q 387 701 364 722 q 410 638 410 679 q 401 595 410 614 q 378 563 392 576 q 346 543 364 550 q 310 536 328 536 z "},"<":{"ha":783,"x_min":165,"x_max":850,"o":"m 693 103 l 165 357 l 192 468 l 842 722 l 850 608 l 319 406 l 751 204 l 693 103 z "},"=":{"ha":783,"x_min":131,"x_max":851,"o":"m 228 615 l 851 615 l 825 506 l 201 506 l 228 615 m 157 319 l 781 319 l 754 210 l 131 210 l 157 319 z "},">":{"ha":783,"x_min":131,"x_max":815,"o":"m 288 722 l 815 468 l 789 357 l 139 103 l 131 217 l 661 419 l 229 621 l 288 722 z "},"?":{"ha":533,"x_min":161,"x_max":678,"o":"m 678 788 q 661 703 678 742 q 617 631 644 664 q 557 570 590 599 q 489 515 524 542 q 395 431 438 475 q 338 326 353 388 q 334 310 335 318 q 333 300 333 303 l 221 300 q 224 331 222 317 q 228 358 225 344 q 293 480 244 429 q 404 579 342 531 q 458 624 432 601 q 505 669 485 646 q 537 720 525 693 q 549 779 549 747 q 544 813 549 794 q 527 845 540 831 q 490 869 514 860 q 428 879 467 879 q 317 864 361 879 q 247 836 272 849 l 233 936 q 324 970 267 956 q 444 985 382 985 q 554 969 510 985 q 626 928 599 954 q 666 865 654 901 q 678 788 678 829 m 244 -18 q 183 3 206 -18 q 161 64 161 24 q 191 141 161 114 q 260 168 221 168 q 322 147 299 168 q 344 83 344 125 q 335 41 344 60 q 313 9 326 22 q 281 -11 299 -4 q 244 -18 263 -18 z "},"@":{"ha":1293,"x_min":154,"x_max":1329,"o":"m 964 60 q 840 108 876 60 q 765 77 808 89 q 674 65 722 65 q 507 124 569 65 q 444 301 444 183 q 472 455 444 381 q 550 585 499 529 q 675 676 601 642 q 843 710 749 710 q 969 697 915 710 q 1050 674 1022 685 l 949 251 q 942 211 942 231 q 951 182 942 194 q 988 169 960 169 q 1088 203 1046 169 q 1157 291 1129 238 q 1198 408 1185 344 q 1211 532 1211 472 q 1192 672 1211 608 q 1128 782 1172 736 q 1014 853 1085 828 q 840 879 943 879 q 615 827 719 879 q 435 688 511 775 q 315 487 358 601 q 272 247 272 372 q 299 88 272 154 q 375 -22 326 21 q 492 -86 424 -65 q 642 -107 560 -107 q 777 -97 722 -107 q 847 -81 832 -86 l 838 -183 q 801 -192 825 -187 q 748 -202 778 -197 q 684 -210 718 -207 q 617 -212 650 -212 q 432 -184 517 -212 q 285 -99 347 -156 q 189 40 224 -43 q 154 233 154 124 q 201 508 154 372 q 338 749 247 643 q 558 919 428 854 q 858 985 689 985 q 1207 872 1085 985 q 1329 540 1329 760 q 1315 392 1329 475 q 1260 235 1300 310 q 1148 110 1219 161 q 964 60 1076 60 m 692 169 q 819 197 767 169 q 822 237 819 221 q 829 268 825 253 l 908 594 q 878 600 901 597 q 826 603 854 603 q 719 579 767 603 q 639 515 672 556 q 588 422 606 475 q 569 313 569 369 q 601 203 569 238 q 692 169 632 169 z "},"A":{"ha":883,"x_min":14,"x_max":878,"o":"m 297 247 l 161 0 l 14 0 q 317 517 169 281 q 610 963 465 753 l 742 963 q 780 752 763 858 q 814 529 797 646 q 846 282 831 413 q 878 0 861 151 l 742 0 q 729 126 735 63 q 717 247 724 189 l 297 247 m 704 356 q 678 579 693 468 q 644 808 664 690 q 524 626 596 738 q 360 356 451 514 l 704 356 z "},"B":{"ha":858,"x_min":117,"x_max":921,"o":"m 365 -10 q 305 -8 338 -10 q 239 -4 272 -7 q 174 3 206 -1 q 117 15 142 8 l 340 949 q 470 967 399 963 q 599 972 542 972 q 728 960 669 972 q 830 923 788 949 q 897 856 872 897 q 921 756 921 814 q 870 606 921 671 q 731 510 819 542 q 827 442 790 488 q 864 329 864 396 q 825 168 864 233 q 719 63 786 103 q 560 7 651 24 q 365 -10 469 -10 m 353 450 l 272 108 q 318 103 288 106 q 396 101 349 101 q 506 109 447 101 q 613 140 564 117 q 694 204 661 163 q 726 315 726 246 q 678 417 726 383 q 521 450 629 450 l 353 450 m 379 556 l 511 556 q 605 563 557 556 q 692 591 653 571 q 758 646 732 611 q 783 735 783 681 q 731 833 783 806 q 569 861 678 861 q 499 858 533 861 q 451 853 464 856 l 379 556 z "},"C":{"ha":833,"x_min":172,"x_max":994,"o":"m 538 -21 q 378 6 447 -21 q 264 81 310 32 q 195 198 218 129 q 172 353 172 267 q 212 592 172 478 q 324 793 251 706 q 500 933 397 881 q 729 985 603 985 q 902 963 838 985 q 994 921 967 940 l 939 810 q 852 849 907 831 q 722 868 797 868 q 550 823 626 868 q 421 706 474 778 q 340 545 368 635 q 313 368 313 456 q 547 97 313 97 q 637 104 597 97 q 707 120 676 111 q 761 140 738 129 q 803 160 785 151 l 819 43 q 776 22 803 33 q 713 1 749 11 q 632 -15 676 -8 q 538 -21 588 -21 z "},"D":{"ha":960,"x_min":117,"x_max":1013,"o":"m 576 858 q 451 853 472 858 l 274 111 q 311 106 285 108 q 397 104 338 104 q 595 141 507 104 q 744 244 683 178 q 839 401 806 310 q 872 600 872 492 q 801 790 872 722 q 576 858 731 858 m 588 972 q 907 872 801 972 q 1013 600 1013 771 q 975 370 1013 481 q 858 175 938 260 q 656 40 779 90 q 363 -10 533 -10 q 236 -4 304 -10 q 117 15 168 1 l 340 950 q 464 968 399 964 q 588 972 529 972 z "},"E":{"ha":774,"x_min":113,"x_max":911,"o":"m 113 0 l 343 963 l 911 963 l 885 850 l 450 850 l 381 560 l 767 560 l 740 450 l 356 450 l 274 113 l 740 113 l 714 0 l 113 0 z "},"F":{"ha":728,"x_min":113,"x_max":906,"o":"m 113 0 l 343 963 l 906 963 l 879 850 l 450 850 l 379 556 l 760 556 l 733 446 l 354 446 l 247 0 l 113 0 z "},"G":{"ha":904,"x_min":172,"x_max":1013,"o":"m 528 -19 q 263 81 353 -19 q 172 353 172 182 q 212 592 172 478 q 325 793 251 706 q 502 933 399 881 q 735 985 606 985 q 845 976 799 985 q 925 957 892 968 q 979 934 958 946 q 1013 914 1000 922 l 953 804 q 922 822 942 811 q 875 844 903 833 q 811 861 847 854 q 729 868 775 868 q 553 823 631 868 q 422 706 475 778 q 340 545 368 635 q 313 368 313 456 q 371 163 313 231 q 556 96 429 96 q 649 103 607 96 q 708 117 690 110 l 792 469 l 924 469 l 818 31 q 772 12 801 21 q 704 -4 743 3 q 620 -15 665 -11 q 528 -19 575 -19 z "},"H":{"ha":946,"x_min":113,"x_max":1058,"o":"m 828 0 l 693 0 l 800 447 l 354 447 l 247 0 l 113 0 l 343 963 l 478 963 l 381 560 l 826 560 l 924 963 l 1058 963 l 828 0 z "},"I":{"ha":365,"x_min":113,"x_max":478,"o":"m 343 963 l 478 963 l 247 0 l 113 0 l 343 963 z "},"J":{"ha":669,"x_min":33,"x_max":788,"o":"m 632 310 q 594 183 615 243 q 535 77 574 122 q 435 6 497 32 q 276 -21 374 -21 q 188 -12 228 -21 q 118 11 149 -3 q 66 40 88 25 q 33 67 44 54 l 100 168 q 167 121 122 146 q 279 96 211 96 q 364 108 329 96 q 424 148 399 121 q 466 218 449 175 q 499 322 483 261 l 653 963 l 788 963 l 632 310 z "},"K":{"ha":853,"x_min":113,"x_max":1042,"o":"m 1042 963 q 923 856 989 915 q 785 736 857 797 q 642 614 714 675 q 504 501 569 553 q 595 401 547 461 q 690 274 643 342 q 778 135 736 206 q 853 0 821 64 l 703 0 q 625 131 667 64 q 540 258 583 197 q 450 373 496 319 q 358 464 404 426 l 247 0 l 113 0 l 343 963 l 478 963 l 376 542 q 508 646 438 588 q 647 763 579 704 q 774 874 715 821 q 872 963 833 926 l 1042 963 z "},"L":{"ha":704,"x_min":113,"x_max":700,"o":"m 700 113 l 674 0 l 113 0 l 343 963 l 478 963 l 274 113 l 700 113 z "},"M":{"ha":1176,"x_min":89,"x_max":1235,"o":"m 1088 756 q 1032 676 1065 725 q 960 569 999 628 q 879 448 921 511 q 799 326 838 385 q 726 216 760 267 q 672 133 693 165 l 564 133 q 549 217 558 167 q 529 327 540 268 q 506 449 518 386 q 483 571 494 513 q 461 677 471 629 q 444 756 451 725 q 331 386 386 576 q 222 0 275 196 l 89 0 q 159 252 122 125 q 234 502 196 379 q 310 742 272 625 q 385 963 349 858 l 517 963 q 552 818 533 901 q 590 644 571 735 q 624 463 608 553 q 651 299 640 372 q 762 464 701 374 q 883 645 822 554 q 1002 819 944 736 q 1106 963 1060 901 l 1235 963 q 1172 485 1211 728 q 1085 0 1132 243 l 950 0 q 1026 388 992 200 q 1088 756 1061 576 z "},"N":{"ha":969,"x_min":113,"x_max":1081,"o":"m 733 0 q 674 183 708 81 q 598 392 639 286 q 514 597 557 497 q 429 769 471 696 l 244 0 l 113 0 l 343 963 l 458 963 q 549 792 503 888 q 638 597 596 697 q 717 401 681 497 q 776 229 753 306 l 949 963 l 1081 963 l 851 0 l 733 0 z "},"O":{"ha":1026,"x_min":172,"x_max":1079,"o":"m 729 985 q 870 962 806 985 q 981 893 935 939 q 1053 778 1028 847 q 1079 618 1079 710 q 1044 389 1079 503 q 939 184 1008 275 q 765 36 869 93 q 522 -21 661 -21 q 381 2 444 -21 q 270 71 317 25 q 198 185 224 117 q 172 346 172 254 q 207 574 172 460 q 312 780 242 689 q 486 928 382 871 q 729 985 590 985 m 536 96 q 704 141 629 96 q 831 258 779 186 q 911 421 883 331 q 939 601 939 511 q 885 797 939 725 q 715 868 832 868 q 547 823 621 868 q 420 706 472 778 q 340 543 368 633 q 313 363 313 453 q 366 167 313 239 q 536 96 419 96 z "},"P":{"ha":819,"x_min":113,"x_max":926,"o":"m 588 972 q 841 908 756 972 q 926 722 926 844 q 891 559 926 628 q 790 446 856 490 q 633 380 725 401 q 429 358 542 358 l 333 358 l 247 0 l 113 0 l 340 950 q 464 968 399 964 q 588 972 529 972 m 571 858 q 451 853 472 858 l 360 471 l 447 471 q 567 481 506 471 q 676 518 628 492 q 756 591 725 544 q 788 711 788 638 q 729 824 788 790 q 571 858 671 858 z "},"Q":{"ha":1026,"x_min":172,"x_max":1079,"o":"m 601 -15 q 600 -25 600 -19 q 600 -33 600 -31 q 622 -81 600 -61 q 678 -114 643 -100 q 760 -137 714 -128 q 857 -151 807 -146 l 810 -257 q 701 -240 761 -251 q 590 -205 642 -229 q 503 -140 538 -181 q 468 -36 468 -100 q 468 -29 468 -33 q 469 -18 468 -25 q 254 88 336 -4 q 172 346 172 179 q 207 574 172 460 q 312 780 242 689 q 486 928 382 871 q 729 985 590 985 q 870 962 806 985 q 981 893 935 939 q 1053 778 1028 847 q 1079 618 1079 710 q 1049 406 1079 511 q 959 212 1019 300 q 809 63 899 124 q 601 -15 719 1 m 536 96 q 704 141 629 96 q 831 258 779 186 q 911 421 883 331 q 939 601 939 511 q 885 797 939 725 q 715 868 832 868 q 547 823 621 868 q 420 706 472 778 q 340 543 368 633 q 313 363 313 453 q 366 167 313 239 q 536 96 419 96 z "},"R":{"ha":846,"x_min":113,"x_max":922,"o":"m 588 972 q 832 910 742 972 q 922 726 922 847 q 851 522 922 604 q 650 403 779 439 q 689 328 667 374 q 735 228 711 283 q 781 115 758 174 q 819 0 803 56 l 682 0 q 642 107 663 53 q 599 211 621 161 q 556 305 578 261 q 517 382 535 349 q 481 380 499 381 q 444 379 463 379 l 338 379 l 247 0 l 113 0 l 340 950 q 464 968 399 964 q 588 972 529 972 m 571 858 q 451 853 472 858 l 364 489 l 446 489 q 563 497 503 489 q 672 530 622 506 q 752 598 721 554 q 783 714 783 642 q 724 825 783 792 q 571 858 665 858 z "},"S":{"ha":718,"x_min":51,"x_max":832,"o":"m 342 96 q 427 105 385 96 q 503 135 469 114 q 557 190 536 156 q 578 274 578 224 q 565 334 578 308 q 528 380 551 360 q 474 417 506 400 q 406 454 443 435 q 341 490 374 471 q 283 538 308 510 q 241 606 257 567 q 225 699 225 644 q 249 814 225 761 q 321 905 274 867 q 437 964 368 943 q 594 985 506 985 q 674 978 636 985 q 742 963 711 972 q 797 942 774 953 q 832 924 821 932 l 769 818 q 694 853 746 838 q 571 869 642 869 q 488 860 526 869 q 422 832 450 851 q 378 783 394 813 q 361 711 361 753 q 372 651 361 675 q 403 608 383 626 q 451 574 422 589 q 513 542 479 558 q 591 499 554 521 q 656 449 628 478 q 699 381 683 419 q 715 286 715 342 q 685 152 715 210 q 603 56 656 94 q 480 -1 551 18 q 325 -21 408 -21 q 224 -13 269 -21 q 145 6 179 -6 q 88 28 111 17 q 51 50 64 40 l 114 160 q 197 119 140 142 q 342 96 254 96 z "},"T":{"ha":771,"x_min":229,"x_max":971,"o":"m 971 963 l 944 850 l 654 850 l 450 0 l 315 0 l 519 850 l 229 850 l 256 963 l 971 963 z "},"U":{"ha":925,"x_min":183,"x_max":1043,"o":"m 464 -21 q 339 1 392 -21 q 251 59 286 22 q 200 147 217 96 q 183 256 183 197 q 189 324 183 286 q 201 393 194 361 l 338 963 l 472 963 l 333 385 q 322 326 326 358 q 318 267 318 294 q 326 200 318 231 q 355 147 335 169 q 407 110 375 124 q 485 97 439 97 q 668 163 603 97 q 767 374 733 229 l 908 963 l 1043 963 l 899 358 q 853 210 879 279 q 781 90 828 140 q 658 9 733 39 q 464 -21 582 -21 z "},"V":{"ha":865,"x_min":231,"x_max":1076,"o":"m 460 160 q 578 339 518 243 q 699 538 639 435 q 817 749 760 642 q 928 963 875 856 l 1076 963 q 927 688 1000 818 q 783 440 854 558 q 640 212 711 321 q 493 0 568 103 l 361 0 q 322 210 340 104 q 289 433 304 317 q 259 680 274 550 q 231 963 244 810 l 369 963 q 412 519 392 715 q 460 160 432 324 z "},"W":{"ha":1272,"x_min":246,"x_max":1453,"o":"m 885 846 q 916 485 896 660 q 956 172 936 310 q 1042 343 997 250 q 1133 538 1088 436 q 1223 748 1178 640 q 1310 963 1268 856 l 1453 963 q 1231 450 1342 688 q 999 0 1121 213 l 863 0 q 817 303 839 147 q 781 644 794 460 q 595 316 686 472 q 401 0 504 160 l 265 0 q 250 225 254 113 q 246 458 246 338 q 250 702 246 579 q 263 963 254 825 l 396 963 q 381 674 386 817 q 375 385 375 532 q 379 172 375 278 q 570 490 475 319 q 761 846 665 661 l 885 846 z "},"X":{"ha":840,"x_min":18,"x_max":996,"o":"m 672 0 q 602 198 640 97 q 517 403 564 299 l 176 0 l 18 0 l 461 514 l 265 963 l 414 963 l 560 608 q 707 785 635 696 q 842 963 779 874 l 996 963 q 813 731 913 849 q 615 506 713 614 q 720 251 668 381 q 813 0 772 122 l 672 0 z "},"Y":{"ha":794,"x_min":228,"x_max":1011,"o":"m 322 0 l 414 386 q 313 678 360 532 q 228 963 267 825 l 374 963 q 433 733 400 850 q 506 508 465 617 q 691 733 597 615 q 857 963 785 851 l 1011 963 q 793 678 907 821 q 549 386 679 536 l 457 0 l 322 0 z "},"Z":{"ha":779,"x_min":49,"x_max":950,"o":"m 925 856 q 833 769 886 821 q 719 656 781 718 q 594 526 658 594 q 465 385 529 457 q 343 244 401 314 q 238 113 285 175 l 757 113 l 731 0 l 49 0 l 69 90 q 163 209 110 144 q 275 344 215 274 q 399 485 335 414 q 525 622 463 556 q 646 747 588 689 q 753 850 704 806 l 276 850 l 303 963 l 950 963 l 925 856 z "},"[":{"ha":447,"x_min":67,"x_max":697,"o":"m 390 1088 l 697 1088 l 674 986 l 488 986 l 213 -156 l 399 -156 l 374 -257 l 67 -257 l 390 1088 z "},"\\":{"ha":522,"x_min":229,"x_max":494,"o":"m 229 1088 l 347 1088 l 494 -257 l 374 -257 l 229 1088 z "},"]":{"ha":447,"x_min":-57,"x_max":574,"o":"m 250 -257 l -57 -257 l -33 -156 l 153 -156 l 428 986 l 242 986 l 267 1088 l 574 1088 l 250 -257 z "},"^":{"ha":783,"x_min":181,"x_max":814,"o":"m 585 833 l 275 446 l 181 503 l 553 967 l 663 967 l 814 490 l 708 444 l 585 833 z "},"_":{"ha":689,"x_min":-64,"x_max":657,"o":"m -37 -147 l 657 -147 l 631 -257 l -64 -257 l -37 -147 z "},"`":{"ha":522,"x_min":319,"x_max":590,"o":"m 414 1082 l 590 860 l 522 800 l 319 1003 l 414 1082 z "},"a":{"ha":756,"x_min":136,"x_max":813,"o":"m 600 -8 q 586 26 593 7 q 575 65 579 44 q 493 10 544 38 q 367 -18 442 -18 q 262 1 306 -18 q 190 56 218 21 q 149 138 163 90 q 136 242 136 185 q 167 424 136 335 q 261 582 199 513 q 418 694 324 651 q 639 738 513 738 q 726 729 676 738 q 813 701 776 721 l 706 265 q 694 204 699 233 q 689 143 689 175 q 694 78 689 111 q 714 8 700 46 l 600 -8 m 393 92 q 493 117 451 92 q 565 175 535 142 q 570 224 567 199 q 579 276 574 250 l 663 621 q 640 625 656 624 q 611 626 624 626 q 468 596 532 626 q 359 515 404 565 q 290 397 314 464 q 265 256 265 329 q 271 197 265 226 q 291 144 276 167 q 330 106 306 121 q 393 92 354 92 z "},"b":{"ha":771,"x_min":113,"x_max":801,"o":"m 401 693 q 475 726 433 713 q 564 740 517 740 q 669 721 624 740 q 743 667 714 701 q 787 586 772 633 q 801 485 801 539 q 771 299 801 389 q 678 140 740 210 q 522 27 615 69 q 301 -15 428 -15 q 256 -13 281 -15 q 205 -6 231 -11 q 155 8 179 0 q 113 28 131 17 l 358 1056 l 493 1078 l 401 693 m 532 631 q 449 616 490 631 q 372 575 408 601 l 260 104 q 292 99 274 101 q 328 96 310 96 q 471 127 407 96 q 579 210 535 158 q 648 330 624 263 q 672 471 672 397 q 666 531 672 501 q 644 582 660 560 q 601 617 628 604 q 532 631 574 631 z "},"c":{"ha":626,"x_min":139,"x_max":739,"o":"m 139 258 q 167 440 139 353 q 251 594 196 528 q 388 701 307 661 q 572 740 468 740 q 660 734 618 740 q 739 710 701 728 l 690 601 q 638 621 668 614 q 561 628 608 628 q 439 598 493 628 q 347 519 385 568 q 288 405 308 469 q 268 271 268 340 q 276 203 268 235 q 303 147 283 171 q 355 108 322 122 q 438 94 388 94 q 490 99 463 94 q 542 111 518 104 q 584 126 565 118 q 611 140 603 133 l 622 31 q 540 -2 596 14 q 414 -18 485 -18 q 296 2 347 -18 q 210 59 244 22 q 157 147 175 96 q 139 258 139 197 z "},"d":{"ha":760,"x_min":136,"x_max":907,"o":"m 693 143 q 699 78 693 111 q 718 8 704 46 l 604 -8 q 581 65 589 22 q 499 10 550 38 q 372 -18 447 -18 q 267 1 311 -18 q 193 54 222 19 q 150 137 164 89 q 136 242 136 185 q 167 424 136 335 q 260 582 199 513 q 415 694 322 651 q 632 736 508 736 q 663 735 647 736 q 694 731 678 733 l 772 1056 l 907 1078 l 711 265 q 699 204 704 233 q 693 143 693 175 m 399 92 q 498 116 457 92 q 569 172 539 140 q 574 220 571 194 q 585 276 578 246 l 668 624 q 640 627 656 626 q 611 628 625 628 q 468 597 532 628 q 359 515 404 567 q 290 397 314 464 q 265 256 265 329 q 272 194 265 224 q 294 142 279 165 q 335 106 310 119 q 399 92 361 92 z "},"e":{"ha":719,"x_min":139,"x_max":775,"o":"m 283 379 q 431 390 364 382 q 546 416 497 397 q 622 467 594 435 q 649 550 649 499 q 644 576 649 563 q 627 602 639 590 q 594 622 615 614 q 543 629 574 629 q 452 608 494 629 q 376 553 410 588 q 319 474 343 519 q 283 379 296 429 m 415 -18 q 293 2 344 -18 q 207 58 242 22 q 156 140 172 93 q 139 240 139 188 q 168 428 139 338 q 251 588 197 518 q 383 698 306 657 q 560 739 461 739 q 658 724 617 739 q 724 685 699 710 q 763 627 750 660 q 775 560 775 594 q 751 449 775 494 q 689 374 728 404 q 598 326 650 343 q 490 300 546 310 q 376 287 433 290 q 267 281 318 283 q 265 263 265 269 q 265 251 265 256 q 273 191 265 219 q 301 141 281 163 q 359 107 322 119 q 456 94 396 94 q 510 99 482 94 q 565 112 539 104 q 610 127 590 119 q 639 142 631 135 l 650 32 q 560 -1 622 17 q 415 -18 499 -18 z "},"f":{"ha":511,"x_min":-24,"x_max":783,"o":"m 408 722 l 650 722 l 625 614 l 383 614 l 272 156 q 243 29 256 85 q 213 -75 231 -26 q 167 -169 196 -124 q 90 -262 139 -214 l -24 -246 q 42 -154 18 -192 q 81 -78 65 -117 q 109 12 97 -39 q 140 143 121 63 l 294 788 q 337 911 311 857 q 402 1002 363 965 q 496 1058 442 1039 q 625 1078 550 1078 q 717 1068 674 1078 q 783 1047 761 1058 l 732 944 q 694 958 721 950 q 614 967 667 967 q 536 953 568 967 q 482 917 504 940 q 447 860 460 893 q 424 785 433 826 l 408 722 z "},"g":{"ha":764,"x_min":36,"x_max":819,"o":"m 281 -150 q 381 -136 338 -150 q 455 -96 424 -122 q 506 -33 486 -69 q 536 49 525 3 l 542 75 q 467 44 514 60 q 369 29 419 29 q 197 85 257 29 q 136 243 136 142 q 167 425 136 336 q 260 583 197 514 q 415 695 322 653 q 633 738 508 738 q 677 735 653 738 q 727 727 701 732 q 777 714 753 722 q 819 694 801 706 l 668 63 q 624 -72 650 -12 q 551 -174 597 -132 q 433 -238 506 -215 q 253 -261 361 -261 q 135 -245 193 -261 q 36 -206 76 -229 l 85 -97 q 169 -135 117 -121 q 281 -150 222 -150 m 397 138 q 499 158 453 138 q 571 196 546 178 l 672 618 q 640 624 658 621 q 606 626 622 626 q 468 598 531 626 q 360 522 406 569 q 290 410 315 474 q 265 279 265 347 q 298 171 265 204 q 397 138 331 138 z "},"h":{"ha":767,"x_min":106,"x_max":779,"o":"m 106 0 l 360 1056 l 494 1078 l 406 713 q 473 731 438 724 q 544 738 508 738 q 652 720 607 738 q 725 673 697 703 q 766 601 753 643 q 779 508 779 558 q 760 369 779 447 l 671 0 l 542 0 l 624 342 q 642 421 633 381 q 651 497 651 461 q 621 590 651 553 q 507 626 590 626 q 438 620 474 626 q 379 603 403 614 l 235 0 l 106 0 z "},"i":{"ha":346,"x_min":106,"x_max":476,"o":"m 235 0 l 106 0 l 279 722 l 408 722 l 235 0 m 385 853 q 331 872 353 853 q 310 926 310 892 q 338 997 310 971 q 400 1022 365 1022 q 454 1002 432 1022 q 476 946 476 982 q 447 878 476 904 q 385 853 418 853 z "},"j":{"ha":346,"x_min":-154,"x_max":478,"o":"m 242 28 q 199 -105 222 -50 q 142 -194 176 -160 q 61 -245 108 -229 q -54 -261 14 -261 q -108 -254 -78 -261 q -154 -236 -137 -247 l -125 -129 q -86 -144 -110 -139 q -35 -150 -62 -150 q 60 -101 28 -150 q 113 26 93 -53 l 279 722 l 408 722 l 242 28 m 386 853 q 333 872 354 853 q 311 926 311 892 q 339 997 311 971 q 401 1022 367 1022 q 456 1002 433 1022 q 478 946 478 982 q 449 878 478 904 q 386 853 419 853 z "},"k":{"ha":718,"x_min":106,"x_max":819,"o":"m 106 0 l 360 1056 l 494 1078 l 339 435 q 433 508 385 468 q 526 586 482 547 q 606 660 569 625 q 667 722 643 696 l 819 722 q 745 642 790 686 q 650 552 700 597 q 549 465 600 507 q 458 394 499 424 q 534 312 496 360 q 608 210 572 264 q 672 102 643 157 q 721 0 701 47 l 581 0 q 465 207 532 113 q 322 361 397 301 l 235 0 l 106 0 z "},"l":{"ha":383,"x_min":150,"x_max":481,"o":"m 299 318 q 285 258 292 288 q 278 203 278 229 q 301 128 278 156 q 386 93 324 100 l 357 -12 q 260 5 300 -11 q 197 47 221 21 q 161 110 172 74 q 150 189 150 146 q 156 256 150 221 q 171 328 161 290 l 346 1056 l 481 1078 l 299 318 z "},"m":{"ha":1150,"x_min":106,"x_max":1161,"o":"m 942 738 q 1045 719 1003 738 q 1113 668 1088 700 q 1150 594 1139 636 q 1161 504 1161 551 q 1156 438 1161 474 q 1143 369 1151 403 l 1054 0 l 925 0 l 1007 342 q 1023 413 1014 374 q 1032 492 1032 453 q 1026 543 1032 518 q 1005 586 1019 568 q 964 615 990 604 q 899 626 938 626 q 813 609 854 626 q 743 574 771 592 q 748 535 746 554 q 750 499 750 517 q 745 434 750 467 q 733 369 740 401 l 644 0 l 515 0 l 597 342 q 613 414 604 374 q 621 494 621 454 q 615 545 621 521 q 597 588 610 569 q 561 616 583 606 q 504 626 539 626 q 437 622 469 626 q 382 611 404 618 l 235 0 l 106 0 l 272 694 q 409 726 335 714 q 542 738 483 738 q 640 717 600 738 q 704 664 681 697 q 742 686 718 674 q 798 710 767 699 q 866 729 829 721 q 942 738 903 738 z "},"n":{"ha":765,"x_min":106,"x_max":778,"o":"m 235 0 l 106 0 l 272 694 q 410 726 336 714 q 543 738 485 738 q 651 720 606 738 q 724 673 696 703 q 765 601 751 643 q 778 508 778 558 q 772 441 778 476 q 758 369 767 406 l 669 0 l 540 0 l 622 342 q 641 421 632 381 q 650 497 650 461 q 619 590 650 553 q 506 626 589 626 q 438 622 471 626 q 382 611 404 618 l 235 0 z "},"o":{"ha":771,"x_min":139,"x_max":799,"o":"m 382 -18 q 203 49 268 -18 q 139 235 139 117 q 162 404 139 315 q 235 568 185 493 q 364 692 285 643 q 556 740 443 740 q 734 673 669 740 q 799 488 799 606 q 776 318 799 407 q 703 154 753 229 q 574 31 653 79 q 382 -18 494 -18 m 404 92 q 516 128 467 92 q 599 220 565 164 q 651 344 633 276 q 669 476 669 413 q 639 589 669 547 q 533 631 608 631 q 422 594 471 631 q 338 502 372 558 q 286 378 304 446 q 268 246 268 310 q 299 133 268 175 q 404 92 329 92 z "},"p":{"ha":758,"x_min":44,"x_max":789,"o":"m 526 740 q 644 721 594 740 q 725 667 693 701 q 773 587 757 633 q 789 485 789 540 q 760 299 789 389 q 670 140 731 210 q 517 29 610 71 q 299 -12 425 -12 q 265 -11 283 -12 q 233 -7 247 -10 l 174 -257 l 44 -257 l 272 692 q 399 728 331 715 q 526 740 468 740 m 260 101 q 290 98 274 99 q 321 97 306 97 q 463 128 400 97 q 569 210 525 158 q 636 330 613 263 q 660 471 660 397 q 653 531 660 501 q 627 582 646 560 q 576 617 608 604 q 494 631 544 631 q 431 624 460 631 q 382 613 401 618 l 260 101 z "},"q":{"ha":765,"x_min":136,"x_max":821,"o":"m 463 -257 l 529 22 q 457 -6 497 6 q 372 -18 417 -18 q 267 1 311 -18 q 193 54 222 19 q 150 137 164 89 q 136 242 136 185 q 167 424 136 335 q 261 582 199 513 q 418 694 324 651 q 639 738 513 738 q 728 728 678 738 q 821 697 779 719 l 592 -257 l 463 -257 m 404 92 q 485 105 444 92 q 558 143 525 118 l 674 619 q 611 626 635 626 q 468 596 532 626 q 359 515 404 565 q 290 397 314 464 q 265 256 265 329 q 272 194 265 224 q 293 142 278 165 q 335 106 308 119 q 404 92 363 92 z "},"r":{"ha":517,"x_min":106,"x_max":660,"o":"m 519 738 q 557 736 536 738 q 598 731 578 735 q 635 724 618 728 q 660 717 651 721 l 622 604 q 558 621 594 615 q 489 626 522 626 q 431 622 460 626 q 382 611 403 618 l 235 0 l 106 0 l 272 694 q 392 726 328 714 q 519 738 456 738 z "},"s":{"ha":572,"x_min":53,"x_max":661,"o":"m 286 90 q 345 96 315 90 q 398 114 375 101 q 435 148 421 126 q 450 201 450 169 q 443 238 450 222 q 421 268 436 254 q 383 295 406 282 q 328 325 360 308 q 269 356 296 340 q 223 392 243 371 q 192 441 203 413 q 181 510 181 469 q 256 677 181 614 q 474 740 331 740 q 591 727 540 740 q 661 703 642 714 l 613 597 q 550 621 593 608 q 454 633 507 633 q 401 628 428 633 q 353 609 375 622 q 319 574 332 596 q 306 522 306 553 q 335 460 306 485 q 422 410 364 436 q 487 376 458 393 q 535 337 515 358 q 566 286 556 315 q 576 217 576 257 q 554 114 576 158 q 492 40 532 69 q 399 -3 453 11 q 281 -18 344 -18 q 195 -12 233 -18 q 128 3 157 -6 q 81 20 100 11 q 53 35 63 29 l 103 140 q 130 126 113 135 q 172 110 147 118 q 225 96 196 101 q 286 90 254 90 z "},"t":{"ha":540,"x_min":151,"x_max":646,"o":"m 353 -19 q 200 26 249 -19 q 151 160 151 72 q 171 306 151 217 l 319 924 l 454 946 l 400 722 l 646 722 l 619 614 l 374 614 l 297 294 q 281 181 281 229 q 306 115 281 135 q 389 94 331 94 q 468 108 429 94 q 528 132 507 121 l 538 22 q 467 -5 517 10 q 353 -19 417 -19 z "},"u":{"ha":764,"x_min":153,"x_max":825,"o":"m 369 -18 q 267 0 308 -18 q 201 49 226 18 q 164 121 175 79 q 153 210 153 163 q 159 281 153 246 q 174 353 165 317 l 263 722 l 392 722 l 310 381 q 292 306 303 349 q 281 219 281 263 q 285 172 281 194 q 303 131 290 149 q 339 103 317 114 q 394 93 361 93 q 499 119 454 93 q 575 179 544 144 q 579 225 576 201 q 589 276 582 249 l 696 722 l 825 722 l 715 265 q 703 203 708 233 q 699 142 699 174 q 704 78 699 110 q 724 8 710 46 l 610 -8 q 596 26 603 7 q 585 68 589 46 q 549 39 569 54 q 501 11 528 24 q 441 -10 474 -1 q 369 -18 408 -18 z "},"v":{"ha":668,"x_min":176,"x_max":799,"o":"m 268 0 q 236 156 251 71 q 208 333 221 240 q 188 524 196 425 q 176 722 179 622 l 307 722 q 313 577 308 654 q 325 423 318 500 q 342 274 332 346 q 363 144 351 203 q 449 269 404 197 q 536 419 494 340 q 613 576 578 497 q 668 722 647 656 l 799 722 q 721 532 768 631 q 619 338 674 433 q 503 156 564 243 q 386 0 443 68 l 268 0 z "},"w":{"ha":1093,"x_min":188,"x_max":1224,"o":"m 796 150 q 874 263 831 193 q 958 413 917 333 q 1036 574 1000 493 q 1092 722 1072 656 l 1224 722 q 1146 525 1193 626 q 1044 328 1099 424 q 930 149 989 233 q 817 0 871 64 l 701 0 q 674 243 686 121 q 660 492 663 365 q 597 363 632 429 q 524 231 563 296 q 446 107 485 167 q 371 0 407 47 l 256 0 q 208 326 226 143 q 188 722 190 508 l 317 722 q 321 581 318 657 q 328 427 324 504 q 338 278 332 350 q 351 150 343 206 q 437 282 394 210 q 517 429 479 354 q 588 579 556 504 q 644 722 621 654 l 761 722 q 763 588 761 660 q 770 442 765 517 q 781 292 775 367 q 796 150 788 218 z "},"x":{"ha":657,"x_min":17,"x_max":772,"o":"m 439 463 q 547 599 497 533 q 632 722 596 664 l 772 722 q 641 545 713 635 q 494 368 569 456 q 583 187 539 281 q 660 0 628 93 l 525 0 q 472 135 504 63 q 407 274 439 207 l 167 0 l 17 0 l 350 372 l 171 722 l 314 722 l 439 463 z "},"y":{"ha":664,"x_min":-78,"x_max":783,"o":"m 390 117 q 486 290 443 200 q 562 461 529 379 q 617 612 594 543 q 649 722 639 681 l 783 722 q 740 591 768 669 q 673 422 713 513 q 584 235 633 331 q 476 53 535 140 q 388 -70 432 -12 q 292 -170 343 -128 q 181 -237 242 -212 q 43 -261 119 -261 q -29 -251 4 -261 q -78 -231 -62 -242 l -33 -125 q 4 -144 -19 -136 q 57 -151 28 -151 q 194 -112 138 -151 q 300 -10 250 -74 q 216 344 249 158 q 176 722 183 531 l 308 722 q 315 585 310 660 q 331 431 321 511 q 356 271 342 351 q 390 117 371 190 z "},"z":{"ha":631,"x_min":46,"x_max":750,"o":"m 728 629 q 619 527 688 593 q 475 385 550 461 q 331 235 400 310 q 222 108 263 161 l 610 108 l 585 0 l 46 0 l 65 83 q 171 219 107 144 q 303 367 235 293 q 439 506 372 440 q 556 614 506 571 l 210 614 l 235 722 l 750 722 l 728 629 z "},"{":{"ha":453,"x_min":142,"x_max":704,"o":"m 167 465 q 224 477 197 465 q 270 508 250 489 q 303 551 290 526 q 322 600 317 575 l 382 850 q 420 959 397 914 q 480 1033 443 1004 q 570 1074 517 1061 q 699 1088 624 1088 l 704 1088 l 679 986 q 613 981 642 986 q 562 961 583 976 q 525 919 540 946 q 500 849 510 892 l 449 635 q 395 492 426 543 q 306 415 364 440 q 347 359 335 392 q 358 290 358 326 q 354 243 358 267 q 344 196 350 219 l 293 -18 q 286 -53 289 -37 q 283 -81 283 -68 q 313 -139 283 -125 q 404 -156 342 -153 l 378 -257 l 372 -257 q 218 -222 272 -257 q 164 -103 164 -186 q 175 -19 164 -71 l 235 231 q 240 271 240 251 q 217 336 240 310 q 142 365 194 363 l 167 465 z "},"|":{"ha":382,"x_min":67,"x_max":508,"o":"m 390 1088 l 508 1088 l 185 -257 l 67 -257 l 390 1088 z "},"}":{"ha":453,"x_min":-58,"x_max":504,"o":"m 479 365 q 421 353 447 365 q 375 323 394 342 q 342 280 356 304 q 324 231 329 256 l 264 -19 q 226 -128 249 -83 q 166 -202 203 -174 q 76 -244 129 -231 q -53 -257 22 -257 l -58 -257 l -33 -156 q 34 -151 6 -156 q 84 -131 63 -146 q 120 -89 106 -115 q 146 -18 135 -62 l 197 196 q 251 339 219 288 q 340 415 282 390 q 299 472 311 439 q 288 540 288 504 q 292 588 288 564 q 301 635 296 611 l 353 849 q 360 883 357 868 q 363 911 363 899 q 333 969 363 956 q 242 986 304 983 l 268 1088 l 274 1088 q 428 1052 374 1088 q 482 933 482 1017 q 471 850 482 901 l 411 600 q 406 560 406 579 q 428 494 406 521 q 504 465 451 468 l 479 365 z "},"~":{"ha":783,"x_min":147,"x_max":836,"o":"m 510 471 q 567 430 542 449 q 629 411 592 411 q 670 422 651 411 q 703 449 689 433 q 728 485 717 465 q 747 521 739 504 l 836 493 q 806 428 825 463 q 760 365 788 394 q 695 317 732 336 q 611 299 658 299 q 531 317 563 299 q 474 356 500 336 q 417 397 442 378 q 354 415 392 415 q 313 404 331 415 q 280 377 294 393 q 255 342 265 361 q 236 306 244 322 l 147 333 q 177 398 158 364 q 224 461 196 432 q 288 509 251 490 q 372 528 325 528 q 452 509 421 528 q 510 471 483 490 z "},"€":{"ha":783,"x_min":144,"x_max":953,"o":"m 400 315 l 400 290 q 415 194 400 232 q 454 133 429 156 q 513 102 479 111 q 586 93 547 93 q 693 105 649 93 q 771 132 738 117 l 775 22 q 744 10 765 17 q 695 -3 724 3 q 635 -14 667 -10 q 571 -18 603 -18 q 349 58 425 -18 q 272 283 272 133 l 272 315 l 144 315 l 168 415 l 279 415 q 290 485 283 450 q 307 556 297 519 l 200 556 l 224 656 l 340 656 q 408 783 368 724 q 504 885 449 842 q 630 955 560 929 q 786 981 700 981 q 878 972 840 981 q 953 949 917 964 l 901 844 q 851 863 879 856 q 769 871 822 871 q 671 854 715 871 q 590 809 626 838 q 524 741 553 781 q 475 656 496 701 l 804 656 l 763 556 l 438 556 q 419 485 426 521 q 408 415 413 450 l 701 415 l 660 315 l 400 315 z "},"‚":{"ha":326,"x_min":15,"x_max":281,"o":"m 281 158 q 256 67 274 114 q 213 -23 238 21 q 160 -106 189 -67 q 103 -175 132 -144 l 15 -139 q 96 7 64 -64 q 139 158 128 78 l 281 158 z "},"ƒ":{"ha":511,"x_min":-154,"x_max":783,"o":"m 408 722 l 650 722 l 625 614 l 383 614 l 242 28 q 199 -105 222 -50 q 142 -194 176 -160 q 61 -245 108 -229 q -54 -261 14 -261 q -108 -254 -78 -261 q -154 -236 -137 -247 l -125 -129 q -86 -144 -110 -139 q -35 -150 -62 -150 q 60 -101 28 -150 q 113 26 93 -53 l 294 788 q 337 911 311 857 q 402 1002 363 965 q 496 1058 442 1039 q 625 1078 550 1078 q 717 1068 674 1078 q 783 1047 761 1058 l 732 944 q 694 958 721 950 q 614 967 667 967 q 536 953 568 967 q 482 917 504 940 q 447 860 460 893 q 424 785 433 826 l 408 722 z "},"„":{"ha":579,"x_min":15,"x_max":533,"o":"m 281 158 q 256 67 274 114 q 213 -23 238 21 q 160 -106 189 -67 q 103 -175 132 -144 l 15 -139 q 96 7 64 -64 q 139 158 128 78 l 281 158 m 533 158 q 508 67 526 114 q 466 -23 490 21 q 413 -106 442 -67 q 356 -175 385 -144 l 268 -139 q 349 7 317 -64 q 392 158 381 78 l 533 158 z "},"…":{"ha":1383,"x_min":153,"x_max":1261,"o":"m 236 -18 q 175 3 197 -18 q 153 64 153 24 q 183 141 153 114 q 251 168 213 168 q 313 147 290 168 q 336 83 336 125 q 327 41 336 60 q 304 9 318 22 q 272 -11 290 -4 q 236 -18 254 -18 m 699 -18 q 638 3 660 -18 q 615 64 615 24 q 645 141 615 114 q 714 168 675 168 q 776 147 753 168 q 799 83 799 125 q 790 41 799 60 q 767 9 781 22 q 735 -11 753 -4 q 699 -18 717 -18 m 1161 -18 q 1100 3 1122 -18 q 1078 64 1078 24 q 1108 141 1078 114 q 1176 168 1138 168 q 1238 147 1215 168 q 1261 83 1261 125 q 1252 41 1261 60 q 1229 9 1243 22 q 1197 -11 1215 -4 q 1161 -18 1179 -18 z "},"†":{"ha":661,"x_min":193,"x_max":758,"o":"m 519 556 l 435 201 q 378 -10 407 85 q 315 -200 350 -106 l 249 -200 q 276 -10 258 -106 q 321 201 293 85 l 406 556 l 193 556 l 219 663 l 432 663 l 504 963 l 618 963 l 546 663 l 758 663 l 732 556 l 519 556 z "},"‡":{"ha":661,"x_min":106,"x_max":758,"o":"m 432 188 q 377 -17 404 75 q 315 -201 350 -108 l 249 -201 q 274 -17 258 -108 q 318 188 290 75 l 106 188 l 131 293 l 343 293 l 406 556 l 193 556 l 219 661 l 432 661 l 504 963 l 618 963 l 546 661 l 758 661 l 732 556 l 519 556 l 457 293 l 669 293 l 644 188 l 432 188 z "},"ˆ":{"ha":522,"x_min":292,"x_max":664,"o":"m 493 926 l 338 813 l 292 875 l 517 1068 l 664 863 l 603 806 l 493 926 z "},"‰":{"ha":1663,"x_min":219,"x_max":1660,"o":"m 374 0 l 242 0 l 1004 963 l 1136 963 l 374 0 m 219 661 q 238 777 219 719 q 291 881 257 835 q 375 955 325 926 q 488 983 425 983 q 617 935 571 983 q 664 794 664 888 q 645 678 664 736 q 592 575 626 621 q 508 501 558 529 q 396 472 458 472 q 266 520 313 472 q 219 661 219 568 m 561 785 q 545 862 561 832 q 481 892 529 892 q 410 869 440 892 q 361 815 381 847 q 332 743 342 782 q 322 671 322 704 q 338 594 322 624 q 403 564 354 564 q 473 586 443 564 q 522 641 503 608 q 551 713 542 674 q 561 785 561 751 m 714 168 q 733 284 714 226 q 785 388 751 342 q 869 462 819 433 q 982 490 919 490 q 1112 442 1065 490 q 1158 301 1158 394 q 1140 185 1158 243 q 1087 82 1121 128 q 1003 8 1053 36 q 890 -21 953 -21 q 760 27 807 -21 q 714 168 714 75 m 1056 292 q 1040 369 1056 339 q 975 399 1024 399 q 905 376 935 399 q 856 322 875 354 q 826 250 836 289 q 817 178 817 211 q 833 101 817 131 q 897 71 849 71 q 967 93 938 71 q 1017 148 997 115 q 1046 219 1036 181 q 1056 292 1056 258 m 1215 168 q 1234 284 1215 226 q 1287 388 1253 342 q 1371 462 1321 433 q 1483 490 1421 490 q 1613 442 1567 490 q 1660 301 1660 394 q 1641 185 1660 243 q 1588 82 1622 128 q 1504 8 1554 36 q 1392 -21 1454 -21 q 1262 27 1308 -21 q 1215 168 1215 75 m 1557 292 q 1541 369 1557 339 q 1476 399 1525 399 q 1406 376 1436 399 q 1357 322 1376 354 q 1328 250 1338 289 q 1318 178 1318 211 q 1334 101 1318 131 q 1399 71 1350 71 q 1469 93 1439 71 q 1518 148 1499 115 q 1547 219 1538 181 q 1557 292 1557 258 z "},"Š":{"ha":718,"x_min":51,"x_max":832,"o":"m 342 96 q 427 105 385 96 q 503 135 469 114 q 557 190 536 156 q 578 274 578 224 q 565 334 578 308 q 528 380 551 360 q 474 417 506 400 q 406 454 443 435 q 341 490 374 471 q 283 538 308 510 q 241 606 257 567 q 225 699 225 644 q 249 814 225 761 q 321 905 274 867 q 437 964 368 943 q 594 985 506 985 q 674 978 636 985 q 742 963 711 972 q 797 942 774 953 q 832 924 821 932 l 769 818 q 694 853 746 838 q 571 869 642 869 q 488 860 526 869 q 422 832 450 851 q 378 783 394 813 q 361 711 361 753 q 372 651 361 675 q 403 608 383 626 q 451 574 422 589 q 513 542 479 558 q 591 499 554 521 q 656 449 628 478 q 699 381 683 419 q 715 286 715 342 q 685 152 715 210 q 603 56 656 94 q 480 -1 551 18 q 325 -21 408 -21 q 224 -13 269 -21 q 145 6 179 -6 q 88 28 111 17 q 51 50 64 40 l 114 160 q 197 119 140 142 q 342 96 254 96 m 622 1171 l 778 1285 l 824 1222 l 599 1029 l 451 1235 l 513 1292 l 622 1171 z "},"‹":{"ha":404,"x_min":133,"x_max":496,"o":"m 383 128 l 297 88 l 133 403 l 415 701 l 496 653 l 278 389 l 383 128 z "},"Œ":{"ha":1333,"x_min":172,"x_max":1471,"o":"m 597 -10 q 410 17 490 -10 q 278 92 331 43 q 199 209 225 140 q 172 364 172 278 q 210 594 172 483 q 326 788 247 704 q 528 922 406 872 q 822 972 651 972 q 892 969 858 972 q 954 963 926 967 l 1471 963 l 1444 850 l 1031 850 l 961 560 l 1326 560 l 1300 450 l 936 450 l 854 113 l 1300 113 l 1274 0 l 742 0 q 664 -7 703 -4 q 597 -10 625 -10 m 788 858 q 590 822 678 858 q 440 719 501 785 q 346 563 379 654 q 313 364 313 472 q 383 173 313 242 q 608 104 454 104 q 672 106 642 104 q 721 111 701 108 l 897 851 q 857 856 882 854 q 788 858 832 858 z "},"‘":{"ha":326,"x_min":253,"x_max":518,"o":"m 253 722 q 278 813 260 767 q 320 903 296 860 q 373 986 344 947 q 431 1056 401 1025 l 518 1019 q 438 874 469 944 q 394 722 406 803 l 253 722 z "},"’":{"ha":326,"x_min":228,"x_max":493,"o":"m 493 1042 q 468 951 486 997 q 426 860 450 904 q 373 778 401 817 q 315 708 344 739 l 228 744 q 308 890 276 819 q 351 1042 340 961 l 493 1042 z "},"“":{"ha":579,"x_min":253,"x_max":771,"o":"m 253 722 q 278 813 260 767 q 320 903 296 860 q 373 986 344 947 q 431 1056 401 1025 l 518 1019 q 438 874 469 944 q 394 722 406 803 l 253 722 m 506 722 q 531 813 513 767 q 573 903 549 860 q 626 986 597 947 q 683 1056 654 1025 l 771 1019 q 690 874 722 944 q 647 722 658 803 l 506 722 z "},"”":{"ha":579,"x_min":228,"x_max":746,"o":"m 493 1042 q 468 951 486 997 q 426 860 450 904 q 373 778 401 817 q 315 708 344 739 l 228 744 q 308 890 276 819 q 351 1042 340 961 l 493 1042 m 746 1042 q 721 951 739 997 q 678 860 703 904 q 626 778 654 817 q 568 708 597 739 l 481 744 q 561 890 529 819 q 604 1042 593 961 l 746 1042 z "},"•":{"ha":500,"x_min":186,"x_max":542,"o":"m 542 490 q 529 422 542 454 q 494 367 517 390 q 438 328 471 343 q 364 314 406 314 q 290 328 322 314 q 234 367 257 343 q 199 422 211 390 q 186 490 186 454 q 199 558 186 525 q 234 614 211 590 q 290 652 257 638 q 364 667 322 667 q 438 652 406 667 q 494 614 471 638 q 529 558 517 590 q 542 490 542 525 z "},"–":{"ha":689,"x_min":85,"x_max":806,"o":"m 111 471 l 806 471 l 779 361 l 85 361 l 111 471 z "},"—":{"ha":1383,"x_min":85,"x_max":1500,"o":"m 111 471 l 1500 471 l 1474 361 l 85 361 l 111 471 z "},"˜":{"ha":522,"x_min":250,"x_max":726,"o":"m 507 982 q 544 964 528 971 q 578 957 561 957 q 626 978 607 957 q 661 1024 646 1000 l 726 983 q 660 894 699 925 q 560 863 622 863 q 510 872 532 863 q 469 893 489 882 q 432 911 449 904 q 399 918 415 918 q 350 897 369 918 q 315 851 331 875 l 250 892 q 316 981 278 950 q 417 1013 354 1013 q 466 1003 444 1013 q 507 982 488 993 z "},"™":{"ha":1054,"x_min":183,"x_max":1138,"o":"m 571 963 l 571 878 l 425 878 l 425 500 l 329 500 l 329 878 l 183 878 l 183 963 l 571 963 m 1099 963 q 1118 781 1110 892 q 1138 500 1126 671 l 1040 500 q 1033 653 1038 571 q 1024 804 1029 736 q 990 743 1008 778 q 953 673 971 708 q 921 607 936 638 q 897 558 906 576 l 829 558 q 806 607 821 576 q 772 672 790 638 q 735 742 754 707 q 703 804 717 776 q 693 653 697 736 q 686 500 689 571 l 590 500 q 610 781 601 671 q 629 963 618 892 l 721 963 q 749 905 732 939 q 784 833 765 871 q 824 754 803 794 q 864 676 844 714 q 903 754 882 714 q 943 833 924 794 q 979 906 963 872 q 1007 963 996 939 l 1099 963 z "},"š":{"ha":572,"x_min":53,"x_max":717,"o":"m 286 90 q 345 96 315 90 q 398 114 375 101 q 435 148 421 126 q 450 201 450 169 q 443 238 450 222 q 421 268 436 254 q 383 295 406 282 q 328 325 360 308 q 269 356 296 340 q 223 392 243 371 q 192 441 203 413 q 181 510 181 469 q 256 677 181 614 q 474 740 331 740 q 591 727 540 740 q 661 703 642 714 l 613 597 q 550 621 593 608 q 454 633 507 633 q 401 628 428 633 q 353 609 375 622 q 319 574 332 596 q 306 522 306 553 q 335 460 306 485 q 422 410 364 436 q 487 376 458 393 q 535 337 515 358 q 566 286 556 315 q 576 217 576 257 q 554 114 576 158 q 492 40 532 69 q 399 -3 453 11 q 281 -18 344 -18 q 195 -12 233 -18 q 128 3 157 -6 q 81 20 100 11 q 53 35 63 29 l 103 140 q 130 126 113 135 q 172 110 147 118 q 225 96 196 101 q 286 90 254 90 m 515 954 l 671 1068 l 717 1006 l 492 813 l 344 1018 l 406 1075 l 515 954 z "},"›":{"ha":404,"x_min":97,"x_max":460,"o":"m 210 661 l 296 701 l 460 386 l 178 88 l 97 136 l 315 400 l 210 661 z "},"œ":{"ha":1224,"x_min":139,"x_max":1279,"o":"m 404 92 q 516 128 467 92 q 599 220 565 164 q 651 344 633 276 q 669 476 669 413 q 639 589 669 547 q 533 631 608 631 q 422 594 471 631 q 338 502 372 558 q 286 378 304 446 q 268 246 268 310 q 299 133 268 175 q 404 92 329 92 m 788 379 q 935 390 868 382 q 1050 416 1001 397 q 1126 467 1099 435 q 1153 550 1153 499 q 1148 576 1153 563 q 1131 602 1143 590 q 1099 622 1119 614 q 1047 629 1078 629 q 956 608 999 629 q 881 553 914 588 q 824 474 847 519 q 788 379 800 429 m 926 -18 q 765 22 831 -18 q 678 135 699 63 q 560 27 633 72 q 382 -18 486 -18 q 203 49 268 -18 q 139 235 139 117 q 162 404 139 315 q 235 568 185 493 q 364 692 285 643 q 556 740 443 740 q 699 699 643 740 q 768 586 754 657 q 890 696 817 653 q 1064 739 964 739 q 1162 724 1121 739 q 1228 685 1203 710 q 1267 627 1254 660 q 1279 560 1279 594 q 1256 449 1279 494 q 1193 374 1232 404 q 1102 326 1154 343 q 994 300 1050 310 q 880 287 938 290 q 771 281 822 283 q 770 268 771 274 q 769 256 769 263 q 783 176 769 207 q 823 127 797 146 q 885 101 849 108 q 968 94 922 94 q 1022 100 994 94 q 1073 113 1049 106 q 1116 128 1097 119 q 1143 142 1135 136 l 1154 32 q 1118 15 1142 24 q 1064 -1 1094 7 q 999 -13 1033 -8 q 926 -18 964 -18 z "},"Ÿ":{"ha":794,"x_min":228,"x_max":1011,"o":"m 322 0 l 414 386 q 313 678 360 532 q 228 963 267 825 l 374 963 q 433 733 400 850 q 506 508 465 617 q 691 733 597 615 q 857 963 785 851 l 1011 963 q 793 678 907 821 q 549 386 679 536 l 457 0 l 322 0 m 522 1072 q 471 1092 492 1072 q 450 1143 450 1111 q 478 1210 450 1185 q 538 1236 506 1236 q 590 1216 568 1236 q 611 1163 611 1196 q 583 1097 611 1122 q 522 1072 554 1072 m 786 1072 q 735 1092 756 1072 q 714 1143 714 1111 q 742 1210 714 1185 q 801 1236 769 1236 q 853 1216 832 1236 q 875 1163 875 1196 q 847 1097 875 1122 q 786 1072 818 1072 z "}," ":{"ha":321,"x_min":0,"x_max":0,"o":""},"¡":{"ha":347,"x_min":40,"x_max":408,"o":"m 40 -257 l 103 4 q 126 91 111 38 q 158 201 140 144 q 194 313 175 258 q 228 404 213 368 l 307 404 q 281 215 296 310 q 239 3 267 119 l 176 -257 l 40 -257 m 308 536 q 247 557 269 536 q 225 618 225 578 q 255 695 225 668 q 324 722 285 722 q 385 701 363 722 q 408 638 408 679 q 399 595 408 614 q 376 563 390 576 q 344 543 363 550 q 308 536 326 536 z "},"¢":{"ha":783,"x_min":221,"x_max":811,"o":"m 636 660 q 517 630 571 660 q 426 551 464 600 q 368 442 389 503 q 347 317 347 381 q 355 253 347 283 q 381 201 363 224 q 431 166 400 179 q 511 153 463 153 q 563 157 536 153 q 614 168 590 161 q 656 183 638 175 q 682 197 674 190 l 692 90 q 620 60 669 75 q 508 43 571 46 l 463 -151 l 350 -151 l 397 50 q 221 313 221 89 q 243 461 221 388 q 310 597 265 535 q 419 703 354 658 q 571 763 485 747 l 618 963 l 731 963 l 685 769 q 750 759 718 767 q 811 736 782 751 l 764 633 q 712 653 742 646 q 636 660 682 660 z "},"£":{"ha":783,"x_min":176,"x_max":918,"o":"m 468 518 l 731 518 l 706 414 l 443 414 l 440 403 q 399 257 424 332 q 347 111 375 182 l 750 111 l 724 0 l 176 0 q 250 197 215 100 q 308 393 285 293 l 314 414 l 185 414 l 210 518 l 339 518 l 367 633 q 425 805 392 738 q 503 911 458 872 q 606 965 549 950 q 733 981 663 981 q 846 967 806 981 q 918 936 886 954 l 860 832 q 794 858 828 849 q 717 868 760 868 q 643 857 676 868 q 583 819 610 846 q 534 747 556 792 q 496 636 513 703 l 468 518 z "},"¤":{"ha":783,"x_min":168,"x_max":829,"o":"m 231 482 q 269 629 231 568 l 168 732 l 249 813 l 351 708 q 499 749 417 749 q 644 708 579 749 l 749 813 l 829 732 l 726 629 q 767 482 767 568 q 726 335 767 396 l 829 232 l 749 151 l 644 254 q 499 215 579 215 q 351 254 415 215 l 249 151 l 168 232 l 269 333 q 231 482 231 394 m 663 482 q 649 553 663 521 q 614 608 636 585 q 562 642 592 631 q 499 654 532 654 q 435 642 465 654 q 383 608 406 631 q 348 553 361 585 q 335 482 335 521 q 348 410 335 442 q 383 356 361 379 q 435 322 406 333 q 499 310 465 310 q 562 322 532 310 q 614 356 592 333 q 649 410 636 379 q 663 482 663 442 z "},"¥":{"ha":783,"x_min":138,"x_max":982,"o":"m 714 147 l 488 147 l 453 0 l 328 0 l 363 147 l 138 147 l 161 246 l 386 246 l 419 388 l 196 388 l 219 486 l 408 486 q 254 963 310 731 l 388 963 q 411 860 397 914 q 441 750 425 806 q 476 640 457 694 q 515 536 494 585 q 597 635 554 582 q 683 744 640 689 q 765 856 725 800 q 836 963 804 911 l 982 963 q 800 717 899 842 q 606 486 701 593 l 794 486 l 771 388 l 544 388 l 511 246 l 738 246 l 714 147 z "},"¦":{"ha":382,"x_min":67,"x_max":508,"o":"m 263 556 l 390 1088 l 508 1088 l 381 556 l 263 556 m 313 275 l 185 -257 l 67 -257 l 194 275 l 313 275 z "},"§":{"ha":675,"x_min":44,"x_max":794,"o":"m 346 188 q 273 217 307 201 q 213 255 239 232 q 172 312 188 278 q 157 396 157 346 q 206 533 157 471 q 326 633 256 594 q 286 746 286 674 q 308 847 286 803 q 371 922 331 892 q 467 969 411 953 q 590 985 524 985 q 712 970 661 985 q 794 940 763 956 l 746 840 q 683 866 722 851 q 581 881 643 881 q 460 853 507 881 q 413 765 413 826 q 439 703 413 725 q 528 658 465 681 q 601 628 567 643 q 660 590 635 613 q 699 535 685 568 q 714 450 714 501 q 665 312 714 371 q 544 213 617 253 q 581 165 564 194 q 599 82 599 135 q 578 -11 599 32 q 516 -85 557 -54 q 415 -134 475 -117 q 278 -151 356 -151 q 144 -138 203 -151 q 44 -103 85 -125 l 94 -1 q 171 -32 121 -17 q 288 -47 221 -47 q 426 -15 379 -47 q 472 69 472 17 q 463 114 472 96 q 438 144 454 132 q 399 167 422 157 q 346 188 375 176 m 465 265 q 512 293 489 276 q 553 332 535 310 q 582 380 571 354 q 593 435 593 406 q 581 481 593 461 q 547 517 568 501 q 495 544 525 532 q 432 569 465 557 q 408 581 414 576 q 362 552 385 569 q 320 513 339 535 q 290 466 301 492 q 278 411 278 440 q 291 364 278 383 q 326 329 304 344 q 376 301 347 314 q 439 276 406 289 q 453 271 447 274 q 465 265 460 268 z "},"¨":{"ha":522,"x_min":274,"x_max":699,"o":"m 346 856 q 294 875 315 856 q 274 926 274 894 q 301 994 274 968 q 361 1019 329 1019 q 413 999 392 1019 q 435 946 435 979 q 406 881 435 906 q 346 856 378 856 m 610 856 q 558 875 579 856 q 538 926 538 894 q 565 994 538 968 q 625 1019 593 1019 q 677 999 656 1019 q 699 946 699 979 q 670 881 699 906 q 610 856 642 856 z "},"©":{"ha":1131,"x_min":197,"x_max":1147,"o":"m 1147 482 q 1108 269 1147 363 q 1004 112 1069 176 q 853 13 939 47 q 672 -21 767 -21 q 492 13 578 -21 q 340 112 406 47 q 236 269 275 176 q 197 482 197 363 q 236 694 197 600 q 340 852 275 788 q 492 951 406 917 q 672 985 578 985 q 853 951 767 985 q 1004 852 939 917 q 1108 694 1069 788 q 1147 482 1147 600 m 1046 482 q 1018 649 1046 574 q 941 779 990 725 q 823 863 892 833 q 672 892 754 892 q 522 863 590 892 q 403 779 453 833 q 326 649 354 725 q 299 482 299 574 q 326 315 299 390 q 403 185 354 239 q 522 101 453 131 q 672 72 590 72 q 823 101 754 72 q 941 185 892 131 q 1018 315 990 239 q 1046 482 1046 390 m 689 194 q 581 214 629 194 q 497 269 532 233 q 442 359 461 306 q 422 482 422 413 q 444 603 422 550 q 501 692 465 656 q 586 749 538 729 q 689 768 635 768 q 755 763 725 768 q 807 749 785 757 q 844 734 829 742 q 864 722 858 726 l 832 639 q 778 662 815 649 q 693 675 742 675 q 575 626 622 675 q 528 482 528 578 q 571 340 528 394 q 697 286 614 286 q 787 298 751 286 q 842 319 822 310 l 868 236 q 805 211 853 228 q 689 194 757 194 z "},"ª":{"ha":576,"x_min":219,"x_max":706,"o":"m 390 458 q 260 509 300 458 q 219 642 219 560 q 242 767 219 706 q 308 876 264 828 q 419 953 353 924 q 576 983 486 983 q 638 977 601 983 q 706 958 675 971 l 629 676 q 617 590 617 632 q 624 531 617 556 q 642 478 631 507 l 546 461 q 534 482 540 468 q 525 510 528 496 q 472 474 506 490 q 390 458 438 458 m 586 894 q 576 897 583 896 q 557 899 568 899 q 460 878 504 899 q 385 824 417 858 q 338 744 354 789 q 321 651 321 700 q 324 611 321 631 q 338 576 328 592 q 367 552 349 561 q 413 543 385 543 q 469 558 443 543 q 517 596 496 574 q 522 641 517 617 q 531 683 526 665 l 586 894 z "},"«":{"ha":693,"x_min":133,"x_max":785,"o":"m 383 128 l 297 88 l 133 403 l 415 701 l 496 653 l 278 389 l 383 128 m 672 128 l 586 88 l 422 403 l 704 701 l 785 653 l 567 389 l 672 128 z "},"¬":{"ha":783,"x_min":183,"x_max":833,"o":"m 833 544 l 719 71 l 603 71 l 690 435 l 183 435 l 210 544 l 833 544 z "},"­":{"ha":407,"x_min":121,"x_max":485,"o":"m 149 476 l 485 476 l 457 356 l 121 356 l 149 476 z "},"®":{"ha":1131,"x_min":197,"x_max":1147,"o":"m 1147 482 q 1108 269 1147 363 q 1004 112 1069 176 q 853 13 939 47 q 672 -21 767 -21 q 492 13 578 -21 q 340 112 406 47 q 236 269 275 176 q 197 482 197 363 q 236 694 197 600 q 340 852 275 788 q 492 951 406 917 q 672 985 578 985 q 853 951 767 985 q 1004 852 939 917 q 1108 694 1069 788 q 1147 482 1147 600 m 1046 482 q 1018 649 1046 574 q 941 779 990 725 q 823 863 892 833 q 672 892 754 892 q 522 863 590 892 q 403 779 453 833 q 326 649 354 725 q 299 482 299 574 q 326 315 299 390 q 403 185 354 239 q 522 101 453 131 q 672 72 590 72 q 823 101 754 72 q 941 185 892 131 q 1018 315 990 239 q 1046 482 1046 390 m 810 206 q 738 324 778 268 q 669 414 699 381 l 576 414 l 576 206 l 478 206 l 478 744 q 557 757 515 753 q 633 761 599 761 q 816 717 754 761 q 878 582 878 674 q 851 492 878 531 q 774 433 824 454 q 806 392 788 417 q 844 337 824 367 q 883 273 864 307 q 917 206 901 239 l 810 206 m 576 494 l 629 494 q 733 512 692 494 q 775 583 775 529 q 735 655 775 635 q 640 675 696 675 q 608 674 625 675 q 576 672 592 674 l 576 494 z "},"¯":{"ha":522,"x_min":279,"x_max":692,"o":"m 303 988 l 692 988 l 668 888 l 279 888 l 303 988 z "},"°":{"ha":461,"x_min":211,"x_max":600,"o":"m 600 885 q 584 804 600 840 q 542 743 568 768 q 480 705 515 718 q 406 692 444 692 q 331 705 367 692 q 269 743 296 718 q 227 804 243 768 q 211 885 211 840 q 227 965 211 929 q 269 1026 243 1001 q 331 1065 296 1051 q 406 1078 367 1078 q 480 1065 444 1078 q 542 1026 515 1051 q 584 965 568 1001 q 600 885 600 929 m 507 885 q 477 962 507 933 q 406 990 447 990 q 334 962 364 990 q 304 885 304 933 q 334 808 304 836 q 406 779 364 779 q 477 808 447 779 q 507 885 507 836 z "},"±":{"ha":783,"x_min":76,"x_max":839,"o":"m 656 861 l 586 575 l 839 575 l 813 465 l 560 465 l 494 193 l 378 193 l 442 465 l 189 465 l 215 575 l 468 575 l 538 861 l 656 861 m 726 110 l 700 0 l 76 0 l 103 110 l 726 110 z "},"²":{"ha":499,"x_min":172,"x_max":604,"o":"m 558 525 l 538 438 l 172 438 q 194 524 178 488 q 236 590 211 561 q 293 643 261 619 q 361 689 325 667 q 424 729 397 711 q 469 764 451 747 q 497 799 488 781 q 506 842 506 818 q 485 885 506 871 q 438 899 465 899 q 345 878 379 899 q 293 843 311 858 l 260 911 q 336 961 288 938 q 449 985 385 985 q 566 948 528 985 q 604 849 604 911 q 585 775 604 808 q 538 714 567 742 q 474 663 508 686 q 407 621 439 640 q 343 579 378 601 q 296 525 308 557 l 558 525 z "},"³":{"ha":499,"x_min":157,"x_max":601,"o":"m 322 511 q 378 515 351 511 q 426 531 406 519 q 460 563 447 543 q 474 611 474 582 q 438 667 474 650 q 342 683 401 683 l 313 683 l 332 761 l 367 761 q 410 765 386 761 q 456 779 435 769 q 491 804 476 789 q 506 843 506 819 q 487 888 506 875 q 428 900 468 900 q 355 889 390 900 q 297 867 319 878 l 278 939 q 310 955 290 947 q 355 969 331 963 q 404 981 379 976 q 451 985 429 985 q 567 951 533 985 q 601 871 601 918 q 573 782 601 815 q 494 725 544 749 q 549 685 528 711 q 571 614 571 658 q 501 474 571 522 q 319 426 432 426 q 224 438 264 426 q 157 464 185 449 l 194 542 q 252 521 218 531 q 322 511 286 511 z "},"´":{"ha":522,"x_min":364,"x_max":654,"o":"m 654 983 l 419 806 l 364 874 l 583 1083 l 654 983 z "},"µ":{"ha":794,"x_min":44,"x_max":839,"o":"m 593 160 q 597 231 593 196 q 610 304 600 265 l 710 722 l 839 722 l 736 293 q 724 233 729 261 q 718 182 718 206 q 735 122 718 146 q 797 92 753 99 l 768 -12 q 675 8 710 -11 q 619 61 640 26 q 508 4 569 22 q 379 -14 447 -14 q 299 3 336 -14 q 242 53 261 21 q 227 -27 236 17 q 207 -114 218 -71 l 172 -257 l 44 -257 l 279 722 l 408 722 l 326 381 q 308 306 319 349 q 297 219 297 263 q 302 172 297 194 q 321 131 307 149 q 357 103 335 114 q 415 93 379 93 q 512 110 468 93 q 593 160 556 128 z "},"¶":{"ha":903,"x_min":213,"x_max":983,"o":"m 747 865 q 723 865 736 865 q 701 864 710 865 l 432 -257 l 324 -257 l 472 364 q 272 432 332 374 q 213 589 213 490 q 260 766 213 693 q 383 885 307 839 q 553 951 458 931 q 742 972 647 972 q 865 967 800 972 q 983 949 931 963 l 694 -257 l 586 -257 l 854 858 q 747 865 819 865 z "},"·":{"ha":342,"x_min":174,"x_max":357,"o":"m 257 315 q 196 336 218 315 q 174 397 174 357 q 203 474 174 447 q 272 501 233 501 q 334 480 311 501 q 357 417 357 458 q 348 374 357 393 q 325 342 339 356 q 293 322 311 329 q 257 315 275 315 z "},"¸":{"ha":522,"x_min":44,"x_max":322,"o":"m 263 -53 q 304 -86 290 -68 q 318 -136 318 -104 q 275 -231 318 -199 q 157 -262 232 -262 q 90 -256 117 -262 q 44 -242 63 -250 l 76 -165 q 106 -176 88 -171 q 150 -181 124 -181 q 189 -173 174 -181 q 204 -146 204 -165 q 193 -121 204 -129 q 156 -100 182 -112 l 147 -96 q 168 -63 156 -82 q 193 -26 181 -44 q 217 6 206 -8 q 233 28 228 21 l 322 28 q 292 -12 311 13 q 263 -53 274 -36 z "},"¹":{"ha":499,"x_min":276,"x_max":565,"o":"m 276 863 q 397 910 340 882 q 496 974 453 939 l 565 974 l 436 438 l 338 438 l 435 840 q 358 806 399 821 q 289 783 317 792 l 276 863 z "},"º":{"ha":619,"x_min":226,"x_max":715,"o":"m 536 985 q 667 938 619 985 q 715 807 715 892 q 699 690 715 751 q 645 576 682 628 q 549 490 608 524 q 406 456 490 456 q 274 502 322 456 q 226 633 226 549 q 243 751 226 689 q 297 865 260 813 q 392 951 333 917 q 536 985 451 985 m 424 542 q 503 566 468 542 q 562 628 538 590 q 599 711 586 665 q 611 799 611 757 q 589 871 611 843 q 518 899 567 899 q 439 874 474 899 q 380 813 404 850 q 343 729 356 775 q 331 642 331 683 q 353 569 331 597 q 424 542 375 542 z "},"»":{"ha":693,"x_min":97,"x_max":749,"o":"m 210 661 l 296 701 l 460 386 l 178 88 l 97 136 l 315 400 l 210 661 m 499 661 l 585 701 l 749 386 l 467 88 l 386 136 l 604 400 l 499 661 z "},"¼":{"ha":1214,"x_min":272,"x_max":1239,"o":"m 276 863 q 397 910 340 882 q 496 974 453 939 l 565 974 l 436 438 l 338 438 l 435 840 q 358 806 399 821 q 289 783 317 792 l 276 863 m 404 0 l 272 0 l 1035 963 l 1167 963 l 404 0 m 1229 210 l 1210 132 l 1140 132 l 1110 3 l 1015 3 l 1046 132 l 789 132 l 804 196 q 865 278 826 233 q 950 371 903 324 q 1049 462 997 418 q 1149 539 1100 506 l 1239 539 l 1160 210 l 1229 210 m 1065 210 l 1118 429 q 1062 381 1092 407 q 1003 325 1032 354 q 947 267 974 296 q 901 210 921 238 l 1065 210 z "},"½":{"ha":1214,"x_min":243,"x_max":1214,"o":"m 276 863 q 397 910 340 882 q 496 974 453 939 l 565 974 l 436 438 l 338 438 l 435 840 q 358 806 399 821 q 289 783 317 792 l 276 863 m 375 0 l 243 0 l 1006 963 l 1138 963 l 375 0 m 1168 90 l 1147 3 l 782 3 q 804 90 788 53 q 846 156 821 126 q 903 208 871 185 q 971 254 935 232 q 1034 294 1007 276 q 1079 329 1061 313 q 1106 365 1097 346 q 1115 407 1115 383 q 1095 450 1115 436 q 1047 464 1075 464 q 955 444 989 464 q 903 408 921 424 l 869 476 q 946 526 897 503 q 1058 550 994 550 q 1176 513 1138 550 q 1214 414 1214 476 q 1195 340 1214 374 q 1147 279 1176 307 q 1083 228 1118 251 q 1017 186 1049 206 q 953 144 988 167 q 906 90 918 122 l 1168 90 z "},"¾":{"ha":1214,"x_min":157,"x_max":1239,"o":"m 322 511 q 378 515 351 511 q 426 531 406 519 q 460 563 447 543 q 474 611 474 582 q 438 667 474 650 q 342 683 401 683 l 313 683 l 332 761 l 367 761 q 410 765 386 761 q 456 779 435 769 q 491 804 476 789 q 506 843 506 819 q 487 888 506 875 q 428 900 468 900 q 355 889 390 900 q 297 867 319 878 l 278 939 q 310 955 290 947 q 355 969 331 963 q 404 981 379 976 q 451 985 429 985 q 567 951 533 985 q 601 871 601 918 q 573 782 601 815 q 494 725 544 749 q 549 685 528 711 q 571 614 571 658 q 501 474 571 522 q 319 426 432 426 q 224 438 264 426 q 157 464 185 449 l 194 542 q 252 521 218 531 q 322 511 286 511 m 419 0 l 288 0 l 1050 963 l 1182 963 l 419 0 m 1229 210 l 1210 132 l 1140 132 l 1110 3 l 1015 3 l 1046 132 l 789 132 l 804 196 q 865 278 826 233 q 950 371 903 324 q 1049 462 997 418 q 1149 539 1100 506 l 1239 539 l 1160 210 l 1229 210 m 1065 210 l 1118 429 q 1062 381 1092 407 q 1003 325 1032 354 q 947 267 974 296 q 901 210 921 238 l 1065 210 z "},"¿":{"ha":533,"x_min":54,"x_max":549,"o":"m 288 -261 q 178 -246 222 -261 q 106 -205 133 -231 q 66 -144 78 -179 q 54 -72 54 -110 q 67 10 54 -26 q 104 78 81 47 q 160 138 128 110 q 229 196 192 167 q 317 275 275 232 q 374 379 358 318 q 377 394 376 388 q 378 404 378 401 l 490 404 q 488 374 489 388 q 483 347 486 361 q 419 226 467 276 q 318 135 371 175 q 269 95 293 115 q 226 52 246 75 q 195 3 207 29 q 183 -56 183 -24 q 188 -89 183 -71 q 205 -122 192 -107 q 242 -146 218 -136 q 304 -156 265 -156 q 415 -140 371 -156 q 485 -112 460 -125 l 499 -212 q 408 -247 465 -232 q 288 -261 350 -261 m 449 536 q 388 557 410 536 q 365 618 365 578 q 395 695 365 668 q 464 722 425 722 q 526 701 503 722 q 549 638 549 679 q 540 595 549 614 q 517 563 531 576 q 485 543 503 550 q 449 536 467 536 z "},"À":{"ha":883,"x_min":14,"x_max":878,"o":"m 297 247 l 161 0 l 14 0 q 317 517 169 281 q 610 963 465 753 l 742 963 q 780 752 763 858 q 814 529 797 646 q 846 282 831 413 q 878 0 861 151 l 742 0 q 729 126 735 63 q 717 247 724 189 l 297 247 m 704 356 q 678 579 693 468 q 644 808 664 690 q 524 626 596 738 q 360 356 451 514 l 704 356 m 636 1299 l 813 1076 l 744 1017 l 542 1219 l 636 1299 z "},"Á":{"ha":883,"x_min":14,"x_max":878,"o":"m 297 247 l 161 0 l 14 0 q 317 517 169 281 q 610 963 465 753 l 742 963 q 780 752 763 858 q 814 529 797 646 q 846 282 831 413 q 878 0 861 151 l 742 0 q 729 126 735 63 q 717 247 724 189 l 297 247 m 704 356 q 678 579 693 468 q 644 808 664 690 q 524 626 596 738 q 360 356 451 514 l 704 356 m 875 1200 l 640 1022 l 585 1090 l 804 1300 l 875 1200 z "},"Â":{"ha":883,"x_min":14,"x_max":886,"o":"m 297 247 l 161 0 l 14 0 q 317 517 169 281 q 610 963 465 753 l 742 963 q 780 752 763 858 q 814 529 797 646 q 846 282 831 413 q 878 0 861 151 l 742 0 q 729 126 735 63 q 717 247 724 189 l 297 247 m 704 356 q 678 579 693 468 q 644 808 664 690 q 524 626 596 738 q 360 356 451 514 l 704 356 m 715 1143 l 560 1029 l 514 1092 l 739 1285 l 886 1079 l 825 1022 l 715 1143 z "},"Ã":{"ha":883,"x_min":14,"x_max":956,"o":"m 297 247 l 161 0 l 14 0 q 317 517 169 281 q 610 963 465 753 l 742 963 q 780 752 763 858 q 814 529 797 646 q 846 282 831 413 q 878 0 861 151 l 742 0 q 729 126 735 63 q 717 247 724 189 l 297 247 m 704 356 q 678 579 693 468 q 644 808 664 690 q 524 626 596 738 q 360 356 451 514 l 704 356 m 736 1199 q 774 1181 757 1188 q 807 1174 790 1174 q 856 1195 836 1174 q 890 1240 875 1217 l 956 1200 q 890 1110 928 1142 q 789 1079 851 1079 q 740 1089 761 1079 q 699 1110 718 1099 q 661 1128 678 1121 q 628 1135 644 1135 q 579 1113 599 1135 q 544 1068 560 1092 l 479 1108 q 545 1198 507 1167 q 646 1229 583 1229 q 695 1219 674 1229 q 736 1199 717 1210 z "},"Ä":{"ha":883,"x_min":14,"x_max":931,"o":"m 297 247 l 161 0 l 14 0 q 317 517 169 281 q 610 963 465 753 l 742 963 q 780 752 763 858 q 814 529 797 646 q 846 282 831 413 q 878 0 861 151 l 742 0 q 729 126 735 63 q 717 247 724 189 l 297 247 m 704 356 q 678 579 693 468 q 644 808 664 690 q 524 626 596 738 q 360 356 451 514 l 704 356 m 578 1072 q 526 1092 547 1072 q 506 1143 506 1111 q 533 1210 506 1185 q 593 1236 561 1236 q 645 1216 624 1236 q 667 1163 667 1196 q 638 1097 667 1122 q 578 1072 610 1072 m 842 1072 q 790 1092 811 1072 q 769 1143 769 1111 q 797 1210 769 1185 q 857 1236 825 1236 q 909 1216 888 1236 q 931 1163 931 1196 q 902 1097 931 1122 q 842 1072 874 1072 z "},"Å":{"ha":883,"x_min":14,"x_max":878,"o":"m 742 0 q 729 126 735 63 q 717 247 724 189 l 297 247 l 161 0 l 14 0 q 301 492 161 265 q 579 919 442 718 q 548 964 560 938 q 536 1024 536 990 q 548 1083 536 1057 q 579 1127 560 1108 q 624 1156 599 1146 q 679 1165 650 1165 q 734 1156 708 1165 q 779 1127 760 1146 q 810 1083 799 1108 q 822 1024 822 1057 q 803 949 822 981 q 754 900 785 918 q 788 703 772 803 q 817 494 803 604 q 847 263 832 385 q 878 0 861 142 l 742 0 m 753 1024 q 731 1080 753 1060 q 679 1100 710 1100 q 627 1080 649 1100 q 606 1024 606 1060 q 627 967 606 988 q 679 947 649 947 q 731 967 710 947 q 753 1024 753 988 m 644 808 q 524 626 596 738 q 360 356 451 514 l 704 356 q 678 579 693 468 q 644 808 664 690 z "},"Æ":{"ha":1289,"x_min":4,"x_max":1426,"o":"m 708 247 l 340 247 q 248 124 293 185 q 158 0 203 63 l 4 0 q 217 283 114 150 q 420 533 321 415 q 616 758 519 651 q 808 963 713 864 l 1426 963 l 1400 850 l 986 850 l 917 560 l 1282 560 l 1256 450 l 892 450 l 810 113 l 1256 113 l 1229 0 l 650 0 l 708 247 m 854 851 q 638 613 746 738 q 425 356 529 489 l 735 356 l 854 851 z "},"Ç":{"ha":833,"x_min":172,"x_max":994,"o":"m 531 -21 q 519 -36 524 -28 q 508 -53 514 -44 q 550 -86 536 -68 q 564 -136 564 -104 q 521 -231 564 -199 q 403 -262 478 -262 q 335 -256 363 -262 q 290 -242 308 -250 l 322 -165 q 351 -176 333 -171 q 396 -181 369 -181 q 435 -173 419 -181 q 450 -146 450 -165 q 439 -121 450 -129 q 401 -100 428 -112 l 393 -96 q 418 -56 403 -79 q 449 -12 433 -32 q 241 106 310 11 q 172 353 172 201 q 212 592 172 478 q 324 793 251 706 q 500 933 397 881 q 729 985 603 985 q 902 963 838 985 q 994 921 967 940 l 939 810 q 852 849 907 831 q 722 868 797 868 q 550 823 626 868 q 421 706 474 778 q 340 545 368 635 q 313 368 313 456 q 547 97 313 97 q 637 104 597 97 q 707 120 676 111 q 761 140 738 129 q 803 160 785 151 l 819 43 q 776 22 803 33 q 713 1 749 11 q 632 -15 676 -8 q 538 -21 588 -21 l 531 -21 z "},"È":{"ha":774,"x_min":113,"x_max":911,"o":"m 113 0 l 343 963 l 911 963 l 885 850 l 450 850 l 381 560 l 767 560 l 740 450 l 356 450 l 274 113 l 740 113 l 714 0 l 113 0 m 592 1299 l 768 1076 l 700 1017 l 497 1219 l 592 1299 z "},"É":{"ha":774,"x_min":113,"x_max":911,"o":"m 113 0 l 343 963 l 911 963 l 885 850 l 450 850 l 381 560 l 767 560 l 740 450 l 356 450 l 274 113 l 740 113 l 714 0 l 113 0 m 831 1200 l 596 1022 l 540 1090 l 760 1300 l 831 1200 z "},"Ê":{"ha":774,"x_min":113,"x_max":911,"o":"m 113 0 l 343 963 l 911 963 l 885 850 l 450 850 l 381 560 l 767 560 l 740 450 l 356 450 l 274 113 l 740 113 l 714 0 l 113 0 m 672 1143 l 517 1029 l 471 1092 l 696 1285 l 843 1079 l 782 1022 l 672 1143 z "},"Ë":{"ha":774,"x_min":113,"x_max":911,"o":"m 113 0 l 343 963 l 911 963 l 885 850 l 450 850 l 381 560 l 767 560 l 740 450 l 356 450 l 274 113 l 740 113 l 714 0 l 113 0 m 533 1072 q 482 1092 503 1072 q 461 1143 461 1111 q 489 1210 461 1185 q 549 1236 517 1236 q 601 1216 579 1236 q 622 1163 622 1196 q 594 1097 622 1122 q 533 1072 565 1072 m 797 1072 q 746 1092 767 1072 q 725 1143 725 1111 q 753 1210 725 1185 q 813 1236 781 1236 q 865 1216 843 1236 q 886 1163 886 1196 q 858 1097 886 1122 q 797 1072 829 1072 z "},"Ì":{"ha":365,"x_min":113,"x_max":554,"o":"m 343 963 l 478 963 l 247 0 l 113 0 l 343 963 m 378 1299 l 554 1076 l 486 1017 l 283 1219 l 378 1299 z "},"Í":{"ha":365,"x_min":113,"x_max":617,"o":"m 343 963 l 478 963 l 247 0 l 113 0 l 343 963 m 617 1200 l 382 1022 l 326 1090 l 546 1300 l 617 1200 z "},"Î":{"ha":365,"x_min":113,"x_max":628,"o":"m 343 963 l 478 963 l 247 0 l 113 0 l 343 963 m 457 1143 l 301 1029 l 256 1092 l 481 1285 l 628 1079 l 567 1022 l 457 1143 z "},"Ï":{"ha":365,"x_min":113,"x_max":672,"o":"m 343 963 l 478 963 l 247 0 l 113 0 l 343 963 m 319 1072 q 268 1092 289 1072 q 247 1143 247 1111 q 275 1210 247 1185 q 335 1236 303 1236 q 387 1216 365 1236 q 408 1163 408 1196 q 380 1097 408 1122 q 319 1072 351 1072 m 583 1072 q 532 1092 553 1072 q 511 1143 511 1111 q 539 1210 511 1185 q 599 1236 567 1236 q 651 1216 629 1236 q 672 1163 672 1196 q 644 1097 672 1122 q 583 1072 615 1072 z "},"Ð":{"ha":986,"x_min":135,"x_max":1039,"o":"m 614 972 q 933 872 828 972 q 1039 600 1039 771 q 1001 370 1039 481 q 885 175 964 260 q 683 40 806 90 q 389 -10 560 -10 q 263 -4 331 -10 q 143 15 194 1 l 247 450 l 135 450 l 160 554 l 272 554 l 367 950 q 490 968 425 964 q 614 972 556 972 m 603 858 q 478 853 499 858 l 406 554 l 586 554 l 561 450 l 381 450 l 300 111 q 338 106 311 108 q 424 104 364 104 q 622 141 533 104 q 771 244 710 178 q 865 401 832 310 q 899 600 899 492 q 828 790 899 722 q 603 858 757 858 z "},"Ñ":{"ha":969,"x_min":113,"x_max":1081,"o":"m 733 0 q 674 183 708 81 q 598 392 639 286 q 514 597 557 497 q 429 769 471 696 l 244 0 l 113 0 l 343 963 l 458 963 q 549 792 503 888 q 638 597 596 697 q 717 401 681 497 q 776 229 753 306 l 949 963 l 1081 963 l 851 0 l 733 0 m 778 1199 q 815 1181 799 1188 q 849 1174 832 1174 q 897 1195 878 1174 q 932 1240 917 1217 l 997 1200 q 931 1110 969 1142 q 831 1079 893 1079 q 781 1089 803 1079 q 740 1110 760 1099 q 703 1128 719 1121 q 669 1135 686 1135 q 621 1113 640 1135 q 586 1068 601 1092 l 521 1108 q 587 1198 549 1167 q 688 1229 625 1229 q 737 1219 715 1229 q 778 1199 758 1210 z "},"Ò":{"ha":1026,"x_min":172,"x_max":1079,"o":"m 729 985 q 870 962 806 985 q 981 893 935 939 q 1053 778 1028 847 q 1079 618 1079 710 q 1044 389 1079 503 q 939 184 1008 275 q 765 36 869 93 q 522 -21 661 -21 q 381 2 444 -21 q 270 71 317 25 q 198 185 224 117 q 172 346 172 254 q 207 574 172 460 q 312 780 242 689 q 486 928 382 871 q 729 985 590 985 m 536 96 q 704 141 629 96 q 831 258 779 186 q 911 421 883 331 q 939 601 939 511 q 885 797 939 725 q 715 868 832 868 q 547 823 621 868 q 420 706 472 778 q 340 543 368 633 q 313 363 313 453 q 366 167 313 239 q 536 96 419 96 m 706 1299 l 882 1076 l 814 1017 l 611 1219 l 706 1299 z "},"Ó":{"ha":1026,"x_min":172,"x_max":1079,"o":"m 729 985 q 870 962 806 985 q 981 893 935 939 q 1053 778 1028 847 q 1079 618 1079 710 q 1044 389 1079 503 q 939 184 1008 275 q 765 36 869 93 q 522 -21 661 -21 q 381 2 444 -21 q 270 71 317 25 q 198 185 224 117 q 172 346 172 254 q 207 574 172 460 q 312 780 242 689 q 486 928 382 871 q 729 985 590 985 m 536 96 q 704 141 629 96 q 831 258 779 186 q 911 421 883 331 q 939 601 939 511 q 885 797 939 725 q 715 868 832 868 q 547 823 621 868 q 420 706 472 778 q 340 543 368 633 q 313 363 313 453 q 366 167 313 239 q 536 96 419 96 m 944 1200 l 710 1022 l 654 1090 l 874 1300 l 944 1200 z "},"Ô":{"ha":1026,"x_min":172,"x_max":1079,"o":"m 729 985 q 870 962 806 985 q 981 893 935 939 q 1053 778 1028 847 q 1079 618 1079 710 q 1044 389 1079 503 q 939 184 1008 275 q 765 36 869 93 q 522 -21 661 -21 q 381 2 444 -21 q 270 71 317 25 q 198 185 224 117 q 172 346 172 254 q 207 574 172 460 q 312 780 242 689 q 486 928 382 871 q 729 985 590 985 m 536 96 q 704 141 629 96 q 831 258 779 186 q 911 421 883 331 q 939 601 939 511 q 885 797 939 725 q 715 868 832 868 q 547 823 621 868 q 420 706 472 778 q 340 543 368 633 q 313 363 313 453 q 366 167 313 239 q 536 96 419 96 m 785 1143 l 629 1029 l 583 1092 l 808 1285 l 956 1079 l 894 1022 l 785 1143 z "},"Õ":{"ha":1026,"x_min":172,"x_max":1079,"o":"m 729 985 q 870 962 806 985 q 981 893 935 939 q 1053 778 1028 847 q 1079 618 1079 710 q 1044 389 1079 503 q 939 184 1008 275 q 765 36 869 93 q 522 -21 661 -21 q 381 2 444 -21 q 270 71 317 25 q 198 185 224 117 q 172 346 172 254 q 207 574 172 460 q 312 780 242 689 q 486 928 382 871 q 729 985 590 985 m 536 96 q 704 141 629 96 q 831 258 779 186 q 911 421 883 331 q 939 601 939 511 q 885 797 939 725 q 715 868 832 868 q 547 823 621 868 q 420 706 472 778 q 340 543 368 633 q 313 363 313 453 q 366 167 313 239 q 536 96 419 96 m 806 1199 q 843 1181 826 1188 q 876 1174 860 1174 q 925 1195 906 1174 q 960 1240 944 1217 l 1025 1200 q 959 1110 997 1142 q 858 1079 921 1079 q 809 1089 831 1079 q 768 1110 788 1099 q 731 1128 747 1121 q 697 1135 714 1135 q 649 1113 668 1135 q 614 1068 629 1092 l 549 1108 q 615 1198 576 1167 q 715 1229 653 1229 q 765 1219 743 1229 q 806 1199 786 1210 z "},"Ö":{"ha":1026,"x_min":172,"x_max":1079,"o":"m 729 985 q 870 962 806 985 q 981 893 935 939 q 1053 778 1028 847 q 1079 618 1079 710 q 1044 389 1079 503 q 939 184 1008 275 q 765 36 869 93 q 522 -21 661 -21 q 381 2 444 -21 q 270 71 317 25 q 198 185 224 117 q 172 346 172 254 q 207 574 172 460 q 312 780 242 689 q 486 928 382 871 q 729 985 590 985 m 536 96 q 704 141 629 96 q 831 258 779 186 q 911 421 883 331 q 939 601 939 511 q 885 797 939 725 q 715 868 832 868 q 547 823 621 868 q 420 706 472 778 q 340 543 368 633 q 313 363 313 453 q 366 167 313 239 q 536 96 419 96 m 647 1072 q 596 1092 617 1072 q 575 1143 575 1111 q 603 1210 575 1185 q 663 1236 631 1236 q 715 1216 693 1236 q 736 1163 736 1196 q 708 1097 736 1122 q 647 1072 679 1072 m 911 1072 q 860 1092 881 1072 q 839 1143 839 1111 q 867 1210 839 1185 q 926 1236 894 1236 q 978 1216 957 1236 q 1000 1163 1000 1196 q 972 1097 1000 1122 q 911 1072 943 1072 z "},"×":{"ha":783,"x_min":161,"x_max":817,"o":"m 476 336 l 226 132 l 161 215 l 414 419 l 263 619 l 350 690 l 501 490 l 751 694 l 817 611 l 564 407 l 715 207 l 628 136 l 476 336 z "},"Ø":{"ha":1026,"x_min":144,"x_max":1106,"o":"m 729 985 q 946 921 857 985 l 1028 1014 l 1106 954 l 1015 851 q 1063 750 1046 807 q 1079 618 1079 693 q 1044 389 1079 503 q 939 184 1008 275 q 765 36 869 93 q 522 -21 661 -21 q 304 42 392 -21 l 224 -50 l 144 10 l 235 113 q 172 346 172 201 q 207 574 172 460 q 312 780 242 689 q 486 928 382 871 q 729 985 590 985 m 536 96 q 704 141 629 96 q 831 258 779 186 q 911 421 883 331 q 939 601 939 511 q 935 676 939 642 q 919 742 931 711 l 390 140 q 453 106 417 117 q 536 96 490 96 m 313 363 q 317 286 313 322 q 332 222 321 250 l 860 824 q 715 868 807 868 q 547 823 621 868 q 420 706 472 778 q 340 543 368 633 q 313 363 313 453 z "},"Ù":{"ha":925,"x_min":183,"x_max":1043,"o":"m 464 -21 q 339 1 392 -21 q 251 59 286 22 q 200 147 217 96 q 183 256 183 197 q 189 324 183 286 q 201 393 194 361 l 338 963 l 472 963 l 333 385 q 322 326 326 358 q 318 267 318 294 q 326 200 318 231 q 355 147 335 169 q 407 110 375 124 q 485 97 439 97 q 668 163 603 97 q 767 374 733 229 l 908 963 l 1043 963 l 899 358 q 853 210 879 279 q 781 90 828 140 q 658 9 733 39 q 464 -21 582 -21 m 649 1299 l 825 1076 l 757 1017 l 554 1219 l 649 1299 z "},"Ú":{"ha":925,"x_min":183,"x_max":1043,"o":"m 464 -21 q 339 1 392 -21 q 251 59 286 22 q 200 147 217 96 q 183 256 183 197 q 189 324 183 286 q 201 393 194 361 l 338 963 l 472 963 l 333 385 q 322 326 326 358 q 318 267 318 294 q 326 200 318 231 q 355 147 335 169 q 407 110 375 124 q 485 97 439 97 q 668 163 603 97 q 767 374 733 229 l 908 963 l 1043 963 l 899 358 q 853 210 879 279 q 781 90 828 140 q 658 9 733 39 q 464 -21 582 -21 m 888 1200 l 653 1022 l 597 1090 l 817 1300 l 888 1200 z "},"Û":{"ha":925,"x_min":183,"x_max":1043,"o":"m 464 -21 q 339 1 392 -21 q 251 59 286 22 q 200 147 217 96 q 183 256 183 197 q 189 324 183 286 q 201 393 194 361 l 338 963 l 472 963 l 333 385 q 322 326 326 358 q 318 267 318 294 q 326 200 318 231 q 355 147 335 169 q 407 110 375 124 q 485 97 439 97 q 668 163 603 97 q 767 374 733 229 l 908 963 l 1043 963 l 899 358 q 853 210 879 279 q 781 90 828 140 q 658 9 733 39 q 464 -21 582 -21 m 728 1143 l 572 1029 l 526 1092 l 751 1285 l 899 1079 l 838 1022 l 728 1143 z "},"Ü":{"ha":925,"x_min":183,"x_max":1043,"o":"m 464 -21 q 339 1 392 -21 q 251 59 286 22 q 200 147 217 96 q 183 256 183 197 q 189 324 183 286 q 201 393 194 361 l 338 963 l 472 963 l 333 385 q 322 326 326 358 q 318 267 318 294 q 326 200 318 231 q 355 147 335 169 q 407 110 375 124 q 485 97 439 97 q 668 163 603 97 q 767 374 733 229 l 908 963 l 1043 963 l 899 358 q 853 210 879 279 q 781 90 828 140 q 658 9 733 39 q 464 -21 582 -21 m 590 1072 q 539 1092 560 1072 q 518 1143 518 1111 q 546 1210 518 1185 q 606 1236 574 1236 q 658 1216 636 1236 q 679 1163 679 1196 q 651 1097 679 1122 q 590 1072 622 1072 m 854 1072 q 803 1092 824 1072 q 782 1143 782 1111 q 810 1210 782 1185 q 869 1236 838 1236 q 922 1216 900 1236 q 943 1163 943 1196 q 915 1097 943 1122 q 854 1072 886 1072 z "},"Ý":{"ha":794,"x_min":228,"x_max":1011,"o":"m 322 0 l 414 386 q 313 678 360 532 q 228 963 267 825 l 374 963 q 433 733 400 850 q 506 508 465 617 q 691 733 597 615 q 857 963 785 851 l 1011 963 q 793 678 907 821 q 549 386 679 536 l 457 0 l 322 0 m 819 1200 l 585 1022 l 529 1090 l 749 1300 l 819 1200 z "},"Þ":{"ha":825,"x_min":111,"x_max":886,"o":"m 478 963 l 440 804 q 495 808 467 807 q 550 808 524 808 q 802 746 718 808 q 886 561 886 683 q 851 398 886 467 q 750 285 815 329 q 593 219 685 240 q 389 197 501 197 l 293 197 l 246 0 l 111 0 l 343 963 l 478 963 m 531 694 q 450 692 479 694 q 411 689 421 690 l 321 310 l 407 310 q 526 320 465 310 q 636 357 588 331 q 716 430 685 383 q 747 550 747 476 q 689 662 747 629 q 531 694 631 694 z "},"ß":{"ha":833,"x_min":-26,"x_max":876,"o":"m 269 156 q 240 29 253 85 q 210 -75 228 -26 q 165 -169 193 -124 q 88 -262 136 -214 l -26 -246 q 39 -154 15 -192 q 78 -78 63 -117 q 106 12 94 -39 q 138 143 118 63 l 288 769 q 417 1006 326 933 q 654 1078 507 1078 q 751 1063 710 1078 q 821 1022 793 1047 q 863 962 849 996 q 876 890 876 928 q 867 820 876 850 q 840 764 858 790 q 794 712 821 738 q 731 653 767 686 q 690 617 707 632 q 661 588 672 601 q 644 558 650 574 q 639 521 639 542 q 662 472 639 492 q 725 425 685 453 q 774 389 751 407 q 813 349 796 371 q 839 299 829 326 q 849 233 849 271 q 826 124 849 171 q 763 45 803 76 q 668 -1 724 14 q 549 -17 613 -17 q 416 1 469 -17 q 349 31 363 19 l 397 135 q 453 108 413 125 q 558 92 494 92 q 674 125 629 92 q 719 225 719 158 q 697 295 719 267 q 615 360 674 324 q 558 401 579 382 q 526 438 538 419 q 513 474 515 456 q 510 513 510 492 q 548 618 510 572 q 639 708 586 664 q 684 747 664 729 q 719 784 704 765 q 741 825 733 803 q 749 875 749 847 q 721 942 749 917 q 638 967 693 967 q 417 767 464 967 l 269 156 z "},"à":{"ha":756,"x_min":136,"x_max":813,"o":"m 600 -8 q 586 26 593 7 q 575 65 579 44 q 493 10 544 38 q 367 -18 442 -18 q 262 1 306 -18 q 190 56 218 21 q 149 138 163 90 q 136 242 136 185 q 167 424 136 335 q 261 582 199 513 q 418 694 324 651 q 639 738 513 738 q 726 729 676 738 q 813 701 776 721 l 706 265 q 694 204 699 233 q 689 143 689 175 q 694 78 689 111 q 714 8 700 46 l 600 -8 m 393 92 q 493 117 451 92 q 565 175 535 142 q 570 224 567 199 q 579 276 574 250 l 663 621 q 640 625 656 624 q 611 626 624 626 q 468 596 532 626 q 359 515 404 565 q 290 397 314 464 q 265 256 265 329 q 271 197 265 226 q 291 144 276 167 q 330 106 306 121 q 393 92 354 92 m 532 1082 l 708 860 l 640 800 l 438 1003 l 532 1082 z "},"á":{"ha":756,"x_min":136,"x_max":813,"o":"m 600 -8 q 586 26 593 7 q 575 65 579 44 q 493 10 544 38 q 367 -18 442 -18 q 262 1 306 -18 q 190 56 218 21 q 149 138 163 90 q 136 242 136 185 q 167 424 136 335 q 261 582 199 513 q 418 694 324 651 q 639 738 513 738 q 726 729 676 738 q 813 701 776 721 l 706 265 q 694 204 699 233 q 689 143 689 175 q 694 78 689 111 q 714 8 700 46 l 600 -8 m 393 92 q 493 117 451 92 q 565 175 535 142 q 570 224 567 199 q 579 276 574 250 l 663 621 q 640 625 656 624 q 611 626 624 626 q 468 596 532 626 q 359 515 404 565 q 290 397 314 464 q 265 256 265 329 q 271 197 265 226 q 291 144 276 167 q 330 106 306 121 q 393 92 354 92 m 769 983 l 535 806 l 479 874 l 699 1083 l 769 983 z "},"â":{"ha":756,"x_min":136,"x_max":813,"o":"m 600 -8 q 586 26 593 7 q 575 65 579 44 q 493 10 544 38 q 367 -18 442 -18 q 262 1 306 -18 q 190 56 218 21 q 149 138 163 90 q 136 242 136 185 q 167 424 136 335 q 261 582 199 513 q 418 694 324 651 q 639 738 513 738 q 726 729 676 738 q 813 701 776 721 l 706 265 q 694 204 699 233 q 689 143 689 175 q 694 78 689 111 q 714 8 700 46 l 600 -8 m 393 92 q 493 117 451 92 q 565 175 535 142 q 570 224 567 199 q 579 276 574 250 l 663 621 q 640 625 656 624 q 611 626 624 626 q 468 596 532 626 q 359 515 404 565 q 290 397 314 464 q 265 256 265 329 q 271 197 265 226 q 291 144 276 167 q 330 106 306 121 q 393 92 354 92 m 611 926 l 456 813 l 410 875 l 635 1068 l 782 863 l 721 806 l 611 926 z "},"ã":{"ha":756,"x_min":136,"x_max":851,"o":"m 600 -8 q 586 26 593 7 q 575 65 579 44 q 493 10 544 38 q 367 -18 442 -18 q 262 1 306 -18 q 190 56 218 21 q 149 138 163 90 q 136 242 136 185 q 167 424 136 335 q 261 582 199 513 q 418 694 324 651 q 639 738 513 738 q 726 729 676 738 q 813 701 776 721 l 706 265 q 694 204 699 233 q 689 143 689 175 q 694 78 689 111 q 714 8 700 46 l 600 -8 m 393 92 q 493 117 451 92 q 565 175 535 142 q 570 224 567 199 q 579 276 574 250 l 663 621 q 640 625 656 624 q 611 626 624 626 q 468 596 532 626 q 359 515 404 565 q 290 397 314 464 q 265 256 265 329 q 271 197 265 226 q 291 144 276 167 q 330 106 306 121 q 393 92 354 92 m 632 982 q 669 964 653 971 q 703 957 686 957 q 751 978 732 957 q 786 1024 771 1000 l 851 983 q 785 894 824 925 q 685 863 747 863 q 635 872 657 863 q 594 893 614 882 q 557 911 574 904 q 524 918 540 918 q 475 897 494 918 q 440 851 456 875 l 375 892 q 441 981 403 950 q 542 1013 479 1013 q 591 1003 569 1013 q 632 982 613 993 z "},"ä":{"ha":756,"x_min":136,"x_max":825,"o":"m 600 -8 q 586 26 593 7 q 575 65 579 44 q 493 10 544 38 q 367 -18 442 -18 q 262 1 306 -18 q 190 56 218 21 q 149 138 163 90 q 136 242 136 185 q 167 424 136 335 q 261 582 199 513 q 418 694 324 651 q 639 738 513 738 q 726 729 676 738 q 813 701 776 721 l 706 265 q 694 204 699 233 q 689 143 689 175 q 694 78 689 111 q 714 8 700 46 l 600 -8 m 393 92 q 493 117 451 92 q 565 175 535 142 q 570 224 567 199 q 579 276 574 250 l 663 621 q 640 625 656 624 q 611 626 624 626 q 468 596 532 626 q 359 515 404 565 q 290 397 314 464 q 265 256 265 329 q 271 197 265 226 q 291 144 276 167 q 330 106 306 121 q 393 92 354 92 m 472 856 q 421 875 442 856 q 400 926 400 894 q 428 994 400 968 q 488 1019 456 1019 q 540 999 518 1019 q 561 946 561 979 q 533 881 561 906 q 472 856 504 856 m 736 856 q 685 875 706 856 q 664 926 664 894 q 692 994 664 968 q 751 1019 719 1019 q 803 999 782 1019 q 825 946 825 979 q 797 881 825 906 q 736 856 768 856 z "},"å":{"ha":756,"x_min":136,"x_max":813,"o":"m 600 -8 q 586 26 593 7 q 575 65 579 44 q 493 10 544 38 q 367 -18 442 -18 q 262 1 306 -18 q 190 56 218 21 q 149 138 163 90 q 136 242 136 185 q 167 424 136 335 q 261 582 199 513 q 418 694 324 651 q 639 738 513 738 q 726 729 676 738 q 813 701 776 721 l 706 265 q 694 204 699 233 q 689 143 689 175 q 694 78 689 111 q 714 8 700 46 l 600 -8 m 393 92 q 493 117 451 92 q 565 175 535 142 q 570 224 567 199 q 579 276 574 250 l 663 621 q 640 625 656 624 q 611 626 624 626 q 468 596 532 626 q 359 515 404 565 q 290 397 314 464 q 265 256 265 329 q 271 197 265 226 q 291 144 276 167 q 330 106 306 121 q 393 92 354 92 m 753 940 q 741 881 753 907 q 710 837 729 856 q 665 808 690 818 q 610 799 639 799 q 555 808 581 799 q 510 837 529 818 q 478 881 490 856 q 467 940 467 907 q 478 999 467 974 q 510 1044 490 1025 q 555 1072 529 1063 q 610 1082 581 1082 q 665 1072 639 1082 q 710 1044 690 1063 q 741 999 729 1025 q 753 940 753 974 m 683 940 q 662 997 683 976 q 610 1017 640 1017 q 558 997 579 1017 q 536 940 536 976 q 558 884 536 904 q 610 864 579 864 q 662 884 640 864 q 683 940 683 904 z "},"æ":{"ha":1161,"x_min":136,"x_max":1217,"o":"m 1092 32 q 995 -3 1056 13 q 868 -18 935 -18 q 794 -11 831 -18 q 725 12 757 -4 q 667 53 693 28 q 626 118 642 79 q 503 18 578 54 q 340 -18 428 -18 q 263 -8 300 -18 q 197 24 225 3 q 153 79 169 46 q 136 158 136 113 q 184 310 136 256 q 305 392 232 365 q 464 426 378 418 q 628 438 550 433 q 630 459 629 449 q 631 481 631 469 q 589 590 631 556 q 456 624 547 624 q 400 618 428 624 q 347 606 372 613 q 302 590 322 599 q 272 576 282 582 l 261 686 q 353 719 293 703 q 481 736 414 736 q 553 729 517 736 q 622 707 589 722 q 681 665 654 692 q 726 599 708 638 q 786 659 753 633 q 857 702 819 685 q 933 728 894 719 q 1010 736 972 736 q 1090 726 1051 736 q 1156 695 1128 717 q 1200 640 1183 674 q 1217 560 1217 607 q 1194 449 1217 494 q 1135 374 1172 404 q 1048 326 1097 343 q 944 300 999 310 q 833 287 889 290 q 725 281 776 283 q 723 259 724 269 q 722 239 722 249 q 764 127 722 160 q 897 94 806 94 q 952 99 924 94 q 1006 112 981 104 q 1052 127 1032 119 q 1081 142 1072 135 l 1092 32 m 613 339 q 447 325 514 336 q 340 293 381 314 q 281 243 299 272 q 263 176 263 214 q 292 110 263 132 q 368 89 321 89 q 524 153 460 89 q 613 339 589 218 m 740 379 q 905 392 838 381 q 1013 425 972 404 q 1072 475 1054 446 q 1090 542 1090 504 q 1061 608 1090 586 q 985 629 1032 629 q 828 565 893 629 q 740 379 764 500 z "},"ç":{"ha":626,"x_min":139,"x_max":739,"o":"m 139 258 q 167 440 139 353 q 251 594 196 528 q 388 701 307 661 q 572 740 468 740 q 660 734 618 740 q 739 710 701 728 l 690 601 q 638 621 668 614 q 561 628 608 628 q 439 598 493 628 q 347 519 385 568 q 288 405 308 469 q 268 271 268 340 q 276 203 268 235 q 303 147 283 171 q 355 108 322 122 q 438 94 388 94 q 490 99 463 94 q 542 111 518 104 q 584 126 565 118 q 611 140 603 133 l 622 31 q 540 -1 596 14 q 417 -18 485 -17 q 404 -36 410 -28 q 393 -53 399 -44 q 435 -86 421 -68 q 449 -136 449 -104 q 406 -231 449 -199 q 288 -262 363 -262 q 220 -256 247 -262 q 175 -242 193 -250 l 207 -165 q 236 -176 218 -171 q 281 -181 254 -181 q 319 -173 304 -181 q 335 -146 335 -165 q 324 -121 335 -129 q 286 -100 313 -112 l 278 -96 q 304 -53 288 -78 q 335 -10 321 -29 q 189 83 239 13 q 139 258 139 154 z "},"è":{"ha":719,"x_min":139,"x_max":775,"o":"m 283 379 q 431 390 364 382 q 546 416 497 397 q 622 467 594 435 q 649 550 649 499 q 644 576 649 563 q 627 602 639 590 q 594 622 615 614 q 543 629 574 629 q 452 608 494 629 q 376 553 410 588 q 319 474 343 519 q 283 379 296 429 m 415 -18 q 293 2 344 -18 q 207 58 242 22 q 156 140 172 93 q 139 240 139 188 q 168 428 139 338 q 251 588 197 518 q 383 698 306 657 q 560 739 461 739 q 658 724 617 739 q 724 685 699 710 q 763 627 750 660 q 775 560 775 594 q 751 449 775 494 q 689 374 728 404 q 598 326 650 343 q 490 300 546 310 q 376 287 433 290 q 267 281 318 283 q 265 263 265 269 q 265 251 265 256 q 273 191 265 219 q 301 141 281 163 q 359 107 322 119 q 456 94 396 94 q 510 99 482 94 q 565 112 539 104 q 610 127 590 119 q 639 142 631 135 l 650 32 q 560 -1 622 17 q 415 -18 499 -18 m 519 1082 l 696 860 l 628 800 l 425 1003 l 519 1082 z "},"é":{"ha":719,"x_min":139,"x_max":775,"o":"m 283 379 q 431 390 364 382 q 546 416 497 397 q 622 467 594 435 q 649 550 649 499 q 644 576 649 563 q 627 602 639 590 q 594 622 615 614 q 543 629 574 629 q 452 608 494 629 q 376 553 410 588 q 319 474 343 519 q 283 379 296 429 m 415 -18 q 293 2 344 -18 q 207 58 242 22 q 156 140 172 93 q 139 240 139 188 q 168 428 139 338 q 251 588 197 518 q 383 698 306 657 q 560 739 461 739 q 658 724 617 739 q 724 685 699 710 q 763 627 750 660 q 775 560 775 594 q 751 449 775 494 q 689 374 728 404 q 598 326 650 343 q 490 300 546 310 q 376 287 433 290 q 267 281 318 283 q 265 263 265 269 q 265 251 265 256 q 273 191 265 219 q 301 141 281 163 q 359 107 322 119 q 456 94 396 94 q 510 99 482 94 q 565 112 539 104 q 610 127 590 119 q 639 142 631 135 l 650 32 q 560 -1 622 17 q 415 -18 499 -18 m 757 983 l 522 806 l 467 874 l 686 1083 l 757 983 z "},"ê":{"ha":719,"x_min":139,"x_max":775,"o":"m 283 379 q 431 390 364 382 q 546 416 497 397 q 622 467 594 435 q 649 550 649 499 q 644 576 649 563 q 627 602 639 590 q 594 622 615 614 q 543 629 574 629 q 452 608 494 629 q 376 553 410 588 q 319 474 343 519 q 283 379 296 429 m 415 -18 q 293 2 344 -18 q 207 58 242 22 q 156 140 172 93 q 139 240 139 188 q 168 428 139 338 q 251 588 197 518 q 383 698 306 657 q 560 739 461 739 q 658 724 617 739 q 724 685 699 710 q 763 627 750 660 q 775 560 775 594 q 751 449 775 494 q 689 374 728 404 q 598 326 650 343 q 490 300 546 310 q 376 287 433 290 q 267 281 318 283 q 265 263 265 269 q 265 251 265 256 q 273 191 265 219 q 301 141 281 163 q 359 107 322 119 q 456 94 396 94 q 510 99 482 94 q 565 112 539 104 q 610 127 590 119 q 639 142 631 135 l 650 32 q 560 -1 622 17 q 415 -18 499 -18 m 597 926 l 442 813 l 396 875 l 621 1068 l 768 863 l 707 806 l 597 926 z "},"ë":{"ha":719,"x_min":139,"x_max":813,"o":"m 283 379 q 431 390 364 382 q 546 416 497 397 q 622 467 594 435 q 649 550 649 499 q 644 576 649 563 q 627 602 639 590 q 594 622 615 614 q 543 629 574 629 q 452 608 494 629 q 376 553 410 588 q 319 474 343 519 q 283 379 296 429 m 415 -18 q 293 2 344 -18 q 207 58 242 22 q 156 140 172 93 q 139 240 139 188 q 168 428 139 338 q 251 588 197 518 q 383 698 306 657 q 560 739 461 739 q 658 724 617 739 q 724 685 699 710 q 763 627 750 660 q 775 560 775 594 q 751 449 775 494 q 689 374 728 404 q 598 326 650 343 q 490 300 546 310 q 376 287 433 290 q 267 281 318 283 q 265 263 265 269 q 265 251 265 256 q 273 191 265 219 q 301 141 281 163 q 359 107 322 119 q 456 94 396 94 q 510 99 482 94 q 565 112 539 104 q 610 127 590 119 q 639 142 631 135 l 650 32 q 560 -1 622 17 q 415 -18 499 -18 m 460 856 q 408 875 429 856 q 388 926 388 894 q 415 994 388 968 q 475 1019 443 1019 q 527 999 506 1019 q 549 946 549 979 q 520 881 549 906 q 460 856 492 856 m 724 856 q 672 875 693 856 q 651 926 651 894 q 679 994 651 968 q 739 1019 707 1019 q 791 999 769 1019 q 813 946 813 979 q 784 881 813 906 q 724 856 756 856 z "},"ì":{"ha":346,"x_min":106,"x_max":494,"o":"m 235 0 l 106 0 l 279 722 l 408 722 l 235 0 m 318 1082 l 494 860 l 426 800 l 224 1003 l 318 1082 z "},"í":{"ha":346,"x_min":106,"x_max":557,"o":"m 235 0 l 106 0 l 279 722 l 408 722 l 235 0 m 557 983 l 322 806 l 267 874 l 486 1083 l 557 983 z "},"î":{"ha":346,"x_min":106,"x_max":568,"o":"m 235 0 l 106 0 l 279 722 l 408 722 l 235 0 m 397 926 l 242 813 l 196 875 l 421 1068 l 568 863 l 507 806 l 397 926 z "},"ï":{"ha":346,"x_min":106,"x_max":611,"o":"m 235 0 l 106 0 l 279 722 l 408 722 l 235 0 m 258 856 q 207 875 228 856 q 186 926 186 894 q 214 994 186 968 q 274 1019 242 1019 q 326 999 304 1019 q 347 946 347 979 q 319 881 347 906 q 258 856 290 856 m 522 856 q 471 875 492 856 q 450 926 450 894 q 478 994 450 968 q 538 1019 506 1019 q 590 999 568 1019 q 611 946 611 979 q 583 881 611 906 q 522 856 554 856 z "},"ð":{"ha":790,"x_min":139,"x_max":921,"o":"m 818 593 q 813 490 818 551 q 790 360 807 428 q 744 225 774 293 q 667 103 714 157 q 552 16 619 50 q 392 -18 485 -18 q 291 -1 338 -18 q 211 49 244 17 q 158 128 178 81 q 139 233 139 175 q 165 411 139 329 q 240 553 190 493 q 365 647 290 613 q 536 681 439 681 q 625 667 586 681 q 689 639 664 654 q 676 730 686 683 q 647 822 667 776 l 467 765 l 456 853 l 608 901 q 562 962 586 938 q 510 1013 538 986 l 607 1078 q 665 1024 633 1058 q 728 939 697 989 l 910 997 l 921 910 l 768 861 q 804 740 790 807 q 818 593 818 674 m 410 93 q 522 130 474 93 q 605 226 571 167 q 659 360 639 285 q 686 514 679 436 q 608 556 650 544 q 526 568 567 568 q 334 483 400 568 q 268 246 268 397 q 305 132 268 171 q 410 93 342 93 z "},"ñ":{"ha":765,"x_min":106,"x_max":850,"o":"m 235 0 l 106 0 l 272 694 q 410 726 336 714 q 543 738 485 738 q 651 720 606 738 q 724 673 696 703 q 765 601 751 643 q 778 508 778 558 q 772 441 778 476 q 758 369 767 406 l 669 0 l 540 0 l 622 342 q 641 421 632 381 q 650 497 650 461 q 619 590 650 553 q 506 626 589 626 q 438 622 471 626 q 382 611 404 618 l 235 0 m 631 982 q 668 964 651 971 q 701 957 685 957 q 750 978 731 957 q 785 1024 769 1000 l 850 983 q 784 894 822 925 q 683 863 746 863 q 634 872 656 863 q 593 893 613 882 q 556 911 572 904 q 522 918 539 918 q 474 897 493 918 q 439 851 454 875 l 374 892 q 440 981 401 950 q 540 1013 478 1013 q 590 1003 568 1013 q 631 982 611 993 z "},"ò":{"ha":771,"x_min":139,"x_max":799,"o":"m 382 -18 q 203 49 268 -18 q 139 235 139 117 q 162 404 139 315 q 235 568 185 493 q 364 692 285 643 q 556 740 443 740 q 734 673 669 740 q 799 488 799 606 q 776 318 799 407 q 703 154 753 229 q 574 31 653 79 q 382 -18 494 -18 m 404 92 q 516 128 467 92 q 599 220 565 164 q 651 344 633 276 q 669 476 669 413 q 639 589 669 547 q 533 631 608 631 q 422 594 471 631 q 338 502 372 558 q 286 378 304 446 q 268 246 268 310 q 299 133 268 175 q 404 92 329 92 m 526 1082 l 703 860 l 635 800 l 432 1003 l 526 1082 z "},"ó":{"ha":771,"x_min":139,"x_max":799,"o":"m 382 -18 q 203 49 268 -18 q 139 235 139 117 q 162 404 139 315 q 235 568 185 493 q 364 692 285 643 q 556 740 443 740 q 734 673 669 740 q 799 488 799 606 q 776 318 799 407 q 703 154 753 229 q 574 31 653 79 q 382 -18 494 -18 m 404 92 q 516 128 467 92 q 599 220 565 164 q 651 344 633 276 q 669 476 669 413 q 639 589 669 547 q 533 631 608 631 q 422 594 471 631 q 338 502 372 558 q 286 378 304 446 q 268 246 268 310 q 299 133 268 175 q 404 92 329 92 m 765 983 l 531 806 l 475 874 l 694 1083 l 765 983 z "},"ô":{"ha":771,"x_min":139,"x_max":799,"o":"m 382 -18 q 203 49 268 -18 q 139 235 139 117 q 162 404 139 315 q 235 568 185 493 q 364 692 285 643 q 556 740 443 740 q 734 673 669 740 q 799 488 799 606 q 776 318 799 407 q 703 154 753 229 q 574 31 653 79 q 382 -18 494 -18 m 404 92 q 516 128 467 92 q 599 220 565 164 q 651 344 633 276 q 669 476 669 413 q 639 589 669 547 q 533 631 608 631 q 422 594 471 631 q 338 502 372 558 q 286 378 304 446 q 268 246 268 310 q 299 133 268 175 q 404 92 329 92 m 604 926 l 449 813 l 403 875 l 628 1068 l 775 863 l 714 806 l 604 926 z "},"õ":{"ha":771,"x_min":139,"x_max":846,"o":"m 382 -18 q 203 49 268 -18 q 139 235 139 117 q 162 404 139 315 q 235 568 185 493 q 364 692 285 643 q 556 740 443 740 q 734 673 669 740 q 799 488 799 606 q 776 318 799 407 q 703 154 753 229 q 574 31 653 79 q 382 -18 494 -18 m 404 92 q 516 128 467 92 q 599 220 565 164 q 651 344 633 276 q 669 476 669 413 q 639 589 669 547 q 533 631 608 631 q 422 594 471 631 q 338 502 372 558 q 286 378 304 446 q 268 246 268 310 q 299 133 268 175 q 404 92 329 92 m 626 982 q 664 964 647 971 q 697 957 681 957 q 746 978 726 957 q 781 1024 765 1000 l 846 983 q 780 894 818 925 q 679 863 742 863 q 630 872 651 863 q 589 893 608 882 q 551 911 568 904 q 518 918 535 918 q 469 897 489 918 q 435 851 450 875 l 369 892 q 435 981 397 950 q 536 1013 474 1013 q 585 1003 564 1013 q 626 982 607 993 z "},"ö":{"ha":771,"x_min":139,"x_max":819,"o":"m 382 -18 q 203 49 268 -18 q 139 235 139 117 q 162 404 139 315 q 235 568 185 493 q 364 692 285 643 q 556 740 443 740 q 734 673 669 740 q 799 488 799 606 q 776 318 799 407 q 703 154 753 229 q 574 31 653 79 q 382 -18 494 -18 m 404 92 q 516 128 467 92 q 599 220 565 164 q 651 344 633 276 q 669 476 669 413 q 639 589 669 547 q 533 631 608 631 q 422 594 471 631 q 338 502 372 558 q 286 378 304 446 q 268 246 268 310 q 299 133 268 175 q 404 92 329 92 m 467 856 q 415 875 436 856 q 394 926 394 894 q 422 994 394 968 q 482 1019 450 1019 q 534 999 513 1019 q 556 946 556 979 q 527 881 556 906 q 467 856 499 856 m 731 856 q 679 875 700 856 q 658 926 658 894 q 686 994 658 968 q 746 1019 714 1019 q 798 999 776 1019 q 819 946 819 979 q 791 881 819 906 q 731 856 763 856 z "},"÷":{"ha":783,"x_min":161,"x_max":811,"o":"m 511 167 q 503 127 511 146 q 482 93 496 108 q 449 69 468 78 q 407 60 429 60 q 358 78 376 60 q 339 125 339 96 q 347 165 339 146 q 368 199 354 183 q 401 223 382 214 q 443 232 419 232 q 492 214 474 232 q 511 167 511 196 m 639 700 q 631 660 639 679 q 610 626 624 642 q 576 602 596 611 q 535 593 557 593 q 485 611 504 593 q 467 658 467 629 q 474 698 467 679 q 496 732 482 717 q 528 756 510 747 q 571 765 547 765 q 620 747 601 765 q 639 700 639 729 m 811 468 l 785 358 l 161 358 l 188 468 l 811 468 z "},"ø":{"ha":771,"x_min":96,"x_max":842,"o":"m 799 488 q 776 318 799 407 q 703 154 753 229 q 574 31 653 79 q 382 -18 494 -18 q 231 25 290 -18 l 165 -50 l 96 1 l 172 89 q 139 235 139 147 q 162 404 139 315 q 235 568 185 493 q 365 692 286 643 q 557 740 444 740 q 707 697 647 740 l 771 769 l 842 718 l 765 631 q 790 566 781 601 q 799 488 799 531 m 265 244 q 265 221 265 232 q 268 199 265 210 l 625 604 q 533 632 589 632 q 421 595 471 632 q 336 502 371 558 q 283 377 301 446 q 265 244 265 308 m 404 90 q 517 127 467 90 q 601 220 567 164 q 654 345 636 276 q 672 478 672 414 q 672 500 672 489 q 669 522 672 511 l 313 117 q 404 90 343 90 z "},"ù":{"ha":764,"x_min":153,"x_max":825,"o":"m 369 -18 q 267 0 308 -18 q 201 49 226 18 q 164 121 175 79 q 153 210 153 163 q 159 281 153 246 q 174 353 165 317 l 263 722 l 392 722 l 310 381 q 292 306 303 349 q 281 219 281 263 q 285 172 281 194 q 303 131 290 149 q 339 103 317 114 q 394 93 361 93 q 499 119 454 93 q 575 179 544 144 q 579 225 576 201 q 589 276 582 249 l 696 722 l 825 722 l 715 265 q 703 203 708 233 q 699 142 699 174 q 704 78 699 110 q 724 8 710 46 l 610 -8 q 596 26 603 7 q 585 68 589 46 q 549 39 569 54 q 501 11 528 24 q 441 -10 474 -1 q 369 -18 408 -18 m 515 1082 l 692 860 l 624 800 l 421 1003 l 515 1082 z "},"ú":{"ha":764,"x_min":153,"x_max":825,"o":"m 369 -18 q 267 0 308 -18 q 201 49 226 18 q 164 121 175 79 q 153 210 153 163 q 159 281 153 246 q 174 353 165 317 l 263 722 l 392 722 l 310 381 q 292 306 303 349 q 281 219 281 263 q 285 172 281 194 q 303 131 290 149 q 339 103 317 114 q 394 93 361 93 q 499 119 454 93 q 575 179 544 144 q 579 225 576 201 q 589 276 582 249 l 696 722 l 825 722 l 715 265 q 703 203 708 233 q 699 142 699 174 q 704 78 699 110 q 724 8 710 46 l 610 -8 q 596 26 603 7 q 585 68 589 46 q 549 39 569 54 q 501 11 528 24 q 441 -10 474 -1 q 369 -18 408 -18 m 754 983 l 519 806 l 464 874 l 683 1083 l 754 983 z "},"û":{"ha":764,"x_min":153,"x_max":825,"o":"m 369 -18 q 267 0 308 -18 q 201 49 226 18 q 164 121 175 79 q 153 210 153 163 q 159 281 153 246 q 174 353 165 317 l 263 722 l 392 722 l 310 381 q 292 306 303 349 q 281 219 281 263 q 285 172 281 194 q 303 131 290 149 q 339 103 317 114 q 394 93 361 93 q 499 119 454 93 q 575 179 544 144 q 579 225 576 201 q 589 276 582 249 l 696 722 l 825 722 l 715 265 q 703 203 708 233 q 699 142 699 174 q 704 78 699 110 q 724 8 710 46 l 610 -8 q 596 26 603 7 q 585 68 589 46 q 549 39 569 54 q 501 11 528 24 q 441 -10 474 -1 q 369 -18 408 -18 m 593 926 l 438 813 l 392 875 l 617 1068 l 764 863 l 703 806 l 593 926 z "},"ü":{"ha":764,"x_min":153,"x_max":825,"o":"m 369 -18 q 267 0 308 -18 q 201 49 226 18 q 164 121 175 79 q 153 210 153 163 q 159 281 153 246 q 174 353 165 317 l 263 722 l 392 722 l 310 381 q 292 306 303 349 q 281 219 281 263 q 285 172 281 194 q 303 131 290 149 q 339 103 317 114 q 394 93 361 93 q 499 119 454 93 q 575 179 544 144 q 579 225 576 201 q 589 276 582 249 l 696 722 l 825 722 l 715 265 q 703 203 708 233 q 699 142 699 174 q 704 78 699 110 q 724 8 710 46 l 610 -8 q 596 26 603 7 q 585 68 589 46 q 549 39 569 54 q 501 11 528 24 q 441 -10 474 -1 q 369 -18 408 -18 m 456 856 q 404 875 425 856 q 383 926 383 894 q 411 994 383 968 q 471 1019 439 1019 q 523 999 501 1019 q 544 946 544 979 q 516 881 544 906 q 456 856 488 856 m 719 856 q 668 875 689 856 q 647 926 647 894 q 675 994 647 968 q 735 1019 703 1019 q 787 999 765 1019 q 808 946 808 979 q 780 881 808 906 q 719 856 751 856 z "},"ý":{"ha":664,"x_min":-78,"x_max":783,"o":"m 390 117 q 486 290 443 200 q 562 461 529 379 q 617 612 594 543 q 649 722 639 681 l 783 722 q 740 591 768 669 q 673 422 713 513 q 584 235 633 331 q 476 53 535 140 q 388 -70 432 -12 q 292 -170 343 -128 q 181 -237 242 -212 q 43 -261 119 -261 q -29 -251 4 -261 q -78 -231 -62 -242 l -33 -125 q 4 -144 -19 -136 q 57 -151 28 -151 q 194 -112 138 -151 q 300 -10 250 -74 q 216 344 249 158 q 176 722 183 531 l 308 722 q 315 585 310 660 q 331 431 321 511 q 356 271 342 351 q 390 117 371 190 m 686 983 l 451 806 l 396 874 l 615 1083 l 686 983 z "},"þ":{"ha":758,"x_min":44,"x_max":789,"o":"m 526 740 q 644 721 594 740 q 725 667 693 701 q 773 587 757 633 q 789 485 789 540 q 760 299 789 389 q 670 140 731 210 q 517 29 610 71 q 299 -12 425 -12 q 265 -11 283 -12 q 233 -7 247 -10 l 174 -257 l 44 -257 l 360 1056 l 494 1078 l 410 724 q 526 740 478 740 m 494 631 q 431 624 460 631 q 382 613 401 618 l 260 101 q 290 98 274 99 q 321 97 306 97 q 463 128 400 97 q 569 210 525 158 q 636 330 613 263 q 660 471 660 397 q 653 531 660 501 q 627 582 646 560 q 576 617 608 604 q 494 631 544 631 z "},"ÿ":{"ha":664,"x_min":-78,"x_max":783,"o":"m 390 117 q 486 290 443 200 q 562 461 529 379 q 617 612 594 543 q 649 722 639 681 l 783 722 q 740 591 768 669 q 673 422 713 513 q 584 235 633 331 q 476 53 535 140 q 388 -70 432 -12 q 292 -170 343 -128 q 181 -237 242 -212 q 43 -261 119 -261 q -29 -251 4 -261 q -78 -231 -62 -242 l -33 -125 q 4 -144 -19 -136 q 57 -151 28 -151 q 194 -112 138 -151 q 300 -10 250 -74 q 216 344 249 158 q 176 722 183 531 l 308 722 q 315 585 310 660 q 331 431 321 511 q 356 271 342 351 q 390 117 371 190 m 388 856 q 336 875 357 856 q 315 926 315 894 q 343 994 315 968 q 403 1019 371 1019 q 455 999 433 1019 q 476 946 476 979 q 448 881 476 906 q 388 856 419 856 m 651 856 q 600 875 621 856 q 579 926 579 894 q 607 994 579 968 q 667 1019 635 1019 q 719 999 697 1019 q 740 946 740 979 q 712 881 740 906 q 651 856 683 856 z "},"Ā":{"ha":883,"x_min":14,"x_max":924,"o":"m 297 247 l 161 0 l 14 0 q 317 517 169 281 q 610 963 465 753 l 742 963 q 780 752 763 858 q 814 529 797 646 q 846 282 831 413 q 878 0 861 151 l 742 0 q 729 126 735 63 q 717 247 724 189 l 297 247 m 704 356 q 678 579 693 468 q 644 808 664 690 q 524 626 596 738 q 360 356 451 514 l 704 356 m 535 1204 l 924 1204 l 900 1104 l 511 1104 l 535 1204 z "},"ā":{"ha":756,"x_min":136,"x_max":819,"o":"m 600 -8 q 586 26 593 7 q 575 65 579 44 q 493 10 544 38 q 367 -18 442 -18 q 262 1 306 -18 q 190 56 218 21 q 149 138 163 90 q 136 242 136 185 q 167 424 136 335 q 261 582 199 513 q 418 694 324 651 q 639 738 513 738 q 726 729 676 738 q 813 701 776 721 l 706 265 q 694 204 699 233 q 689 143 689 175 q 694 78 689 111 q 714 8 700 46 l 600 -8 m 393 92 q 493 117 451 92 q 565 175 535 142 q 570 224 567 199 q 579 276 574 250 l 663 621 q 640 625 656 624 q 611 626 624 626 q 468 596 532 626 q 359 515 404 565 q 290 397 314 464 q 265 256 265 329 q 271 197 265 226 q 291 144 276 167 q 330 106 306 121 q 393 92 354 92 m 431 988 l 819 988 l 796 888 l 407 888 l 431 988 z "},"Ă":{"ha":883,"x_min":14,"x_max":928,"o":"m 297 247 l 161 0 l 14 0 q 317 517 169 281 q 610 963 465 753 l 742 963 q 780 752 763 858 q 814 529 797 646 q 846 282 831 413 q 878 0 861 151 l 742 0 q 729 126 735 63 q 717 247 724 189 l 297 247 m 704 356 q 678 579 693 468 q 644 808 664 690 q 524 626 596 738 q 360 356 451 514 l 704 356 m 713 1064 q 640 1076 671 1064 q 591 1110 610 1089 q 563 1158 572 1131 q 554 1214 554 1185 q 558 1257 554 1236 l 639 1257 q 638 1240 638 1253 q 660 1177 638 1200 q 724 1154 682 1154 q 774 1165 753 1154 q 808 1190 794 1175 q 830 1224 822 1206 q 842 1257 838 1242 l 928 1257 q 858 1115 915 1165 q 713 1064 801 1064 z "},"ă":{"ha":756,"x_min":136,"x_max":824,"o":"m 600 -8 q 586 26 593 7 q 575 65 579 44 q 493 10 544 38 q 367 -18 442 -18 q 262 1 306 -18 q 190 56 218 21 q 149 138 163 90 q 136 242 136 185 q 167 424 136 335 q 261 582 199 513 q 418 694 324 651 q 639 738 513 738 q 726 729 676 738 q 813 701 776 721 l 706 265 q 694 204 699 233 q 689 143 689 175 q 694 78 689 111 q 714 8 700 46 l 600 -8 m 393 92 q 493 117 451 92 q 565 175 535 142 q 570 224 567 199 q 579 276 574 250 l 663 621 q 640 625 656 624 q 611 626 624 626 q 468 596 532 626 q 359 515 404 565 q 290 397 314 464 q 265 256 265 329 q 271 197 265 226 q 291 144 276 167 q 330 106 306 121 q 393 92 354 92 m 608 847 q 536 860 567 847 q 487 893 506 872 q 459 941 468 914 q 450 997 450 968 q 454 1040 450 1019 l 535 1040 q 533 1024 533 1036 q 556 960 533 983 q 619 938 578 938 q 669 948 649 938 q 704 974 690 958 q 726 1007 718 989 q 738 1040 733 1025 l 824 1040 q 754 898 811 949 q 608 847 697 847 z "},"Ą":{"ha":883,"x_min":14,"x_max":878,"o":"m 878 6 q 841 -20 861 -6 q 797 -54 821 -35 q 778 -70 789 -61 q 757 -90 767 -79 q 740 -114 747 -101 q 733 -140 733 -126 q 745 -162 733 -154 q 785 -171 757 -171 q 813 -168 799 -171 q 840 -161 828 -165 l 829 -244 q 749 -260 796 -260 q 642 -235 672 -260 q 611 -172 611 -211 q 636 -100 611 -135 q 694 -37 661 -65 q 720 -17 708 -26 q 742 -1 732 -8 q 729 122 735 61 q 717 247 724 183 l 297 247 l 161 0 l 14 0 q 317 517 169 281 q 610 963 465 753 l 742 963 q 780 752 763 858 q 814 531 797 646 q 846 286 831 415 q 878 6 861 157 m 644 808 q 524 626 596 738 q 360 356 451 514 l 704 356 q 678 579 693 468 q 644 808 664 690 z "},"ą":{"ha":756,"x_min":136,"x_max":813,"o":"m 608 -260 q 501 -235 532 -260 q 471 -172 471 -211 q 496 -100 471 -135 q 554 -37 521 -65 q 578 -19 565 -28 q 600 -3 590 -10 q 587 30 593 13 q 576 67 581 47 q 540 38 561 53 q 493 10 519 22 q 435 -10 467 -3 q 367 -18 404 -18 q 262 1 306 -18 q 190 56 218 21 q 149 138 163 90 q 136 242 136 185 q 167 424 136 335 q 261 582 199 513 q 418 694 324 651 q 639 738 513 738 q 726 729 676 738 q 813 701 776 721 l 706 265 q 694 204 699 233 q 689 143 689 175 q 695 78 689 111 q 719 0 701 44 q 689 -23 703 -12 q 658 -49 675 -33 q 614 -91 635 -68 q 593 -140 593 -114 q 605 -162 593 -154 q 644 -171 617 -171 q 673 -168 658 -171 q 700 -161 688 -165 l 689 -244 q 608 -260 656 -260 m 393 92 q 493 117 451 92 q 565 175 535 142 q 570 224 567 199 q 579 276 574 250 l 663 621 q 640 625 656 624 q 611 626 624 626 q 468 596 532 626 q 359 515 404 565 q 290 397 314 464 q 265 256 265 329 q 271 197 265 226 q 291 144 276 167 q 330 106 306 121 q 393 92 354 92 z "},"Ć":{"ha":833,"x_min":172,"x_max":994,"o":"m 538 -21 q 378 6 447 -21 q 264 81 310 32 q 195 198 218 129 q 172 353 172 267 q 212 592 172 478 q 324 793 251 706 q 500 933 397 881 q 729 985 603 985 q 902 963 838 985 q 994 921 967 940 l 939 810 q 852 849 907 831 q 722 868 797 868 q 550 823 626 868 q 421 706 474 778 q 340 545 368 635 q 313 368 313 456 q 547 97 313 97 q 637 104 597 97 q 707 120 676 111 q 761 140 738 129 q 803 160 785 151 l 819 43 q 776 22 803 33 q 713 1 749 11 q 632 -15 676 -8 q 538 -21 588 -21 m 925 1200 l 690 1022 l 635 1090 l 854 1300 l 925 1200 z "},"ć":{"ha":626,"x_min":139,"x_max":765,"o":"m 139 258 q 167 440 139 353 q 251 594 196 528 q 388 701 307 661 q 572 740 468 740 q 660 734 618 740 q 739 710 701 728 l 690 601 q 638 621 668 614 q 561 628 608 628 q 439 598 493 628 q 347 519 385 568 q 288 405 308 469 q 268 271 268 340 q 276 203 268 235 q 303 147 283 171 q 355 108 322 122 q 438 94 388 94 q 490 99 463 94 q 542 111 518 104 q 584 126 565 118 q 611 140 603 133 l 622 31 q 540 -2 596 14 q 414 -18 485 -18 q 296 2 347 -18 q 210 59 244 22 q 157 147 175 96 q 139 258 139 197 m 765 983 l 531 806 l 475 874 l 694 1083 l 765 983 z "},"Ĉ":{"ha":833,"x_min":172,"x_max":994,"o":"m 538 -21 q 378 6 447 -21 q 264 81 310 32 q 195 198 218 129 q 172 353 172 267 q 212 592 172 478 q 324 793 251 706 q 500 933 397 881 q 729 985 603 985 q 902 963 838 985 q 994 921 967 940 l 939 810 q 852 849 907 831 q 722 868 797 868 q 550 823 626 868 q 421 706 474 778 q 340 545 368 635 q 313 368 313 456 q 547 97 313 97 q 637 104 597 97 q 707 120 676 111 q 761 140 738 129 q 803 160 785 151 l 819 43 q 776 22 803 33 q 713 1 749 11 q 632 -15 676 -8 q 538 -21 588 -21 m 765 1143 l 610 1029 l 564 1092 l 789 1285 l 936 1079 l 875 1022 l 765 1143 z "},"ĉ":{"ha":626,"x_min":139,"x_max":775,"o":"m 139 258 q 167 440 139 353 q 251 594 196 528 q 388 701 307 661 q 572 740 468 740 q 660 734 618 740 q 739 710 701 728 l 690 601 q 638 621 668 614 q 561 628 608 628 q 439 598 493 628 q 347 519 385 568 q 288 405 308 469 q 268 271 268 340 q 276 203 268 235 q 303 147 283 171 q 355 108 322 122 q 438 94 388 94 q 490 99 463 94 q 542 111 518 104 q 584 126 565 118 q 611 140 603 133 l 622 31 q 540 -2 596 14 q 414 -18 485 -18 q 296 2 347 -18 q 210 59 244 22 q 157 147 175 96 q 139 258 139 197 m 604 926 l 449 813 l 403 875 l 628 1068 l 775 863 l 714 806 l 604 926 z "},"Ċ":{"ha":833,"x_min":172,"x_max":994,"o":"m 538 -21 q 378 6 447 -21 q 264 81 310 32 q 195 198 218 129 q 172 353 172 267 q 212 592 172 478 q 324 793 251 706 q 500 933 397 881 q 729 985 603 985 q 902 963 838 985 q 994 921 967 940 l 939 810 q 852 849 907 831 q 722 868 797 868 q 550 823 626 868 q 421 706 474 778 q 340 545 368 635 q 313 368 313 456 q 547 97 313 97 q 637 104 597 97 q 707 120 676 111 q 761 140 738 129 q 803 160 785 151 l 819 43 q 776 22 803 33 q 713 1 749 11 q 632 -15 676 -8 q 538 -21 588 -21 m 760 1069 q 706 1089 728 1069 q 685 1143 685 1108 q 713 1213 685 1188 q 775 1239 740 1239 q 829 1219 807 1239 q 851 1163 851 1199 q 822 1095 851 1121 q 760 1069 793 1069 z "},"ċ":{"ha":626,"x_min":139,"x_max":739,"o":"m 139 258 q 167 440 139 353 q 251 594 196 528 q 388 701 307 661 q 572 740 468 740 q 660 734 618 740 q 739 710 701 728 l 690 601 q 638 621 668 614 q 561 628 608 628 q 439 598 493 628 q 347 519 385 568 q 288 405 308 469 q 268 271 268 340 q 276 203 268 235 q 303 147 283 171 q 355 108 322 122 q 438 94 388 94 q 490 99 463 94 q 542 111 518 104 q 584 126 565 118 q 611 140 603 133 l 622 31 q 540 -2 596 14 q 414 -18 485 -18 q 296 2 347 -18 q 210 59 244 22 q 157 147 175 96 q 139 258 139 197 m 599 853 q 545 872 567 853 q 524 926 524 892 q 551 997 524 971 q 614 1022 579 1022 q 668 1002 646 1022 q 690 946 690 982 q 661 878 690 904 q 599 853 632 853 z "},"Č":{"ha":833,"x_min":172,"x_max":994,"o":"m 538 -21 q 378 6 447 -21 q 264 81 310 32 q 195 198 218 129 q 172 353 172 267 q 212 592 172 478 q 324 793 251 706 q 500 933 397 881 q 729 985 603 985 q 902 963 838 985 q 994 921 967 940 l 939 810 q 852 849 907 831 q 722 868 797 868 q 550 823 626 868 q 421 706 474 778 q 340 545 368 635 q 313 368 313 456 q 547 97 313 97 q 637 104 597 97 q 707 120 676 111 q 761 140 738 129 q 803 160 785 151 l 819 43 q 776 22 803 33 q 713 1 749 11 q 632 -15 676 -8 q 538 -21 588 -21 m 760 1171 l 915 1285 l 961 1222 l 736 1029 l 589 1235 l 650 1292 l 760 1171 z "},"č":{"ha":626,"x_min":139,"x_max":801,"o":"m 139 258 q 167 440 139 353 q 251 594 196 528 q 388 701 307 661 q 572 740 468 740 q 660 734 618 740 q 739 710 701 728 l 690 601 q 638 621 668 614 q 561 628 608 628 q 439 598 493 628 q 347 519 385 568 q 288 405 308 469 q 268 271 268 340 q 276 203 268 235 q 303 147 283 171 q 355 108 322 122 q 438 94 388 94 q 490 99 463 94 q 542 111 518 104 q 584 126 565 118 q 611 140 603 133 l 622 31 q 540 -2 596 14 q 414 -18 485 -18 q 296 2 347 -18 q 210 59 244 22 q 157 147 175 96 q 139 258 139 197 m 600 954 l 756 1068 l 801 1006 l 576 813 l 429 1018 l 490 1075 l 600 954 z "},"Ď":{"ha":960,"x_min":117,"x_max":1013,"o":"m 576 858 q 451 853 472 858 l 274 111 q 311 106 285 108 q 397 104 338 104 q 595 141 507 104 q 744 244 683 178 q 839 401 806 310 q 872 600 872 492 q 801 790 872 722 q 576 858 731 858 m 588 972 q 907 872 801 972 q 1013 600 1013 771 q 975 370 1013 481 q 858 175 938 260 q 656 40 779 90 q 363 -10 533 -10 q 236 -4 304 -10 q 117 15 168 1 l 340 950 q 464 968 399 964 q 588 972 529 972 m 739 1171 l 894 1285 l 940 1222 l 715 1029 l 568 1235 l 629 1292 l 739 1171 z "},"ď":{"ha":840,"x_min":136,"x_max":1135,"o":"m 693 143 q 699 78 693 111 q 718 8 704 46 l 604 -8 q 581 65 589 22 q 499 10 550 38 q 372 -18 447 -18 q 267 1 311 -18 q 193 54 222 19 q 150 137 164 89 q 136 242 136 185 q 167 424 136 335 q 260 582 199 513 q 415 694 322 651 q 632 736 508 736 q 663 735 647 736 q 694 731 678 733 l 772 1056 l 907 1078 l 711 265 q 699 204 704 233 q 693 143 693 175 m 399 92 q 498 116 457 92 q 569 172 539 140 q 574 220 571 194 q 585 276 578 246 l 668 624 q 640 627 656 626 q 611 628 625 628 q 468 597 532 628 q 359 515 404 567 q 290 397 314 464 q 265 256 265 329 q 272 194 265 224 q 294 142 279 165 q 335 106 310 119 q 399 92 361 92 m 1135 1078 l 1022 768 l 932 768 l 1007 1078 l 1135 1078 z "},"Đ":{"ha":986,"x_min":135,"x_max":1039,"o":"m 614 972 q 933 872 828 972 q 1039 600 1039 771 q 1001 370 1039 481 q 885 175 964 260 q 683 40 806 90 q 389 -10 560 -10 q 263 -4 331 -10 q 143 15 194 1 l 247 450 l 135 450 l 160 554 l 272 554 l 367 950 q 490 968 425 964 q 614 972 556 972 m 603 858 q 478 853 499 858 l 406 554 l 586 554 l 561 450 l 381 450 l 300 111 q 338 106 311 108 q 424 104 364 104 q 622 141 533 104 q 771 244 710 178 q 865 401 832 310 q 899 600 899 492 q 828 790 899 722 q 603 858 757 858 z "},"đ":{"ha":765,"x_min":136,"x_max":978,"o":"m 693 143 q 699 78 693 111 q 718 8 704 46 l 604 -8 q 579 64 590 18 q 498 9 549 36 q 372 -18 447 -18 q 267 1 311 -18 q 193 54 222 19 q 150 137 164 89 q 136 242 136 185 q 167 423 136 335 q 260 580 199 511 q 415 690 322 649 q 631 732 507 732 q 661 731 646 732 q 693 726 676 729 l 724 853 l 506 853 l 528 949 l 746 949 l 772 1056 l 907 1078 l 875 949 l 978 949 l 956 853 l 853 853 l 711 265 q 699 204 704 233 q 693 143 693 175 m 399 92 q 498 116 457 92 q 569 172 539 140 q 574 220 571 194 q 585 276 578 246 l 667 619 q 639 623 654 622 q 610 624 624 624 q 467 594 531 624 q 359 513 404 564 q 290 396 314 463 q 265 256 265 329 q 272 194 265 224 q 294 142 279 165 q 335 106 310 119 q 399 92 361 92 z "},"Ē":{"ha":774,"x_min":113,"x_max":911,"o":"m 113 0 l 343 963 l 911 963 l 885 850 l 450 850 l 381 560 l 767 560 l 740 450 l 356 450 l 274 113 l 740 113 l 714 0 l 113 0 m 492 1204 l 881 1204 l 857 1104 l 468 1104 l 492 1204 z "},"ē":{"ha":719,"x_min":139,"x_max":807,"o":"m 283 379 q 431 390 364 382 q 546 416 497 397 q 622 467 594 435 q 649 550 649 499 q 644 576 649 563 q 627 602 639 590 q 594 622 615 614 q 543 629 574 629 q 452 608 494 629 q 376 553 410 588 q 319 474 343 519 q 283 379 296 429 m 415 -18 q 293 2 344 -18 q 207 58 242 22 q 156 140 172 93 q 139 240 139 188 q 168 428 139 338 q 251 588 197 518 q 383 698 306 657 q 560 739 461 739 q 658 724 617 739 q 724 685 699 710 q 763 627 750 660 q 775 560 775 594 q 751 449 775 494 q 689 374 728 404 q 598 326 650 343 q 490 300 546 310 q 376 287 433 290 q 267 281 318 283 q 265 263 265 269 q 265 251 265 256 q 273 191 265 219 q 301 141 281 163 q 359 107 322 119 q 456 94 396 94 q 510 99 482 94 q 565 112 539 104 q 610 127 590 119 q 639 142 631 135 l 650 32 q 560 -1 622 17 q 415 -18 499 -18 m 418 988 l 807 988 l 783 888 l 394 888 l 418 988 z "},"Ĕ":{"ha":774,"x_min":113,"x_max":911,"o":"m 113 0 l 343 963 l 911 963 l 885 850 l 450 850 l 381 560 l 767 560 l 740 450 l 356 450 l 274 113 l 740 113 l 714 0 l 113 0 m 668 1064 q 596 1076 626 1064 q 547 1110 565 1089 q 519 1158 528 1131 q 510 1214 510 1185 q 514 1257 510 1236 l 594 1257 q 593 1240 593 1253 q 615 1177 593 1200 q 679 1154 638 1154 q 729 1165 708 1154 q 764 1190 750 1175 q 785 1224 778 1206 q 797 1257 793 1242 l 883 1257 q 814 1115 871 1165 q 668 1064 757 1064 z "},"ĕ":{"ha":719,"x_min":139,"x_max":810,"o":"m 283 379 q 431 390 364 382 q 546 416 497 397 q 622 467 594 435 q 649 550 649 499 q 644 576 649 563 q 627 602 639 590 q 594 622 615 614 q 543 629 574 629 q 452 608 494 629 q 376 553 410 588 q 319 474 343 519 q 283 379 296 429 m 415 -18 q 293 2 344 -18 q 207 58 242 22 q 156 140 172 93 q 139 240 139 188 q 168 428 139 338 q 251 588 197 518 q 383 698 306 657 q 560 739 461 739 q 658 724 617 739 q 724 685 699 710 q 763 627 750 660 q 775 560 775 594 q 751 449 775 494 q 689 374 728 404 q 598 326 650 343 q 490 300 546 310 q 376 287 433 290 q 267 281 318 283 q 265 263 265 269 q 265 251 265 256 q 273 191 265 219 q 301 141 281 163 q 359 107 322 119 q 456 94 396 94 q 510 99 482 94 q 565 112 539 104 q 610 127 590 119 q 639 142 631 135 l 650 32 q 560 -1 622 17 q 415 -18 499 -18 m 594 847 q 522 860 553 847 q 473 893 492 872 q 445 941 454 914 q 436 997 436 968 q 440 1040 436 1019 l 521 1040 q 519 1024 519 1036 q 542 960 519 983 q 606 938 564 938 q 656 948 635 938 q 690 974 676 958 q 712 1007 704 989 q 724 1040 719 1025 l 810 1040 q 740 898 797 949 q 594 847 683 847 z "},"Ė":{"ha":774,"x_min":113,"x_max":911,"o":"m 113 0 l 343 963 l 911 963 l 885 850 l 450 850 l 381 560 l 767 560 l 740 450 l 356 450 l 274 113 l 740 113 l 714 0 l 113 0 m 665 1069 q 612 1089 633 1069 q 590 1143 590 1108 q 618 1213 590 1188 q 681 1239 646 1239 q 735 1219 713 1239 q 757 1163 757 1199 q 728 1095 757 1121 q 665 1069 699 1069 z "},"ė":{"ha":719,"x_min":139,"x_max":775,"o":"m 283 379 q 431 390 364 382 q 546 416 497 397 q 622 467 594 435 q 649 550 649 499 q 644 576 649 563 q 627 602 639 590 q 594 622 615 614 q 543 629 574 629 q 452 608 494 629 q 376 553 410 588 q 319 474 343 519 q 283 379 296 429 m 415 -18 q 293 2 344 -18 q 207 58 242 22 q 156 140 172 93 q 139 240 139 188 q 168 428 139 338 q 251 588 197 518 q 383 698 306 657 q 560 739 461 739 q 658 724 617 739 q 724 685 699 710 q 763 627 750 660 q 775 560 775 594 q 751 449 775 494 q 689 374 728 404 q 598 326 650 343 q 490 300 546 310 q 376 287 433 290 q 267 281 318 283 q 265 263 265 269 q 265 251 265 256 q 273 191 265 219 q 301 141 281 163 q 359 107 322 119 q 456 94 396 94 q 510 99 482 94 q 565 112 539 104 q 610 127 590 119 q 639 142 631 135 l 650 32 q 560 -1 622 17 q 415 -18 499 -18 m 592 853 q 538 872 560 853 q 517 926 517 892 q 544 997 517 971 q 607 1022 572 1022 q 661 1002 639 1022 q 683 946 683 982 q 654 878 683 904 q 592 853 625 853 z "},"Ę":{"ha":774,"x_min":113,"x_max":911,"o":"m 582 -260 q 475 -235 506 -260 q 444 -172 444 -211 q 469 -100 444 -135 q 528 -37 494 -65 q 555 -17 542 -26 q 578 0 568 -7 l 113 0 l 343 963 l 911 963 l 885 850 l 450 850 l 381 560 l 767 560 l 740 450 l 356 450 l 274 113 l 740 113 l 715 7 q 676 -19 697 -4 q 631 -54 654 -33 q 611 -70 622 -61 q 590 -90 600 -79 q 574 -114 581 -101 q 567 -140 567 -126 q 578 -162 567 -154 q 618 -171 590 -171 q 647 -168 632 -171 q 674 -161 661 -165 l 663 -244 q 582 -260 629 -260 z "},"ę":{"ha":719,"x_min":139,"x_max":775,"o":"m 139 240 q 168 428 139 338 q 251 588 197 518 q 383 698 306 657 q 560 739 461 739 q 658 724 617 739 q 724 685 699 710 q 763 627 750 660 q 775 560 775 594 q 751 449 775 494 q 689 374 728 404 q 598 326 650 343 q 490 300 546 310 q 376 287 433 290 q 267 281 318 283 q 265 263 265 269 q 265 251 265 256 q 273 191 265 219 q 301 141 281 163 q 359 107 322 119 q 456 94 396 94 q 510 99 482 94 q 565 112 539 104 q 610 127 590 119 q 639 142 631 135 l 647 31 q 599 -1 624 18 q 538 -50 574 -19 q 519 -67 531 -57 q 498 -88 508 -76 q 480 -113 488 -100 q 472 -140 472 -126 q 484 -162 472 -154 q 524 -171 496 -171 q 552 -168 538 -171 q 579 -161 567 -165 l 568 -244 q 488 -260 535 -260 q 381 -235 411 -260 q 350 -172 350 -211 q 375 -100 350 -135 q 433 -37 400 -65 q 451 -24 440 -32 q 472 -11 463 -17 q 444 -15 463 -14 q 413 -15 425 -15 q 290 3 342 -15 q 206 56 239 22 q 156 137 172 90 q 139 240 139 183 m 283 379 q 431 390 364 382 q 546 416 497 397 q 622 467 594 435 q 649 550 649 499 q 644 576 649 563 q 627 602 639 590 q 594 622 615 614 q 543 629 574 629 q 452 608 494 629 q 376 553 410 588 q 319 474 343 519 q 283 379 296 429 z "},"Ě":{"ha":774,"x_min":113,"x_max":911,"o":"m 113 0 l 343 963 l 911 963 l 885 850 l 450 850 l 381 560 l 767 560 l 740 450 l 356 450 l 274 113 l 740 113 l 714 0 l 113 0 m 667 1171 l 822 1285 l 868 1222 l 643 1029 l 496 1235 l 557 1292 l 667 1171 z "},"ě":{"ha":719,"x_min":139,"x_max":793,"o":"m 283 379 q 431 390 364 382 q 546 416 497 397 q 622 467 594 435 q 649 550 649 499 q 644 576 649 563 q 627 602 639 590 q 594 622 615 614 q 543 629 574 629 q 452 608 494 629 q 376 553 410 588 q 319 474 343 519 q 283 379 296 429 m 415 -18 q 293 2 344 -18 q 207 58 242 22 q 156 140 172 93 q 139 240 139 188 q 168 428 139 338 q 251 588 197 518 q 383 698 306 657 q 560 739 461 739 q 658 724 617 739 q 724 685 699 710 q 763 627 750 660 q 775 560 775 594 q 751 449 775 494 q 689 374 728 404 q 598 326 650 343 q 490 300 546 310 q 376 287 433 290 q 267 281 318 283 q 265 263 265 269 q 265 251 265 256 q 273 191 265 219 q 301 141 281 163 q 359 107 322 119 q 456 94 396 94 q 510 99 482 94 q 565 112 539 104 q 610 127 590 119 q 639 142 631 135 l 650 32 q 560 -1 622 17 q 415 -18 499 -18 m 592 954 l 747 1068 l 793 1006 l 568 813 l 421 1018 l 482 1075 l 592 954 z "},"Ĝ":{"ha":904,"x_min":172,"x_max":1013,"o":"m 528 -19 q 263 81 353 -19 q 172 353 172 182 q 212 592 172 478 q 325 793 251 706 q 502 933 399 881 q 735 985 606 985 q 845 976 799 985 q 925 957 892 968 q 979 934 958 946 q 1013 914 1000 922 l 953 804 q 922 822 942 811 q 875 844 903 833 q 811 861 847 854 q 729 868 775 868 q 553 823 631 868 q 422 706 475 778 q 340 545 368 635 q 313 368 313 456 q 371 163 313 231 q 556 96 429 96 q 649 103 607 96 q 708 117 690 110 l 792 469 l 924 469 l 818 31 q 772 12 801 21 q 704 -4 743 3 q 620 -15 665 -11 q 528 -19 575 -19 m 769 1143 l 614 1029 l 568 1092 l 793 1285 l 940 1079 l 879 1022 l 769 1143 z "},"ĝ":{"ha":764,"x_min":36,"x_max":819,"o":"m 281 -150 q 381 -136 338 -150 q 455 -96 424 -122 q 506 -33 486 -69 q 536 49 525 3 l 542 75 q 467 44 514 60 q 369 29 419 29 q 197 85 257 29 q 136 243 136 142 q 167 425 136 336 q 260 583 197 514 q 415 695 322 653 q 633 738 508 738 q 677 735 653 738 q 727 727 701 732 q 777 714 753 722 q 819 694 801 706 l 668 63 q 624 -72 650 -12 q 551 -174 597 -132 q 433 -238 506 -215 q 253 -261 361 -261 q 135 -245 193 -261 q 36 -206 76 -229 l 85 -97 q 169 -135 117 -121 q 281 -150 222 -150 m 397 138 q 499 158 453 138 q 571 196 546 178 l 672 618 q 640 624 658 621 q 606 626 622 626 q 468 598 531 626 q 360 522 406 569 q 290 410 315 474 q 265 279 265 347 q 298 171 265 204 q 397 138 331 138 m 615 926 l 460 813 l 414 875 l 639 1068 l 786 863 l 725 806 l 615 926 z "},"Ğ":{"ha":904,"x_min":172,"x_max":1013,"o":"m 528 -19 q 263 81 353 -19 q 172 353 172 182 q 212 592 172 478 q 325 793 251 706 q 502 933 399 881 q 735 985 606 985 q 845 976 799 985 q 925 957 892 968 q 979 934 958 946 q 1013 914 1000 922 l 953 804 q 922 822 942 811 q 875 844 903 833 q 811 861 847 854 q 729 868 775 868 q 553 823 631 868 q 422 706 475 778 q 340 545 368 635 q 313 368 313 456 q 371 163 313 231 q 556 96 429 96 q 649 103 607 96 q 708 117 690 110 l 792 469 l 924 469 l 818 31 q 772 12 801 21 q 704 -4 743 3 q 620 -15 665 -11 q 528 -19 575 -19 m 767 1064 q 694 1076 725 1064 q 645 1110 664 1089 q 617 1158 626 1131 q 608 1214 608 1185 q 613 1257 608 1236 l 693 1257 q 692 1240 692 1253 q 714 1177 692 1200 q 778 1154 736 1154 q 828 1165 807 1154 q 863 1190 849 1175 q 884 1224 876 1206 q 896 1257 892 1242 l 982 1257 q 913 1115 969 1165 q 767 1064 856 1064 z "},"ğ":{"ha":764,"x_min":36,"x_max":829,"o":"m 281 -150 q 381 -136 338 -150 q 455 -96 424 -122 q 506 -33 486 -69 q 536 49 525 3 l 542 75 q 467 44 514 60 q 369 29 419 29 q 197 85 257 29 q 136 243 136 142 q 167 425 136 336 q 260 583 197 514 q 415 695 322 653 q 633 738 508 738 q 677 735 653 738 q 727 727 701 732 q 777 714 753 722 q 819 694 801 706 l 668 63 q 624 -72 650 -12 q 551 -174 597 -132 q 433 -238 506 -215 q 253 -261 361 -261 q 135 -245 193 -261 q 36 -206 76 -229 l 85 -97 q 169 -135 117 -121 q 281 -150 222 -150 m 397 138 q 499 158 453 138 q 571 196 546 178 l 672 618 q 640 624 658 621 q 606 626 622 626 q 468 598 531 626 q 360 522 406 569 q 290 410 315 474 q 265 279 265 347 q 298 171 265 204 q 397 138 331 138 m 614 847 q 542 860 572 847 q 492 893 511 872 q 465 941 474 914 q 456 997 456 968 q 460 1040 456 1019 l 540 1040 q 539 1024 539 1036 q 561 960 539 983 q 625 938 583 938 q 675 948 654 938 q 710 974 696 958 q 731 1007 724 989 q 743 1040 739 1025 l 829 1040 q 760 898 817 949 q 614 847 703 847 z "},"Ġ":{"ha":904,"x_min":172,"x_max":1013,"o":"m 528 -19 q 263 81 353 -19 q 172 353 172 182 q 212 592 172 478 q 325 793 251 706 q 502 933 399 881 q 735 985 606 985 q 845 976 799 985 q 925 957 892 968 q 979 934 958 946 q 1013 914 1000 922 l 953 804 q 922 822 942 811 q 875 844 903 833 q 811 861 847 854 q 729 868 775 868 q 553 823 631 868 q 422 706 475 778 q 340 545 368 635 q 313 368 313 456 q 371 163 313 231 q 556 96 429 96 q 649 103 607 96 q 708 117 690 110 l 792 469 l 924 469 l 818 31 q 772 12 801 21 q 704 -4 743 3 q 620 -15 665 -11 q 528 -19 575 -19 m 764 1069 q 710 1089 732 1069 q 689 1143 689 1108 q 717 1213 689 1188 q 779 1239 744 1239 q 833 1219 811 1239 q 856 1163 856 1199 q 826 1095 856 1121 q 764 1069 797 1069 z "},"ġ":{"ha":764,"x_min":36,"x_max":819,"o":"m 281 -150 q 381 -136 338 -150 q 455 -96 424 -122 q 506 -33 486 -69 q 536 49 525 3 l 542 75 q 467 44 514 60 q 369 29 419 29 q 197 85 257 29 q 136 243 136 142 q 167 425 136 336 q 260 583 197 514 q 415 695 322 653 q 633 738 508 738 q 677 735 653 738 q 727 727 701 732 q 777 714 753 722 q 819 694 801 706 l 668 63 q 624 -72 650 -12 q 551 -174 597 -132 q 433 -238 506 -215 q 253 -261 361 -261 q 135 -245 193 -261 q 36 -206 76 -229 l 85 -97 q 169 -135 117 -121 q 281 -150 222 -150 m 397 138 q 499 158 453 138 q 571 196 546 178 l 672 618 q 640 624 658 621 q 606 626 622 626 q 468 598 531 626 q 360 522 406 569 q 290 410 315 474 q 265 279 265 347 q 298 171 265 204 q 397 138 331 138 m 610 853 q 556 872 578 853 q 535 926 535 892 q 563 997 535 971 q 625 1022 590 1022 q 679 1002 657 1022 q 701 946 701 982 q 672 878 701 904 q 610 853 643 853 z "},"Ģ":{"ha":904,"x_min":172,"x_max":1013,"o":"m 528 -19 q 263 81 353 -19 q 172 353 172 182 q 212 592 172 478 q 325 793 251 706 q 502 933 399 881 q 735 985 606 985 q 845 976 799 985 q 925 957 892 968 q 979 934 958 946 q 1013 914 1000 922 l 953 804 q 922 822 942 811 q 875 844 903 833 q 811 861 847 854 q 729 868 775 868 q 553 823 631 868 q 422 706 475 778 q 340 545 368 635 q 313 368 313 456 q 371 163 313 231 q 556 96 429 96 q 649 103 607 96 q 708 117 690 110 l 792 469 l 924 469 l 818 31 q 772 12 801 21 q 704 -4 743 3 q 620 -15 665 -11 q 528 -19 575 -19 m 582 -69 q 563 -144 575 -110 q 527 -205 550 -179 q 471 -245 504 -231 q 389 -260 438 -260 q 358 -258 374 -260 q 332 -253 342 -256 l 351 -176 q 360 -178 354 -178 q 371 -178 367 -178 q 427 -156 408 -178 q 461 -69 446 -133 l 582 -69 z "},"ģ":{"ha":764,"x_min":36,"x_max":819,"o":"m 281 -150 q 381 -136 338 -150 q 455 -96 424 -122 q 506 -33 486 -69 q 536 49 525 3 l 542 75 q 467 44 514 60 q 369 29 419 29 q 197 85 257 29 q 136 243 136 142 q 167 425 136 336 q 260 583 197 514 q 415 695 322 653 q 633 738 508 738 q 677 735 653 738 q 727 727 701 732 q 777 714 753 722 q 819 694 801 706 l 668 63 q 624 -72 650 -12 q 551 -174 597 -132 q 433 -238 506 -215 q 253 -261 361 -261 q 135 -245 193 -261 q 36 -206 76 -229 l 85 -97 q 169 -135 117 -121 q 281 -150 222 -150 m 397 138 q 499 158 453 138 q 571 196 546 178 l 672 618 q 640 624 658 621 q 606 626 622 626 q 468 598 531 626 q 360 522 406 569 q 290 410 315 474 q 265 279 265 347 q 298 171 265 204 q 397 138 331 138 m 533 846 q 597 1006 543 943 q 739 1083 651 1068 l 776 1022 q 733 998 751 1011 q 700 965 714 985 q 676 916 686 944 q 657 846 665 888 l 533 846 z "},"Ĥ":{"ha":946,"x_min":113,"x_max":1058,"o":"m 828 0 l 693 0 l 800 447 l 354 447 l 247 0 l 113 0 l 343 963 l 478 963 l 381 560 l 826 560 l 924 963 l 1058 963 l 828 0 m 743 1143 l 588 1029 l 542 1092 l 767 1285 l 914 1079 l 853 1022 l 743 1143 z "},"ĥ":{"ha":767,"x_min":106,"x_max":779,"o":"m 106 0 l 360 1056 l 494 1078 l 406 713 q 473 731 438 724 q 544 738 508 738 q 652 720 607 738 q 725 673 697 703 q 766 601 753 643 q 779 508 779 558 q 760 369 779 447 l 671 0 l 542 0 l 624 342 q 642 421 633 381 q 651 497 651 461 q 621 590 651 553 q 507 626 590 626 q 438 620 474 626 q 379 603 403 614 l 235 0 l 106 0 m 683 1188 l 632 1132 l 532 1222 l 396 1133 l 358 1199 l 547 1336 l 683 1188 z "},"Ħ":{"ha":985,"x_min":132,"x_max":1149,"o":"m 1044 825 l 1149 825 l 1125 726 l 1021 726 l 847 0 l 713 0 l 819 447 l 374 447 l 267 0 l 132 0 l 306 726 l 201 726 l 225 825 l 329 825 l 363 963 l 497 963 l 464 825 l 910 825 l 943 963 l 1078 963 l 1044 825 m 846 560 l 886 726 l 440 726 l 400 560 l 846 560 z "},"ħ":{"ha":767,"x_min":106,"x_max":778,"o":"m 106 0 l 311 853 l 208 853 l 231 949 l 333 949 l 360 1056 l 494 1078 l 463 949 l 681 949 l 658 853 l 439 853 l 404 707 q 472 725 436 718 q 543 732 507 732 q 651 715 606 732 q 724 667 696 697 q 765 595 751 638 q 778 503 778 553 q 758 364 778 442 l 671 0 l 542 0 l 622 336 q 641 415 632 375 q 650 492 650 456 q 619 584 650 547 q 506 621 589 621 q 437 615 472 621 q 378 597 401 608 l 235 0 l 106 0 z "},"Ĩ":{"ha":365,"x_min":113,"x_max":697,"o":"m 343 963 l 478 963 l 247 0 l 113 0 l 343 963 m 478 1199 q 515 1181 499 1188 q 549 1174 532 1174 q 597 1195 578 1174 q 632 1240 617 1217 l 697 1200 q 631 1110 669 1142 q 531 1079 593 1079 q 481 1089 503 1079 q 440 1110 460 1099 q 403 1128 419 1121 q 369 1135 386 1135 q 321 1113 340 1135 q 286 1068 301 1092 l 221 1108 q 287 1198 249 1167 q 388 1229 325 1229 q 437 1219 415 1229 q 478 1199 458 1210 z "},"ĩ":{"ha":346,"x_min":106,"x_max":638,"o":"m 235 0 l 106 0 l 279 722 l 408 722 l 235 0 m 418 982 q 456 964 439 971 q 489 957 472 957 q 538 978 518 957 q 572 1024 557 1000 l 638 983 q 572 894 610 925 q 471 863 533 863 q 422 872 443 863 q 381 893 400 882 q 343 911 360 904 q 310 918 326 918 q 261 897 281 918 q 226 851 242 875 l 161 892 q 227 981 189 950 q 328 1013 265 1013 q 377 1003 356 1013 q 418 982 399 993 z "},"Ī":{"ha":365,"x_min":113,"x_max":665,"o":"m 343 963 l 478 963 l 247 0 l 113 0 l 343 963 m 276 1204 l 665 1204 l 642 1104 l 253 1104 l 276 1204 z "},"ī":{"ha":346,"x_min":106,"x_max":606,"o":"m 235 0 l 106 0 l 279 722 l 408 722 l 235 0 m 217 988 l 606 988 l 582 888 l 193 888 l 217 988 z "},"Ĭ":{"ha":365,"x_min":113,"x_max":669,"o":"m 343 963 l 478 963 l 247 0 l 113 0 l 343 963 m 454 1064 q 382 1076 413 1064 q 333 1110 351 1089 q 305 1158 314 1131 q 296 1214 296 1185 q 300 1257 296 1236 l 381 1257 q 379 1240 379 1253 q 401 1177 379 1200 q 465 1154 424 1154 q 515 1165 494 1154 q 550 1190 536 1175 q 572 1224 564 1206 q 583 1257 579 1242 l 669 1257 q 600 1115 657 1165 q 454 1064 543 1064 z "},"ĭ":{"ha":346,"x_min":106,"x_max":610,"o":"m 235 0 l 106 0 l 279 722 l 408 722 l 235 0 m 394 847 q 322 860 353 847 q 273 893 292 872 q 245 941 254 914 q 236 997 236 968 q 240 1040 236 1019 l 321 1040 q 319 1024 319 1036 q 342 960 319 983 q 406 938 364 938 q 456 948 435 938 q 490 974 476 958 q 512 1007 504 989 q 524 1040 519 1025 l 610 1040 q 540 898 597 949 q 394 847 483 847 z "},"Į":{"ha":365,"x_min":-17,"x_max":478,"o":"m 343 963 l 478 963 l 247 0 q 213 -20 232 -8 q 172 -51 194 -32 q 152 -68 164 -58 q 130 -89 140 -78 q 113 -113 119 -100 q 106 -140 106 -126 q 117 -162 106 -154 q 157 -171 129 -171 q 185 -168 171 -171 q 213 -161 200 -165 l 201 -244 q 121 -260 168 -260 q 14 -235 44 -260 q -17 -172 -17 -211 q 8 -100 -17 -135 q 67 -37 33 -65 q 90 -18 79 -26 q 113 -1 101 -10 l 343 963 z "},"į":{"ha":346,"x_min":-26,"x_max":476,"o":"m 111 -260 q 4 -235 35 -260 q -26 -172 -26 -211 q -1 -100 -26 -135 q 57 -37 24 -65 q 81 -17 68 -28 q 106 0 94 -7 l 279 722 l 408 722 l 235 0 q 200 -24 219 -11 q 160 -54 181 -36 q 140 -70 151 -61 q 119 -90 129 -79 q 103 -114 110 -101 q 96 -140 96 -126 q 108 -162 96 -154 q 147 -171 119 -171 q 176 -168 161 -171 q 203 -161 190 -165 l 192 -244 q 111 -260 158 -260 m 385 853 q 331 872 353 853 q 310 926 310 892 q 338 997 310 971 q 400 1022 365 1022 q 454 1002 432 1022 q 476 946 476 982 q 447 878 476 904 q 385 853 418 853 z "},"İ":{"ha":365,"x_min":113,"x_max":539,"o":"m 343 963 l 478 963 l 247 0 l 113 0 l 343 963 m 447 1069 q 394 1089 415 1069 q 372 1143 372 1108 q 400 1213 372 1188 q 463 1239 428 1239 q 517 1219 494 1239 q 539 1163 539 1199 q 510 1095 539 1121 q 447 1069 481 1069 z "},"ı":{"ha":346,"x_min":106,"x_max":408,"o":"m 235 0 l 106 0 l 279 722 l 408 722 l 235 0 z "},"Ĳ":{"ha":1040,"x_min":113,"x_max":1158,"o":"m 343 963 l 478 963 l 247 0 l 113 0 l 343 963 m 1003 310 q 965 183 986 243 q 906 77 944 122 q 806 6 868 32 q 647 -21 744 -21 q 559 -12 599 -21 q 489 11 519 -3 q 437 40 458 25 q 404 67 415 54 l 471 168 q 538 121 493 146 q 650 96 582 96 q 735 108 700 96 q 794 148 769 121 q 837 218 819 175 q 869 322 854 261 l 1024 963 l 1158 963 l 1003 310 z "},"ĳ":{"ha":697,"x_min":106,"x_max":828,"o":"m 235 0 l 106 0 l 279 722 l 408 722 l 235 0 m 385 853 q 331 872 353 853 q 310 926 310 892 q 338 997 310 971 q 400 1022 365 1022 q 454 1002 432 1022 q 476 946 476 982 q 447 878 476 904 q 385 853 418 853 m 592 28 q 549 -105 572 -50 q 492 -194 526 -160 q 411 -245 458 -229 q 296 -261 364 -261 q 242 -254 272 -261 q 196 -236 213 -247 l 225 -129 q 264 -144 240 -139 q 315 -150 288 -150 q 410 -101 378 -150 q 463 26 443 -53 l 629 722 l 758 722 l 592 28 m 736 853 q 683 872 704 853 q 661 926 661 892 q 689 997 661 971 q 751 1022 717 1022 q 806 1002 783 1022 q 828 946 828 982 q 799 878 828 904 q 736 853 769 853 z "},"Ĵ":{"ha":669,"x_min":33,"x_max":932,"o":"m 632 310 q 594 183 615 243 q 535 77 574 122 q 435 6 497 32 q 276 -21 374 -21 q 188 -12 228 -21 q 118 11 149 -3 q 66 40 88 25 q 33 67 44 54 l 100 168 q 167 121 122 146 q 279 96 211 96 q 364 108 329 96 q 424 148 399 121 q 466 218 449 175 q 499 322 483 261 l 653 963 l 788 963 l 632 310 m 761 1143 l 606 1029 l 560 1092 l 785 1285 l 932 1079 l 871 1022 l 761 1143 z "},"ĵ":{"ha":346,"x_min":-154,"x_max":564,"o":"m 242 28 q 199 -105 222 -50 q 142 -194 176 -160 q 61 -245 108 -229 q -54 -261 14 -261 q -108 -254 -78 -261 q -154 -236 -137 -247 l -125 -129 q -86 -144 -110 -139 q -35 -150 -62 -150 q 60 -101 28 -150 q 113 26 93 -53 l 279 722 l 408 722 l 242 28 m 393 926 l 238 813 l 192 875 l 417 1068 l 564 863 l 503 806 l 393 926 z "},"Ķ":{"ha":853,"x_min":113,"x_max":1042,"o":"m 1042 963 q 923 856 989 915 q 785 736 857 797 q 642 614 714 675 q 504 501 569 553 q 595 401 547 461 q 690 274 643 342 q 778 135 736 206 q 853 0 821 64 l 703 0 q 625 131 667 64 q 540 258 583 197 q 450 373 496 319 q 358 464 404 426 l 247 0 l 113 0 l 343 963 l 478 963 l 376 542 q 508 646 438 588 q 647 763 579 704 q 774 874 715 821 q 872 963 833 926 l 1042 963 m 519 -69 q 500 -144 513 -110 q 465 -205 488 -179 q 408 -245 442 -231 q 326 -260 375 -260 q 295 -258 311 -260 q 269 -253 279 -256 l 289 -176 q 298 -178 292 -178 q 308 -178 304 -178 q 365 -156 346 -178 q 399 -69 383 -133 l 519 -69 z "},"ķ":{"ha":718,"x_min":106,"x_max":819,"o":"m 106 0 l 360 1056 l 494 1078 l 339 435 q 433 508 385 468 q 526 586 482 547 q 606 660 569 625 q 667 722 643 696 l 819 722 q 745 642 790 686 q 650 552 700 597 q 549 465 600 507 q 458 394 499 424 q 534 312 496 360 q 608 210 572 264 q 672 102 643 157 q 721 0 701 47 l 581 0 q 465 207 532 113 q 322 361 397 301 l 235 0 l 106 0 m 451 -69 q 432 -144 444 -110 q 397 -205 419 -179 q 340 -245 374 -231 q 258 -260 307 -260 q 227 -258 243 -260 q 201 -253 211 -256 l 221 -176 q 230 -178 224 -178 q 240 -178 236 -178 q 297 -156 278 -178 q 331 -69 315 -133 l 451 -69 z "},"ĸ":{"ha":736,"x_min":106,"x_max":844,"o":"m 235 0 l 106 0 l 279 722 l 408 722 l 338 426 q 441 502 389 461 q 540 583 493 543 q 625 660 586 624 q 689 722 664 696 l 844 722 q 765 643 813 688 q 665 552 718 599 q 558 463 611 506 q 461 389 504 419 q 541 308 500 356 q 619 208 582 261 q 688 101 657 156 q 740 0 719 47 l 599 0 q 475 203 546 108 q 321 357 404 297 l 235 0 z "},"Ĺ":{"ha":704,"x_min":113,"x_max":700,"o":"m 700 113 l 674 0 l 113 0 l 343 963 l 478 963 l 274 113 l 700 113 m 647 1200 l 413 1022 l 357 1090 l 576 1300 l 647 1200 z "},"ĺ":{"ha":383,"x_min":150,"x_max":618,"o":"m 299 318 q 285 258 292 288 q 278 203 278 229 q 301 128 278 156 q 386 93 324 100 l 357 -12 q 260 5 300 -11 q 197 47 221 21 q 161 110 172 74 q 150 189 150 146 q 156 256 150 221 q 171 328 161 290 l 346 1056 l 481 1078 l 299 318 m 618 1222 l 379 1138 l 356 1207 l 589 1322 l 618 1222 z "},"Ļ":{"ha":704,"x_min":113,"x_max":700,"o":"m 700 113 l 674 0 l 113 0 l 343 963 l 478 963 l 274 113 l 700 113 m 438 -69 q 418 -144 431 -110 q 383 -205 406 -179 q 326 -245 360 -231 q 244 -260 293 -260 q 213 -258 229 -260 q 188 -253 197 -256 l 207 -176 q 216 -178 210 -178 q 226 -178 222 -178 q 283 -156 264 -178 q 317 -69 301 -133 l 438 -69 z "},"ļ":{"ha":383,"x_min":17,"x_max":481,"o":"m 299 318 q 285 258 292 288 q 278 203 278 229 q 301 128 278 156 q 386 93 324 100 l 357 -12 q 260 5 300 -11 q 197 47 221 21 q 161 110 172 74 q 150 189 150 146 q 156 256 150 221 q 171 328 161 290 l 346 1056 l 481 1078 l 299 318 m 267 -69 q 247 -144 260 -110 q 212 -205 235 -179 q 156 -245 189 -231 q 74 -260 122 -260 q 42 -258 58 -260 q 17 -253 26 -256 l 36 -176 q 45 -178 39 -178 q 56 -178 51 -178 q 112 -156 93 -178 q 146 -69 131 -133 l 267 -69 z "},"Ľ":{"ha":704,"x_min":113,"x_max":726,"o":"m 700 113 l 674 0 l 113 0 l 343 963 l 478 963 l 274 113 l 700 113 m 726 965 l 614 656 l 524 656 l 599 965 l 726 965 z "},"ľ":{"ha":411,"x_min":150,"x_max":706,"o":"m 299 318 q 285 258 292 288 q 278 203 278 229 q 301 128 278 156 q 386 93 324 100 l 357 -12 q 260 5 300 -11 q 197 47 221 21 q 161 110 172 74 q 150 189 150 146 q 156 256 150 221 q 171 328 161 290 l 346 1056 l 481 1078 l 299 318 m 706 1078 l 593 768 l 503 768 l 578 1078 l 706 1078 z "},"Ŀ":{"ha":704,"x_min":113,"x_max":738,"o":"m 700 113 l 674 0 l 113 0 l 343 963 l 478 963 l 274 113 l 700 113 m 646 421 q 592 440 614 421 q 571 494 571 460 q 599 565 571 539 q 661 590 626 590 q 715 570 693 590 q 738 514 738 550 q 708 447 738 472 q 646 421 679 421 z "},"ŀ":{"ha":500,"x_min":150,"x_max":614,"o":"m 299 318 q 285 258 292 288 q 278 203 278 229 q 301 128 278 156 q 386 93 324 100 l 357 -12 q 260 5 300 -11 q 197 47 221 21 q 161 110 172 74 q 150 189 150 146 q 156 256 150 221 q 171 328 161 290 l 346 1056 l 481 1078 l 299 318 m 522 421 q 469 440 490 421 q 447 494 447 460 q 475 565 447 539 q 538 590 503 590 q 592 570 569 590 q 614 514 614 550 q 585 447 614 472 q 522 421 556 421 z "},"Ł":{"ha":732,"x_min":106,"x_max":728,"o":"m 728 113 l 701 0 l 140 0 l 235 393 l 128 343 l 106 439 l 263 514 l 371 963 l 506 963 l 411 572 l 586 656 l 608 560 l 383 453 l 301 113 l 728 113 z "},"ł":{"ha":442,"x_min":129,"x_max":549,"o":"m 419 650 l 526 700 l 549 604 l 390 529 l 340 318 q 326 258 333 288 q 319 203 319 229 q 342 128 319 156 q 428 93 365 100 l 399 -12 q 302 5 342 -11 q 238 47 263 21 q 203 110 214 74 q 192 189 192 146 q 197 256 192 221 q 213 328 203 290 l 249 474 l 151 428 l 129 524 l 276 593 l 388 1056 l 522 1078 l 419 650 z "},"Ń":{"ha":969,"x_min":113,"x_max":1081,"o":"m 733 0 q 674 183 708 81 q 598 392 639 286 q 514 597 557 497 q 429 769 471 696 l 244 0 l 113 0 l 343 963 l 458 963 q 549 792 503 888 q 638 597 596 697 q 717 401 681 497 q 776 229 753 306 l 949 963 l 1081 963 l 851 0 l 733 0 m 917 1200 l 682 1022 l 626 1090 l 846 1300 l 917 1200 z "},"ń":{"ha":765,"x_min":106,"x_max":778,"o":"m 235 0 l 106 0 l 272 694 q 410 726 336 714 q 543 738 485 738 q 651 720 606 738 q 724 673 696 703 q 765 601 751 643 q 778 508 778 558 q 772 441 778 476 q 758 369 767 406 l 669 0 l 540 0 l 622 342 q 641 421 632 381 q 650 497 650 461 q 619 590 650 553 q 506 626 589 626 q 438 622 471 626 q 382 611 404 618 l 235 0 m 771 983 l 536 806 l 481 874 l 700 1083 l 771 983 z "},"Ņ":{"ha":969,"x_min":113,"x_max":1081,"o":"m 733 0 q 674 183 708 81 q 598 392 639 286 q 514 597 557 497 q 429 769 471 696 l 244 0 l 113 0 l 343 963 l 458 963 q 549 792 503 888 q 638 597 596 697 q 717 401 681 497 q 776 229 753 306 l 949 963 l 1081 963 l 851 0 l 733 0 m 526 -69 q 507 -144 519 -110 q 472 -205 494 -179 q 415 -245 449 -231 q 333 -260 382 -260 q 302 -258 318 -260 q 276 -253 286 -256 l 296 -176 q 305 -178 299 -178 q 315 -178 311 -178 q 372 -156 353 -178 q 406 -69 390 -133 l 526 -69 z "},"ņ":{"ha":765,"x_min":106,"x_max":778,"o":"m 235 0 l 106 0 l 272 694 q 410 726 336 714 q 543 738 485 738 q 651 720 606 738 q 724 673 696 703 q 765 601 751 643 q 778 508 778 558 q 772 441 778 476 q 758 369 767 406 l 669 0 l 540 0 l 622 342 q 641 421 632 381 q 650 497 650 461 q 619 590 650 553 q 506 626 589 626 q 438 622 471 626 q 382 611 404 618 l 235 0 m 432 -69 q 413 -144 425 -110 q 377 -205 400 -179 q 321 -245 354 -231 q 239 -260 288 -260 q 208 -258 224 -260 q 182 -253 192 -256 l 201 -176 q 210 -178 204 -178 q 221 -178 217 -178 q 277 -156 258 -178 q 311 -69 296 -133 l 432 -69 z "},"Ň":{"ha":969,"x_min":113,"x_max":1081,"o":"m 733 0 q 674 183 708 81 q 598 392 639 286 q 514 597 557 497 q 429 769 471 696 l 244 0 l 113 0 l 343 963 l 458 963 q 549 792 503 888 q 638 597 596 697 q 717 401 681 497 q 776 229 753 306 l 949 963 l 1081 963 l 851 0 l 733 0 m 751 1171 l 907 1285 l 953 1222 l 728 1029 l 581 1235 l 642 1292 l 751 1171 z "},"ň":{"ha":765,"x_min":106,"x_max":807,"o":"m 235 0 l 106 0 l 272 694 q 410 726 336 714 q 543 738 485 738 q 651 720 606 738 q 724 673 696 703 q 765 601 751 643 q 778 508 778 558 q 772 441 778 476 q 758 369 767 406 l 669 0 l 540 0 l 622 342 q 641 421 632 381 q 650 497 650 461 q 619 590 650 553 q 506 626 589 626 q 438 622 471 626 q 382 611 404 618 l 235 0 m 606 954 l 761 1068 l 807 1006 l 582 813 l 435 1018 l 496 1075 l 606 954 z "},"ŉ":{"ha":765,"x_min":106,"x_max":778,"o":"m 235 0 l 106 0 l 272 694 q 410 726 336 714 q 543 738 485 738 q 651 720 606 738 q 724 673 696 703 q 765 601 751 643 q 778 508 778 558 q 772 441 778 476 q 758 369 767 406 l 669 0 l 540 0 l 622 342 q 641 421 632 381 q 650 497 650 461 q 619 590 650 553 q 506 626 589 626 q 438 622 471 626 q 382 611 404 618 l 235 0 m 439 1078 q 378 917 419 990 q 289 796 336 843 l 207 826 q 272 952 249 893 q 306 1078 296 1011 l 439 1078 z "},"Ŋ":{"ha":969,"x_min":113,"x_max":1081,"o":"m 851 0 q 819 -112 836 -64 q 774 -194 801 -161 q 702 -243 746 -226 q 590 -260 658 -260 q 543 -254 571 -260 q 504 -242 515 -249 l 538 -144 q 561 -152 546 -149 q 596 -156 576 -156 q 675 -121 651 -156 q 714 -24 699 -86 l 726 29 q 667 210 701 111 q 592 410 632 310 q 510 605 553 511 q 429 769 468 699 l 244 0 l 113 0 l 343 963 l 458 963 q 549 792 503 888 q 638 597 596 697 q 717 401 681 497 q 776 229 753 306 l 949 963 l 1081 963 l 851 0 z "},"ŋ":{"ha":765,"x_min":106,"x_max":778,"o":"m 622 342 q 641 421 632 381 q 650 497 650 461 q 619 590 650 553 q 506 626 589 626 q 438 622 471 626 q 382 611 404 618 l 235 0 l 106 0 l 272 694 q 410 726 336 714 q 543 738 485 738 q 651 720 606 738 q 724 673 696 703 q 765 601 751 643 q 778 508 778 558 q 772 441 778 476 q 758 369 767 406 l 669 0 q 638 -112 654 -64 q 592 -194 621 -161 q 521 -243 564 -226 q 410 -260 478 -260 q 363 -254 390 -260 q 324 -242 335 -249 l 357 -144 q 381 -152 365 -149 q 415 -156 396 -156 q 494 -121 469 -156 q 535 -24 519 -86 l 622 342 z "},"Ō":{"ha":1026,"x_min":172,"x_max":1079,"o":"m 729 985 q 870 962 806 985 q 981 893 935 939 q 1053 778 1028 847 q 1079 618 1079 710 q 1044 389 1079 503 q 939 184 1008 275 q 765 36 869 93 q 522 -21 661 -21 q 381 2 444 -21 q 270 71 317 25 q 198 185 224 117 q 172 346 172 254 q 207 574 172 460 q 312 780 242 689 q 486 928 382 871 q 729 985 590 985 m 536 96 q 704 141 629 96 q 831 258 779 186 q 911 421 883 331 q 939 601 939 511 q 885 797 939 725 q 715 868 832 868 q 547 823 621 868 q 420 706 472 778 q 340 543 368 633 q 313 363 313 453 q 366 167 313 239 q 536 96 419 96 m 604 1204 l 993 1204 l 969 1104 l 581 1104 l 604 1204 z "},"ō":{"ha":771,"x_min":139,"x_max":814,"o":"m 382 -18 q 203 49 268 -18 q 139 235 139 117 q 162 404 139 315 q 235 568 185 493 q 364 692 285 643 q 556 740 443 740 q 734 673 669 740 q 799 488 799 606 q 776 318 799 407 q 703 154 753 229 q 574 31 653 79 q 382 -18 494 -18 m 404 92 q 516 128 467 92 q 599 220 565 164 q 651 344 633 276 q 669 476 669 413 q 639 589 669 547 q 533 631 608 631 q 422 594 471 631 q 338 502 372 558 q 286 378 304 446 q 268 246 268 310 q 299 133 268 175 q 404 92 329 92 m 425 988 l 814 988 l 790 888 l 401 888 l 425 988 z "},"Ŏ":{"ha":1026,"x_min":172,"x_max":1079,"o":"m 729 985 q 870 962 806 985 q 981 893 935 939 q 1053 778 1028 847 q 1079 618 1079 710 q 1044 389 1079 503 q 939 184 1008 275 q 765 36 869 93 q 522 -21 661 -21 q 381 2 444 -21 q 270 71 317 25 q 198 185 224 117 q 172 346 172 254 q 207 574 172 460 q 312 780 242 689 q 486 928 382 871 q 729 985 590 985 m 536 96 q 704 141 629 96 q 831 258 779 186 q 911 421 883 331 q 939 601 939 511 q 885 797 939 725 q 715 868 832 868 q 547 823 621 868 q 420 706 472 778 q 340 543 368 633 q 313 363 313 453 q 366 167 313 239 q 536 96 419 96 m 781 1064 q 708 1076 739 1064 q 659 1110 678 1089 q 631 1158 640 1131 q 622 1214 622 1185 q 626 1257 622 1236 l 707 1257 q 706 1240 706 1253 q 728 1177 706 1200 q 792 1154 750 1154 q 842 1165 821 1154 q 876 1190 863 1175 q 898 1224 890 1206 q 910 1257 906 1242 l 996 1257 q 926 1115 983 1165 q 781 1064 869 1064 z "},"ŏ":{"ha":771,"x_min":139,"x_max":818,"o":"m 382 -18 q 203 49 268 -18 q 139 235 139 117 q 162 404 139 315 q 235 568 185 493 q 364 692 285 643 q 556 740 443 740 q 734 673 669 740 q 799 488 799 606 q 776 318 799 407 q 703 154 753 229 q 574 31 653 79 q 382 -18 494 -18 m 404 92 q 516 128 467 92 q 599 220 565 164 q 651 344 633 276 q 669 476 669 413 q 639 589 669 547 q 533 631 608 631 q 422 594 471 631 q 338 502 372 558 q 286 378 304 446 q 268 246 268 310 q 299 133 268 175 q 404 92 329 92 m 603 847 q 531 860 561 847 q 481 893 500 872 q 453 941 463 914 q 444 997 444 968 q 449 1040 444 1019 l 529 1040 q 528 1024 528 1036 q 550 960 528 983 q 614 938 572 938 q 664 948 643 938 q 699 974 685 958 q 720 1007 713 989 q 732 1040 728 1025 l 818 1040 q 749 898 806 949 q 603 847 692 847 z "},"Ő":{"ha":1026,"x_min":172,"x_max":1097,"o":"m 729 985 q 870 962 806 985 q 981 893 935 939 q 1053 778 1028 847 q 1079 618 1079 710 q 1044 389 1079 503 q 939 184 1008 275 q 765 36 869 93 q 522 -21 661 -21 q 381 2 444 -21 q 270 71 317 25 q 198 185 224 117 q 172 346 172 254 q 207 574 172 460 q 312 780 242 689 q 486 928 382 871 q 729 985 590 985 m 536 96 q 704 141 629 96 q 831 258 779 186 q 911 421 883 331 q 939 601 939 511 q 885 797 939 725 q 715 868 832 868 q 547 823 621 868 q 420 706 472 778 q 340 543 368 633 q 313 363 313 453 q 366 167 313 239 q 536 96 419 96 m 864 1204 l 654 1025 l 600 1088 l 793 1294 l 864 1204 m 1097 1201 l 888 1025 l 833 1085 l 1026 1292 l 1097 1201 z "},"ő":{"ha":771,"x_min":139,"x_max":918,"o":"m 382 -18 q 203 49 268 -18 q 139 235 139 117 q 162 404 139 315 q 235 568 185 493 q 364 692 285 643 q 556 740 443 740 q 734 673 669 740 q 799 488 799 606 q 776 318 799 407 q 703 154 753 229 q 574 31 653 79 q 382 -18 494 -18 m 404 92 q 516 128 467 92 q 599 220 565 164 q 651 344 633 276 q 669 476 669 413 q 639 589 669 547 q 533 631 608 631 q 422 594 471 631 q 338 502 372 558 q 286 378 304 446 q 268 246 268 310 q 299 133 268 175 q 404 92 329 92 m 685 988 l 475 808 l 421 871 l 614 1078 l 685 988 m 918 985 l 708 808 l 654 868 l 847 1075 l 918 985 z "},"Ŕ":{"ha":846,"x_min":113,"x_max":922,"o":"m 588 972 q 832 910 742 972 q 922 726 922 847 q 851 522 922 604 q 650 403 779 439 q 689 328 667 374 q 735 228 711 283 q 781 115 758 174 q 819 0 803 56 l 682 0 q 642 107 663 53 q 599 211 621 161 q 556 305 578 261 q 517 382 535 349 q 481 380 499 381 q 444 379 463 379 l 338 379 l 247 0 l 113 0 l 340 950 q 464 968 399 964 q 588 972 529 972 m 571 858 q 451 853 472 858 l 364 489 l 446 489 q 563 497 503 489 q 672 530 622 506 q 752 598 721 554 q 783 714 783 642 q 724 825 783 792 q 571 858 665 858 m 825 1200 l 590 1022 l 535 1090 l 754 1300 l 825 1200 z "},"ŕ":{"ha":517,"x_min":106,"x_max":689,"o":"m 519 738 q 557 736 536 738 q 598 731 578 735 q 635 724 618 728 q 660 717 651 721 l 622 604 q 558 621 594 615 q 489 626 522 626 q 431 622 460 626 q 382 611 403 618 l 235 0 l 106 0 l 272 694 q 392 726 328 714 q 519 738 456 738 m 689 983 l 454 806 l 399 874 l 618 1083 l 689 983 z "},"Ŗ":{"ha":846,"x_min":113,"x_max":922,"o":"m 588 972 q 832 910 742 972 q 922 726 922 847 q 851 522 922 604 q 650 403 779 439 q 689 328 667 374 q 735 228 711 283 q 781 115 758 174 q 819 0 803 56 l 682 0 q 642 107 663 53 q 599 211 621 161 q 556 305 578 261 q 517 382 535 349 q 481 380 499 381 q 444 379 463 379 l 338 379 l 247 0 l 113 0 l 340 950 q 464 968 399 964 q 588 972 529 972 m 571 858 q 451 853 472 858 l 364 489 l 446 489 q 563 497 503 489 q 672 530 622 506 q 752 598 721 554 q 783 714 783 642 q 724 825 783 792 q 571 858 665 858 m 508 -69 q 489 -144 501 -110 q 453 -205 476 -179 q 397 -245 431 -231 q 315 -260 364 -260 q 284 -258 300 -260 q 258 -253 268 -256 l 278 -176 q 287 -178 281 -178 q 297 -178 293 -178 q 353 -156 335 -178 q 388 -69 372 -133 l 508 -69 z "},"ŗ":{"ha":517,"x_min":-33,"x_max":660,"o":"m 519 738 q 557 736 536 738 q 598 731 578 735 q 635 724 618 728 q 660 717 651 721 l 622 604 q 558 621 594 615 q 489 626 522 626 q 431 622 460 626 q 382 611 403 618 l 235 0 l 106 0 l 272 694 q 392 726 328 714 q 519 738 456 738 m 217 -69 q 197 -144 210 -110 q 162 -205 185 -179 q 106 -245 139 -231 q 24 -260 72 -260 q -8 -258 8 -260 q -33 -253 -24 -256 l -14 -176 q -5 -178 -11 -178 q 6 -178 1 -178 q 62 -156 43 -178 q 96 -69 81 -133 l 217 -69 z "},"Ř":{"ha":846,"x_min":113,"x_max":922,"o":"m 588 972 q 832 910 742 972 q 922 726 922 847 q 851 522 922 604 q 650 403 779 439 q 689 328 667 374 q 735 228 711 283 q 781 115 758 174 q 819 0 803 56 l 682 0 q 642 107 663 53 q 599 211 621 161 q 556 305 578 261 q 517 382 535 349 q 481 380 499 381 q 444 379 463 379 l 338 379 l 247 0 l 113 0 l 340 950 q 464 968 399 964 q 588 972 529 972 m 571 858 q 451 853 472 858 l 364 489 l 446 489 q 563 497 503 489 q 672 530 622 506 q 752 598 721 554 q 783 714 783 642 q 724 825 783 792 q 571 858 665 858 m 661 1171 l 817 1285 l 863 1222 l 638 1029 l 490 1235 l 551 1292 l 661 1171 z "},"ř":{"ha":517,"x_min":106,"x_max":726,"o":"m 519 738 q 557 736 536 738 q 598 731 578 735 q 635 724 618 728 q 660 717 651 721 l 622 604 q 558 621 594 615 q 489 626 522 626 q 431 622 460 626 q 382 611 403 618 l 235 0 l 106 0 l 272 694 q 392 726 328 714 q 519 738 456 738 m 525 954 l 681 1068 l 726 1006 l 501 813 l 354 1018 l 415 1075 l 525 954 z "},"Ś":{"ha":718,"x_min":51,"x_max":832,"o":"m 342 96 q 427 105 385 96 q 503 135 469 114 q 557 190 536 156 q 578 274 578 224 q 565 334 578 308 q 528 380 551 360 q 474 417 506 400 q 406 454 443 435 q 341 490 374 471 q 283 538 308 510 q 241 606 257 567 q 225 699 225 644 q 249 814 225 761 q 321 905 274 867 q 437 964 368 943 q 594 985 506 985 q 674 978 636 985 q 742 963 711 972 q 797 942 774 953 q 832 924 821 932 l 769 818 q 694 853 746 838 q 571 869 642 869 q 488 860 526 869 q 422 832 450 851 q 378 783 394 813 q 361 711 361 753 q 372 651 361 675 q 403 608 383 626 q 451 574 422 589 q 513 542 479 558 q 591 499 554 521 q 656 449 628 478 q 699 381 683 419 q 715 286 715 342 q 685 152 715 210 q 603 56 656 94 q 480 -1 551 18 q 325 -21 408 -21 q 224 -13 269 -21 q 145 6 179 -6 q 88 28 111 17 q 51 50 64 40 l 114 160 q 197 119 140 142 q 342 96 254 96 m 786 1200 l 551 1022 l 496 1090 l 715 1300 l 786 1200 z "},"ś":{"ha":572,"x_min":53,"x_max":679,"o":"m 286 90 q 345 96 315 90 q 398 114 375 101 q 435 148 421 126 q 450 201 450 169 q 443 238 450 222 q 421 268 436 254 q 383 295 406 282 q 328 325 360 308 q 269 356 296 340 q 223 392 243 371 q 192 441 203 413 q 181 510 181 469 q 256 677 181 614 q 474 740 331 740 q 591 727 540 740 q 661 703 642 714 l 613 597 q 550 621 593 608 q 454 633 507 633 q 401 628 428 633 q 353 609 375 622 q 319 574 332 596 q 306 522 306 553 q 335 460 306 485 q 422 410 364 436 q 487 376 458 393 q 535 337 515 358 q 566 286 556 315 q 576 217 576 257 q 554 114 576 158 q 492 40 532 69 q 399 -3 453 11 q 281 -18 344 -18 q 195 -12 233 -18 q 128 3 157 -6 q 81 20 100 11 q 53 35 63 29 l 103 140 q 130 126 113 135 q 172 110 147 118 q 225 96 196 101 q 286 90 254 90 m 679 983 l 444 806 l 389 874 l 608 1083 l 679 983 z "},"Ŝ":{"ha":718,"x_min":51,"x_max":832,"o":"m 342 96 q 427 105 385 96 q 503 135 469 114 q 557 190 536 156 q 578 274 578 224 q 565 334 578 308 q 528 380 551 360 q 474 417 506 400 q 406 454 443 435 q 341 490 374 471 q 283 538 308 510 q 241 606 257 567 q 225 699 225 644 q 249 814 225 761 q 321 905 274 867 q 437 964 368 943 q 594 985 506 985 q 674 978 636 985 q 742 963 711 972 q 797 942 774 953 q 832 924 821 932 l 769 818 q 694 853 746 838 q 571 869 642 869 q 488 860 526 869 q 422 832 450 851 q 378 783 394 813 q 361 711 361 753 q 372 651 361 675 q 403 608 383 626 q 451 574 422 589 q 513 542 479 558 q 591 499 554 521 q 656 449 628 478 q 699 381 683 419 q 715 286 715 342 q 685 152 715 210 q 603 56 656 94 q 480 -1 551 18 q 325 -21 408 -21 q 224 -13 269 -21 q 145 6 179 -6 q 88 28 111 17 q 51 50 64 40 l 114 160 q 197 119 140 142 q 342 96 254 96 m 626 1143 l 471 1029 l 425 1092 l 650 1285 l 797 1079 l 736 1022 l 626 1143 z "},"ŝ":{"ha":572,"x_min":53,"x_max":689,"o":"m 286 90 q 345 96 315 90 q 398 114 375 101 q 435 148 421 126 q 450 201 450 169 q 443 238 450 222 q 421 268 436 254 q 383 295 406 282 q 328 325 360 308 q 269 356 296 340 q 223 392 243 371 q 192 441 203 413 q 181 510 181 469 q 256 677 181 614 q 474 740 331 740 q 591 727 540 740 q 661 703 642 714 l 613 597 q 550 621 593 608 q 454 633 507 633 q 401 628 428 633 q 353 609 375 622 q 319 574 332 596 q 306 522 306 553 q 335 460 306 485 q 422 410 364 436 q 487 376 458 393 q 535 337 515 358 q 566 286 556 315 q 576 217 576 257 q 554 114 576 158 q 492 40 532 69 q 399 -3 453 11 q 281 -18 344 -18 q 195 -12 233 -18 q 128 3 157 -6 q 81 20 100 11 q 53 35 63 29 l 103 140 q 130 126 113 135 q 172 110 147 118 q 225 96 196 101 q 286 90 254 90 m 518 926 l 363 813 l 317 875 l 542 1068 l 689 863 l 628 806 l 518 926 z "},"Ş":{"ha":718,"x_min":51,"x_max":832,"o":"m 356 -53 q 397 -86 383 -68 q 411 -136 411 -104 q 368 -231 411 -199 q 250 -262 325 -262 q 183 -256 210 -262 q 138 -242 156 -250 l 169 -165 q 199 -176 181 -171 q 243 -181 217 -181 q 282 -173 267 -181 q 297 -146 297 -165 q 286 -121 297 -129 q 249 -100 275 -112 l 240 -96 q 292 -19 258 -61 q 135 8 194 -15 q 51 50 75 32 l 114 160 q 197 119 140 142 q 342 96 254 96 q 427 105 385 96 q 503 135 469 114 q 557 190 536 156 q 578 274 578 224 q 565 334 578 308 q 528 380 551 360 q 474 417 506 400 q 406 454 443 435 q 341 490 374 471 q 283 538 308 510 q 241 606 257 567 q 225 699 225 644 q 249 814 225 761 q 321 905 274 867 q 437 964 368 943 q 594 985 506 985 q 674 978 636 985 q 742 963 711 972 q 797 942 774 953 q 832 924 821 932 l 769 818 q 694 853 746 838 q 571 869 642 869 q 488 860 526 869 q 422 832 450 851 q 378 783 394 813 q 361 711 361 753 q 372 651 361 675 q 403 608 383 626 q 451 574 422 589 q 513 542 479 558 q 591 499 554 521 q 656 449 628 478 q 699 381 683 419 q 715 286 715 342 q 690 163 715 217 q 620 70 665 108 q 513 10 575 32 q 379 -18 451 -12 q 367 -36 372 -28 q 356 -53 361 -44 z "},"ş":{"ha":572,"x_min":53,"x_max":661,"o":"m 299 -53 q 340 -86 326 -68 q 354 -136 354 -104 q 311 -231 354 -199 q 193 -262 268 -262 q 126 -256 153 -262 q 81 -242 99 -250 l 113 -165 q 142 -176 124 -171 q 186 -181 160 -181 q 225 -173 210 -181 q 240 -146 240 -165 q 229 -121 240 -129 q 192 -100 218 -112 l 183 -96 q 207 -58 192 -81 q 236 -15 222 -35 q 115 7 161 -10 q 53 35 68 24 l 103 140 q 130 126 113 135 q 172 110 147 118 q 225 96 196 101 q 286 90 254 90 q 345 96 315 90 q 398 114 375 101 q 435 148 421 126 q 450 201 450 169 q 443 238 450 222 q 421 268 436 254 q 383 295 406 282 q 328 325 360 308 q 269 356 296 340 q 223 392 243 371 q 192 441 203 413 q 181 510 181 469 q 256 677 181 614 q 474 740 331 740 q 591 727 540 740 q 661 703 642 714 l 613 597 q 550 621 593 608 q 454 633 507 633 q 401 628 428 633 q 353 609 375 622 q 319 574 332 596 q 306 522 306 553 q 335 460 306 485 q 422 410 364 436 q 487 376 458 393 q 535 337 515 358 q 566 286 556 315 q 576 217 576 257 q 558 122 576 164 q 506 51 539 81 q 426 5 472 22 q 324 -17 379 -12 q 299 -53 308 -36 z "},"Ţ":{"ha":771,"x_min":179,"x_max":971,"o":"m 971 963 l 944 850 l 654 850 l 450 0 l 435 0 q 414 -28 424 -14 q 397 -53 404 -42 q 439 -86 425 -68 q 453 -136 453 -104 q 410 -231 453 -199 q 292 -262 367 -262 q 224 -256 251 -262 q 179 -242 197 -250 l 211 -165 q 240 -176 222 -171 q 285 -181 258 -181 q 324 -173 308 -181 q 339 -146 339 -165 q 328 -121 339 -129 q 290 -100 317 -112 l 282 -96 q 312 -49 293 -76 q 346 0 331 -21 l 315 0 l 519 850 l 229 850 l 256 963 l 971 963 z "},"ţ":{"ha":540,"x_min":138,"x_max":646,"o":"m 379 -18 q 367 -36 372 -28 q 356 -53 361 -44 q 397 -86 383 -68 q 411 -136 411 -104 q 368 -231 411 -199 q 250 -262 325 -262 q 183 -256 210 -262 q 138 -242 156 -250 l 169 -165 q 199 -176 181 -171 q 243 -181 217 -181 q 282 -173 267 -181 q 297 -146 297 -165 q 286 -121 297 -129 q 249 -100 275 -112 l 240 -96 q 263 -56 249 -79 q 293 -14 278 -33 q 151 160 151 8 q 171 306 151 217 l 319 924 l 454 946 l 400 722 l 646 722 l 619 614 l 374 614 l 297 294 q 281 181 281 229 q 306 115 281 135 q 389 94 331 94 q 468 108 429 94 q 528 132 507 121 l 538 22 q 476 -2 518 11 q 379 -18 433 -15 z "},"Ť":{"ha":771,"x_min":229,"x_max":971,"o":"m 971 963 l 944 850 l 654 850 l 450 0 l 315 0 l 519 850 l 229 850 l 256 963 l 971 963 m 653 1171 l 808 1285 l 854 1222 l 629 1029 l 482 1235 l 543 1292 l 653 1171 z "},"ť":{"ha":540,"x_min":151,"x_max":710,"o":"m 353 -19 q 200 26 249 -19 q 151 160 151 72 q 171 306 151 217 l 319 924 l 454 946 l 400 722 l 646 722 l 619 614 l 374 614 l 297 294 q 281 181 281 229 q 306 115 281 135 q 389 94 331 94 q 468 108 429 94 q 528 132 507 121 l 538 22 q 467 -5 517 10 q 353 -19 417 -19 m 710 1078 l 607 808 l 517 808 l 582 1078 l 710 1078 z "},"Ŧ":{"ha":771,"x_min":229,"x_max":971,"o":"m 971 963 l 944 850 l 654 850 l 581 546 l 756 546 l 731 442 l 556 442 l 450 0 l 315 0 l 421 442 l 250 442 l 275 546 l 446 546 l 519 850 l 229 850 l 256 963 l 971 963 z "},"ŧ":{"ha":540,"x_min":151,"x_max":646,"o":"m 353 -19 q 200 26 249 -19 q 151 160 151 72 q 171 306 151 217 l 319 924 l 454 946 l 400 722 l 646 722 l 619 614 l 374 614 l 328 425 l 574 425 l 550 328 l 306 328 l 297 294 q 281 181 281 229 q 306 115 281 135 q 389 94 331 94 q 468 108 429 94 q 528 132 507 121 l 538 22 q 467 -5 517 10 q 353 -19 417 -19 z "},"Ũ":{"ha":925,"x_min":183,"x_max":1043,"o":"m 464 -21 q 339 1 392 -21 q 251 59 286 22 q 200 147 217 96 q 183 256 183 197 q 189 324 183 286 q 201 393 194 361 l 338 963 l 472 963 l 333 385 q 322 326 326 358 q 318 267 318 294 q 326 200 318 231 q 355 147 335 169 q 407 110 375 124 q 485 97 439 97 q 668 163 603 97 q 767 374 733 229 l 908 963 l 1043 963 l 899 358 q 853 210 879 279 q 781 90 828 140 q 658 9 733 39 q 464 -21 582 -21 m 749 1199 q 786 1181 769 1188 q 819 1174 803 1174 q 868 1195 849 1174 q 903 1240 888 1217 l 968 1200 q 902 1110 940 1142 q 801 1079 864 1079 q 752 1089 774 1079 q 711 1110 731 1099 q 674 1128 690 1121 q 640 1135 657 1135 q 592 1113 611 1135 q 557 1068 572 1092 l 492 1108 q 558 1198 519 1167 q 658 1229 596 1229 q 708 1219 686 1229 q 749 1199 729 1210 z "},"ũ":{"ha":764,"x_min":153,"x_max":835,"o":"m 369 -18 q 267 0 308 -18 q 201 49 226 18 q 164 121 175 79 q 153 210 153 163 q 159 281 153 246 q 174 353 165 317 l 263 722 l 392 722 l 310 381 q 292 306 303 349 q 281 219 281 263 q 285 172 281 194 q 303 131 290 149 q 339 103 317 114 q 394 93 361 93 q 499 119 454 93 q 575 179 544 144 q 579 225 576 201 q 589 276 582 249 l 696 722 l 825 722 l 715 265 q 703 203 708 233 q 699 142 699 174 q 704 78 699 110 q 724 8 710 46 l 610 -8 q 596 26 603 7 q 585 68 589 46 q 549 39 569 54 q 501 11 528 24 q 441 -10 474 -1 q 369 -18 408 -18 m 615 982 q 653 964 636 971 q 686 957 669 957 q 735 978 715 957 q 769 1024 754 1000 l 835 983 q 769 894 807 925 q 668 863 731 863 q 619 872 640 863 q 578 893 597 882 q 540 911 557 904 q 507 918 524 918 q 458 897 478 918 q 424 851 439 875 l 358 892 q 424 981 386 950 q 525 1013 463 1013 q 574 1003 553 1013 q 615 982 596 993 z "},"Ū":{"ha":925,"x_min":183,"x_max":1043,"o":"m 464 -21 q 339 1 392 -21 q 251 59 286 22 q 200 147 217 96 q 183 256 183 197 q 189 324 183 286 q 201 393 194 361 l 338 963 l 472 963 l 333 385 q 322 326 326 358 q 318 267 318 294 q 326 200 318 231 q 355 147 335 169 q 407 110 375 124 q 485 97 439 97 q 668 163 603 97 q 767 374 733 229 l 908 963 l 1043 963 l 899 358 q 853 210 879 279 q 781 90 828 140 q 658 9 733 39 q 464 -21 582 -21 m 547 1204 l 936 1204 l 913 1104 l 524 1104 l 547 1204 z "},"ū":{"ha":764,"x_min":153,"x_max":825,"o":"m 369 -18 q 267 0 308 -18 q 201 49 226 18 q 164 121 175 79 q 153 210 153 163 q 159 281 153 246 q 174 353 165 317 l 263 722 l 392 722 l 310 381 q 292 306 303 349 q 281 219 281 263 q 285 172 281 194 q 303 131 290 149 q 339 103 317 114 q 394 93 361 93 q 499 119 454 93 q 575 179 544 144 q 579 225 576 201 q 589 276 582 249 l 696 722 l 825 722 l 715 265 q 703 203 708 233 q 699 142 699 174 q 704 78 699 110 q 724 8 710 46 l 610 -8 q 596 26 603 7 q 585 68 589 46 q 549 39 569 54 q 501 11 528 24 q 441 -10 474 -1 q 369 -18 408 -18 m 414 988 l 803 988 l 779 888 l 390 888 l 414 988 z "},"Ŭ":{"ha":925,"x_min":183,"x_max":1043,"o":"m 464 -21 q 339 1 392 -21 q 251 59 286 22 q 200 147 217 96 q 183 256 183 197 q 189 324 183 286 q 201 393 194 361 l 338 963 l 472 963 l 333 385 q 322 326 326 358 q 318 267 318 294 q 326 200 318 231 q 355 147 335 169 q 407 110 375 124 q 485 97 439 97 q 668 163 603 97 q 767 374 733 229 l 908 963 l 1043 963 l 899 358 q 853 210 879 279 q 781 90 828 140 q 658 9 733 39 q 464 -21 582 -21 m 725 1064 q 653 1076 683 1064 q 603 1110 622 1089 q 576 1158 585 1131 q 567 1214 567 1185 q 571 1257 567 1236 l 651 1257 q 650 1240 650 1253 q 672 1177 650 1200 q 736 1154 694 1154 q 786 1165 765 1154 q 821 1190 807 1175 q 842 1224 835 1206 q 854 1257 850 1242 l 940 1257 q 871 1115 928 1165 q 725 1064 814 1064 z "},"ŭ":{"ha":764,"x_min":153,"x_max":825,"o":"m 369 -18 q 267 0 308 -18 q 201 49 226 18 q 164 121 175 79 q 153 210 153 163 q 159 281 153 246 q 174 353 165 317 l 263 722 l 392 722 l 310 381 q 292 306 303 349 q 281 219 281 263 q 285 172 281 194 q 303 131 290 149 q 339 103 317 114 q 394 93 361 93 q 499 119 454 93 q 575 179 544 144 q 579 225 576 201 q 589 276 582 249 l 696 722 l 825 722 l 715 265 q 703 203 708 233 q 699 142 699 174 q 704 78 699 110 q 724 8 710 46 l 610 -8 q 596 26 603 7 q 585 68 589 46 q 549 39 569 54 q 501 11 528 24 q 441 -10 474 -1 q 369 -18 408 -18 m 590 847 q 518 860 549 847 q 469 893 488 872 q 441 941 450 914 q 432 997 432 968 q 436 1040 432 1019 l 517 1040 q 515 1024 515 1036 q 538 960 515 983 q 601 938 560 938 q 651 948 631 938 q 686 974 672 958 q 708 1007 700 989 q 719 1040 715 1025 l 806 1040 q 736 898 793 949 q 590 847 679 847 z "},"Ů":{"ha":925,"x_min":183,"x_max":1043,"o":"m 464 -21 q 339 1 392 -21 q 251 59 286 22 q 200 147 217 96 q 183 256 183 197 q 189 324 183 286 q 201 393 194 361 l 338 963 l 472 963 l 333 385 q 322 326 326 358 q 318 267 318 294 q 326 200 318 231 q 355 147 335 169 q 407 110 375 124 q 485 97 439 97 q 668 163 603 97 q 767 374 733 229 l 908 963 l 1043 963 l 899 358 q 853 210 879 279 q 781 90 828 140 q 658 9 733 39 q 464 -21 582 -21 m 856 1157 q 844 1098 856 1124 q 813 1053 832 1072 q 767 1025 793 1035 q 713 1015 742 1015 q 658 1025 683 1015 q 613 1053 632 1035 q 581 1098 593 1072 q 569 1157 569 1124 q 581 1216 569 1190 q 613 1260 593 1242 q 658 1289 632 1279 q 713 1299 683 1299 q 767 1289 742 1299 q 813 1260 793 1279 q 844 1216 832 1242 q 856 1157 856 1190 m 786 1157 q 765 1213 786 1193 q 713 1233 743 1233 q 660 1213 682 1233 q 639 1157 639 1193 q 660 1101 639 1121 q 713 1081 682 1081 q 765 1101 743 1081 q 786 1157 786 1121 z "},"ů":{"ha":764,"x_min":153,"x_max":825,"o":"m 369 -18 q 267 0 308 -18 q 201 49 226 18 q 164 121 175 79 q 153 210 153 163 q 159 281 153 246 q 174 353 165 317 l 263 722 l 392 722 l 310 381 q 292 306 303 349 q 281 219 281 263 q 285 172 281 194 q 303 131 290 149 q 339 103 317 114 q 394 93 361 93 q 499 119 454 93 q 575 179 544 144 q 579 225 576 201 q 589 276 582 249 l 696 722 l 825 722 l 715 265 q 703 203 708 233 q 699 142 699 174 q 704 78 699 110 q 724 8 710 46 l 610 -8 q 596 26 603 7 q 585 68 589 46 q 549 39 569 54 q 501 11 528 24 q 441 -10 474 -1 q 369 -18 408 -18 m 719 940 q 708 881 719 907 q 676 837 696 856 q 631 808 657 818 q 576 799 606 799 q 522 808 547 799 q 476 837 496 818 q 445 881 457 856 q 433 940 433 907 q 445 999 433 974 q 476 1044 457 1025 q 522 1072 496 1063 q 576 1082 547 1082 q 631 1072 606 1082 q 676 1044 657 1063 q 708 999 696 1025 q 719 940 719 974 m 650 940 q 628 997 650 976 q 576 1017 607 1017 q 524 997 546 1017 q 503 940 503 976 q 524 884 503 904 q 576 864 546 864 q 628 884 607 864 q 650 940 650 904 z "},"Ű":{"ha":925,"x_min":183,"x_max":1043,"o":"m 464 -21 q 339 1 392 -21 q 251 59 286 22 q 200 147 217 96 q 183 256 183 197 q 189 324 183 286 q 201 393 194 361 l 338 963 l 472 963 l 333 385 q 322 326 326 358 q 318 267 318 294 q 326 200 318 231 q 355 147 335 169 q 407 110 375 124 q 485 97 439 97 q 668 163 603 97 q 767 374 733 229 l 908 963 l 1043 963 l 899 358 q 853 210 879 279 q 781 90 828 140 q 658 9 733 39 q 464 -21 582 -21 m 807 1204 l 597 1025 l 543 1088 l 736 1294 l 807 1204 m 1040 1201 l 831 1025 l 776 1085 l 969 1292 l 1040 1201 z "},"ű":{"ha":764,"x_min":153,"x_max":906,"o":"m 369 -18 q 267 0 308 -18 q 201 49 226 18 q 164 121 175 79 q 153 210 153 163 q 159 281 153 246 q 174 353 165 317 l 263 722 l 392 722 l 310 381 q 292 306 303 349 q 281 219 281 263 q 285 172 281 194 q 303 131 290 149 q 339 103 317 114 q 394 93 361 93 q 499 119 454 93 q 575 179 544 144 q 579 225 576 201 q 589 276 582 249 l 696 722 l 825 722 l 715 265 q 703 203 708 233 q 699 142 699 174 q 704 78 699 110 q 724 8 710 46 l 610 -8 q 596 26 603 7 q 585 68 589 46 q 549 39 569 54 q 501 11 528 24 q 441 -10 474 -1 q 369 -18 408 -18 m 672 988 l 463 808 l 408 871 l 601 1078 l 672 988 m 906 985 l 696 808 l 642 868 l 835 1075 l 906 985 z "},"Ų":{"ha":925,"x_min":183,"x_max":1043,"o":"m 529 -260 q 422 -235 453 -260 q 392 -172 392 -211 q 417 -100 392 -135 q 475 -37 442 -65 q 488 -27 481 -33 q 501 -18 496 -21 q 483 -19 493 -19 q 464 -19 472 -19 q 339 1 392 -19 q 251 60 286 22 q 200 147 217 97 q 183 256 183 197 q 189 324 183 286 q 201 393 194 361 l 338 963 l 472 963 l 333 385 q 322 326 326 358 q 318 267 318 294 q 326 200 318 231 q 355 147 335 169 q 407 110 375 124 q 485 97 439 97 q 668 163 603 97 q 767 374 733 229 l 908 963 l 1043 963 l 899 358 q 868 250 885 301 q 827 155 851 199 q 768 77 803 111 q 683 19 733 43 q 631 -12 658 8 q 578 -53 603 -32 q 537 -91 560 -68 q 514 -140 514 -114 q 526 -162 514 -154 q 565 -171 538 -171 q 594 -168 579 -171 q 621 -161 608 -165 l 610 -244 q 529 -260 576 -260 z "},"ų":{"ha":764,"x_min":153,"x_max":825,"o":"m 699 143 q 704 78 699 111 q 728 0 710 44 q 697 -24 711 -12 q 667 -50 683 -36 q 647 -67 658 -57 q 626 -88 636 -76 q 608 -113 615 -100 q 601 -140 601 -126 q 613 -162 601 -154 q 653 -171 625 -171 q 681 -168 667 -171 q 708 -161 696 -165 l 697 -244 q 617 -260 664 -260 q 510 -235 540 -260 q 479 -172 479 -211 q 504 -100 479 -135 q 563 -37 529 -65 q 586 -19 574 -28 q 608 -3 599 -10 q 585 68 593 31 q 549 39 569 54 q 501 11 528 24 q 441 -10 474 -1 q 369 -18 408 -18 q 267 0 308 -18 q 201 49 226 18 q 164 121 175 79 q 153 210 153 163 q 159 281 153 246 q 174 353 165 317 l 263 722 l 392 722 l 310 381 q 292 306 303 349 q 281 219 281 263 q 285 172 281 194 q 303 131 290 149 q 339 103 317 114 q 394 93 361 93 q 499 119 454 93 q 575 179 544 144 q 579 225 576 201 q 589 276 582 249 l 696 722 l 825 722 l 715 265 q 703 204 708 233 q 699 143 699 175 z "},"Ŵ":{"ha":1272,"x_min":246,"x_max":1453,"o":"m 885 846 q 916 485 896 660 q 956 172 936 310 q 1042 343 997 250 q 1133 538 1088 436 q 1223 748 1178 640 q 1310 963 1268 856 l 1453 963 q 1231 450 1342 688 q 999 0 1121 213 l 863 0 q 817 303 839 147 q 781 644 794 460 q 595 316 686 472 q 401 0 504 160 l 265 0 q 250 225 254 113 q 246 458 246 338 q 250 702 246 579 q 263 963 254 825 l 396 963 q 381 674 386 817 q 375 385 375 532 q 379 172 375 278 q 570 490 475 319 q 761 846 665 661 l 885 846 m 899 1143 l 743 1029 l 697 1092 l 922 1285 l 1069 1079 l 1008 1022 l 899 1143 z "},"ŵ":{"ha":1093,"x_min":188,"x_max":1224,"o":"m 796 150 q 874 263 831 193 q 958 413 917 333 q 1036 574 1000 493 q 1092 722 1072 656 l 1224 722 q 1146 525 1193 626 q 1044 328 1099 424 q 930 149 989 233 q 817 0 871 64 l 701 0 q 674 243 686 121 q 660 492 663 365 q 597 363 632 429 q 524 231 563 296 q 446 107 485 167 q 371 0 407 47 l 256 0 q 208 326 226 143 q 188 722 190 508 l 317 722 q 321 581 318 657 q 328 427 324 504 q 338 278 332 350 q 351 150 343 206 q 437 282 394 210 q 517 429 479 354 q 588 579 556 504 q 644 722 621 654 l 761 722 q 763 588 761 660 q 770 442 765 517 q 781 292 775 367 q 796 150 788 218 m 754 926 l 599 813 l 553 875 l 778 1068 l 925 863 l 864 806 l 754 926 z "},"Ŷ":{"ha":794,"x_min":228,"x_max":1011,"o":"m 322 0 l 414 386 q 313 678 360 532 q 228 963 267 825 l 374 963 q 433 733 400 850 q 506 508 465 617 q 691 733 597 615 q 857 963 785 851 l 1011 963 q 793 678 907 821 q 549 386 679 536 l 457 0 l 322 0 m 660 1143 l 504 1029 l 458 1092 l 683 1285 l 831 1079 l 769 1022 l 660 1143 z "},"ŷ":{"ha":664,"x_min":-78,"x_max":783,"o":"m 390 117 q 486 290 443 200 q 562 461 529 379 q 617 612 594 543 q 649 722 639 681 l 783 722 q 740 591 768 669 q 673 422 713 513 q 584 235 633 331 q 476 53 535 140 q 388 -70 432 -12 q 292 -170 343 -128 q 181 -237 242 -212 q 43 -261 119 -261 q -29 -251 4 -261 q -78 -231 -62 -242 l -33 -125 q 4 -144 -19 -136 q 57 -151 28 -151 q 194 -112 138 -151 q 300 -10 250 -74 q 216 344 249 158 q 176 722 183 531 l 308 722 q 315 585 310 660 q 331 431 321 511 q 356 271 342 351 q 390 117 371 190 m 525 926 l 369 813 l 324 875 l 549 1068 l 696 863 l 635 806 l 525 926 z "},"Ź":{"ha":779,"x_min":49,"x_max":950,"o":"m 925 856 q 833 769 886 821 q 719 656 781 718 q 594 526 658 594 q 465 385 529 457 q 343 244 401 314 q 238 113 285 175 l 757 113 l 731 0 l 49 0 l 69 90 q 163 209 110 144 q 275 344 215 274 q 399 485 335 414 q 525 622 463 556 q 646 747 588 689 q 753 850 704 806 l 276 850 l 303 963 l 950 963 l 925 856 m 822 1200 l 588 1022 l 532 1090 l 751 1300 l 822 1200 z "},"ź":{"ha":631,"x_min":46,"x_max":750,"o":"m 728 629 q 619 527 688 593 q 475 385 550 461 q 331 235 400 310 q 222 108 263 161 l 610 108 l 585 0 l 46 0 l 65 83 q 171 219 107 144 q 303 367 235 293 q 439 506 372 440 q 556 614 506 571 l 210 614 l 235 722 l 750 722 l 728 629 m 688 983 l 453 806 l 397 874 l 617 1083 l 688 983 z "},"Ż":{"ha":779,"x_min":49,"x_max":950,"o":"m 925 856 q 833 769 886 821 q 719 656 781 718 q 594 526 658 594 q 465 385 529 457 q 343 244 401 314 q 238 113 285 175 l 757 113 l 731 0 l 49 0 l 69 90 q 163 209 110 144 q 275 344 215 274 q 399 485 335 414 q 525 622 463 556 q 646 747 588 689 q 753 850 704 806 l 276 850 l 303 963 l 950 963 l 925 856 m 656 1069 q 602 1089 624 1069 q 581 1143 581 1108 q 608 1213 581 1188 q 671 1239 636 1239 q 725 1219 703 1239 q 747 1163 747 1199 q 718 1095 747 1121 q 656 1069 689 1069 z "},"ż":{"ha":631,"x_min":46,"x_max":750,"o":"m 728 629 q 619 527 688 593 q 475 385 550 461 q 331 235 400 310 q 222 108 263 161 l 610 108 l 585 0 l 46 0 l 65 83 q 171 219 107 144 q 303 367 235 293 q 439 506 372 440 q 556 614 506 571 l 210 614 l 235 722 l 750 722 l 728 629 m 521 853 q 467 872 489 853 q 446 926 446 892 q 474 997 446 971 q 536 1022 501 1022 q 590 1002 568 1022 q 613 946 613 982 q 583 878 613 904 q 521 853 554 853 z "},"Ž":{"ha":779,"x_min":49,"x_max":950,"o":"m 925 856 q 833 769 886 821 q 719 656 781 718 q 594 526 658 594 q 465 385 529 457 q 343 244 401 314 q 238 113 285 175 l 757 113 l 731 0 l 49 0 l 69 90 q 163 209 110 144 q 275 344 215 274 q 399 485 335 414 q 525 622 463 556 q 646 747 588 689 q 753 850 704 806 l 276 850 l 303 963 l 950 963 l 925 856 m 658 1171 l 814 1285 l 860 1222 l 635 1029 l 488 1235 l 549 1292 l 658 1171 z "},"ž":{"ha":631,"x_min":46,"x_max":750,"o":"m 728 629 q 619 527 688 593 q 475 385 550 461 q 331 235 400 310 q 222 108 263 161 l 610 108 l 585 0 l 46 0 l 65 83 q 171 219 107 144 q 303 367 235 293 q 439 506 372 440 q 556 614 506 571 l 210 614 l 235 722 l 750 722 l 728 629 m 524 954 l 679 1068 l 725 1006 l 500 813 l 353 1018 l 414 1075 l 524 954 z "},"ſ":{"ha":396,"x_min":-24,"x_max":783,"o":"m 294 788 q 337 911 311 857 q 402 1002 363 965 q 496 1058 442 1039 q 625 1078 550 1078 q 717 1068 674 1078 q 783 1047 761 1058 l 732 944 q 694 958 721 950 q 614 967 667 967 q 536 953 568 967 q 482 917 504 940 q 447 860 460 893 q 424 785 433 826 l 272 156 q 243 29 256 85 q 213 -75 231 -26 q 167 -169 196 -124 q 90 -262 139 -214 l -24 -246 q 42 -154 18 -192 q 81 -78 65 -117 q 109 12 97 -39 q 140 143 121 63 l 294 788 z "},"Ș":{"ha":718,"x_min":51,"x_max":832,"o":"m 342 96 q 427 105 385 96 q 503 135 469 114 q 557 190 536 156 q 578 274 578 224 q 565 334 578 308 q 528 380 551 360 q 474 417 506 400 q 406 454 443 435 q 341 490 374 471 q 283 538 308 510 q 241 606 257 567 q 225 699 225 644 q 249 814 225 761 q 321 905 274 867 q 437 964 368 943 q 594 985 506 985 q 674 978 636 985 q 742 963 711 972 q 797 942 774 953 q 832 924 821 932 l 769 818 q 694 853 746 838 q 571 869 642 869 q 488 860 526 869 q 422 832 450 851 q 378 783 394 813 q 361 711 361 753 q 372 651 361 675 q 403 608 383 626 q 451 574 422 589 q 513 542 479 558 q 591 499 554 521 q 656 449 628 478 q 699 381 683 419 q 715 286 715 342 q 685 152 715 210 q 603 56 656 94 q 480 -1 551 18 q 325 -21 408 -21 q 224 -13 269 -21 q 145 6 179 -6 q 88 28 111 17 q 51 50 64 40 l 114 160 q 197 119 140 142 q 342 96 254 96 m 396 -69 q 376 -144 389 -110 q 341 -205 364 -179 q 285 -245 318 -231 q 203 -260 251 -260 q 172 -258 188 -260 q 146 -253 156 -256 l 165 -176 q 174 -178 168 -178 q 185 -178 181 -178 q 241 -156 222 -178 q 275 -69 260 -133 l 396 -69 z "},"ș":{"ha":572,"x_min":53,"x_max":661,"o":"m 286 90 q 345 96 315 90 q 398 114 375 101 q 435 148 421 126 q 450 201 450 169 q 443 238 450 222 q 421 268 436 254 q 383 295 406 282 q 328 325 360 308 q 269 356 296 340 q 223 392 243 371 q 192 441 203 413 q 181 510 181 469 q 256 677 181 614 q 474 740 331 740 q 591 727 540 740 q 661 703 642 714 l 613 597 q 550 621 593 608 q 454 633 507 633 q 401 628 428 633 q 353 609 375 622 q 319 574 332 596 q 306 522 306 553 q 335 460 306 485 q 422 410 364 436 q 487 376 458 393 q 535 337 515 358 q 566 286 556 315 q 576 217 576 257 q 554 114 576 158 q 492 40 532 69 q 399 -3 453 11 q 281 -18 344 -18 q 195 -12 233 -18 q 128 3 157 -6 q 81 20 100 11 q 53 35 63 29 l 103 140 q 130 126 113 135 q 172 110 147 118 q 225 96 196 101 q 286 90 254 90 m 340 -69 q 321 -144 333 -110 q 285 -205 308 -179 q 229 -245 263 -231 q 147 -260 196 -260 q 116 -258 132 -260 q 90 -253 100 -256 l 110 -176 q 119 -178 113 -178 q 129 -178 125 -178 q 185 -156 167 -178 q 219 -69 204 -133 l 340 -69 z "},"Ț":{"ha":771,"x_min":178,"x_max":971,"o":"m 971 963 l 944 850 l 654 850 l 450 0 l 315 0 l 519 850 l 229 850 l 256 963 l 971 963 m 428 -69 q 408 -144 421 -110 q 373 -205 396 -179 q 317 -245 350 -231 q 235 -260 283 -260 q 203 -258 219 -260 q 178 -253 188 -256 l 197 -176 q 206 -178 200 -178 q 217 -178 213 -178 q 273 -156 254 -178 q 307 -69 292 -133 l 428 -69 z "},"ț":{"ha":540,"x_min":124,"x_max":646,"o":"m 353 -19 q 200 26 249 -19 q 151 160 151 72 q 171 306 151 217 l 319 924 l 454 946 l 400 722 l 646 722 l 619 614 l 374 614 l 297 294 q 281 181 281 229 q 306 115 281 135 q 389 94 331 94 q 468 108 429 94 q 528 132 507 121 l 538 22 q 467 -5 517 10 q 353 -19 417 -19 m 374 -69 q 354 -144 367 -110 q 319 -205 342 -179 q 263 -245 296 -231 q 181 -260 229 -260 q 149 -258 165 -260 q 124 -253 133 -256 l 143 -176 q 152 -178 146 -178 q 163 -178 158 -178 q 219 -156 200 -178 q 253 -69 238 -133 l 374 -69 z "},"ȷ":{"ha":346,"x_min":-154,"x_max":408,"o":"m 242 28 q 199 -105 222 -50 q 142 -194 176 -160 q 61 -245 108 -229 q -54 -261 14 -261 q -108 -254 -78 -261 q -154 -236 -137 -247 l -125 -129 q -86 -144 -110 -139 q -35 -150 -62 -150 q 60 -101 28 -150 q 113 26 93 -53 l 279 722 l 408 722 l 242 28 z "},"ʼ":{"ha":525,"x_min":368,"x_max":600,"o":"m 600 1078 q 539 917 581 990 q 450 796 497 843 l 368 826 q 433 952 410 893 q 467 1078 457 1011 l 600 1078 z "},"ˇ":{"ha":522,"x_min":310,"x_max":682,"o":"m 481 954 l 636 1068 l 682 1006 l 457 813 l 310 1018 l 371 1075 l 481 954 z "},"ˉ":{"ha":522,"x_min":279,"x_max":692,"o":"m 303 988 l 692 988 l 668 888 l 279 888 l 303 988 z "},"˘":{"ha":522,"x_min":324,"x_max":697,"o":"m 482 847 q 410 860 440 847 q 360 893 379 872 q 333 941 342 914 q 324 997 324 968 q 328 1040 324 1019 l 408 1040 q 407 1024 407 1036 q 429 960 407 983 q 493 938 451 938 q 543 948 522 938 q 578 974 564 958 q 599 1007 592 989 q 611 1040 607 1025 l 697 1040 q 628 898 685 949 q 482 847 571 847 z "},"˙":{"ha":522,"x_min":371,"x_max":538,"o":"m 446 853 q 392 872 414 853 q 371 926 371 892 q 399 997 371 971 q 461 1022 426 1022 q 515 1002 493 1022 q 538 946 538 982 q 508 878 538 904 q 446 853 479 853 z "},"˚":{"ha":522,"x_min":314,"x_max":600,"o":"m 600 940 q 588 881 600 907 q 557 837 576 856 q 512 808 538 818 q 457 799 486 799 q 402 808 428 799 q 357 837 376 818 q 326 881 338 856 q 314 940 314 907 q 326 999 314 974 q 357 1044 338 1025 q 402 1072 376 1063 q 457 1082 428 1082 q 512 1072 486 1082 q 557 1044 538 1063 q 588 999 576 1025 q 600 940 600 974 m 531 940 q 509 997 531 976 q 457 1017 488 1017 q 405 997 426 1017 q 383 940 383 976 q 405 884 383 904 q 457 864 426 864 q 509 884 488 864 q 531 940 531 904 z "},"˛":{"ha":522,"x_min":65,"x_max":342,"o":"m 203 -260 q 96 -235 126 -260 q 65 -172 65 -211 q 90 -100 65 -135 q 149 -37 115 -65 q 186 -8 169 -19 q 214 11 203 4 l 342 11 q 301 -16 324 0 q 251 -54 278 -32 q 232 -70 243 -61 q 211 -90 221 -79 q 194 -114 201 -101 q 188 -140 188 -126 q 199 -162 188 -154 q 239 -171 211 -171 q 267 -168 253 -171 q 294 -161 282 -165 l 283 -244 q 203 -260 250 -260 z "},"˝":{"ha":522,"x_min":261,"x_max":758,"o":"m 525 988 l 315 808 l 261 871 l 454 1078 l 525 988 m 758 985 l 549 808 l 494 868 l 688 1075 l 758 985 z "},"Ẁ":{"ha":1272,"x_min":246,"x_max":1453,"o":"m 885 846 q 916 485 896 660 q 956 172 936 310 q 1042 343 997 250 q 1133 538 1088 436 q 1223 748 1178 640 q 1310 963 1268 856 l 1453 963 q 1231 450 1342 688 q 999 0 1121 213 l 863 0 q 817 303 839 147 q 781 644 794 460 q 595 316 686 472 q 401 0 504 160 l 265 0 q 250 225 254 113 q 246 458 246 338 q 250 702 246 579 q 263 963 254 825 l 396 963 q 381 674 386 817 q 375 385 375 532 q 379 172 375 278 q 570 490 475 319 q 761 846 665 661 l 885 846 m 819 1299 l 996 1076 l 928 1017 l 725 1219 l 819 1299 z "},"ẁ":{"ha":1093,"x_min":188,"x_max":1224,"o":"m 796 150 q 874 263 831 193 q 958 413 917 333 q 1036 574 1000 493 q 1092 722 1072 656 l 1224 722 q 1146 525 1193 626 q 1044 328 1099 424 q 930 149 989 233 q 817 0 871 64 l 701 0 q 674 243 686 121 q 660 492 663 365 q 597 363 632 429 q 524 231 563 296 q 446 107 485 167 q 371 0 407 47 l 256 0 q 208 326 226 143 q 188 722 190 508 l 317 722 q 321 581 318 657 q 328 427 324 504 q 338 278 332 350 q 351 150 343 206 q 437 282 394 210 q 517 429 479 354 q 588 579 556 504 q 644 722 621 654 l 761 722 q 763 588 761 660 q 770 442 765 517 q 781 292 775 367 q 796 150 788 218 m 676 1082 l 853 860 l 785 800 l 582 1003 l 676 1082 z "},"Ẃ":{"ha":1272,"x_min":246,"x_max":1453,"o":"m 885 846 q 916 485 896 660 q 956 172 936 310 q 1042 343 997 250 q 1133 538 1088 436 q 1223 748 1178 640 q 1310 963 1268 856 l 1453 963 q 1231 450 1342 688 q 999 0 1121 213 l 863 0 q 817 303 839 147 q 781 644 794 460 q 595 316 686 472 q 401 0 504 160 l 265 0 q 250 225 254 113 q 246 458 246 338 q 250 702 246 579 q 263 963 254 825 l 396 963 q 381 674 386 817 q 375 385 375 532 q 379 172 375 278 q 570 490 475 319 q 761 846 665 661 l 885 846 m 1058 1200 l 824 1022 l 768 1090 l 988 1300 l 1058 1200 z "},"ẃ":{"ha":1093,"x_min":188,"x_max":1224,"o":"m 796 150 q 874 263 831 193 q 958 413 917 333 q 1036 574 1000 493 q 1092 722 1072 656 l 1224 722 q 1146 525 1193 626 q 1044 328 1099 424 q 930 149 989 233 q 817 0 871 64 l 701 0 q 674 243 686 121 q 660 492 663 365 q 597 363 632 429 q 524 231 563 296 q 446 107 485 167 q 371 0 407 47 l 256 0 q 208 326 226 143 q 188 722 190 508 l 317 722 q 321 581 318 657 q 328 427 324 504 q 338 278 332 350 q 351 150 343 206 q 437 282 394 210 q 517 429 479 354 q 588 579 556 504 q 644 722 621 654 l 761 722 q 763 588 761 660 q 770 442 765 517 q 781 292 775 367 q 796 150 788 218 m 915 983 l 681 806 l 625 874 l 844 1083 l 915 983 z "},"Ẅ":{"ha":1272,"x_min":246,"x_max":1453,"o":"m 885 846 q 916 485 896 660 q 956 172 936 310 q 1042 343 997 250 q 1133 538 1088 436 q 1223 748 1178 640 q 1310 963 1268 856 l 1453 963 q 1231 450 1342 688 q 999 0 1121 213 l 863 0 q 817 303 839 147 q 781 644 794 460 q 595 316 686 472 q 401 0 504 160 l 265 0 q 250 225 254 113 q 246 458 246 338 q 250 702 246 579 q 263 963 254 825 l 396 963 q 381 674 386 817 q 375 385 375 532 q 379 172 375 278 q 570 490 475 319 q 761 846 665 661 l 885 846 m 761 1072 q 710 1092 731 1072 q 689 1143 689 1111 q 717 1210 689 1185 q 776 1236 744 1236 q 828 1216 807 1236 q 850 1163 850 1196 q 822 1097 850 1122 q 761 1072 793 1072 m 1025 1072 q 974 1092 994 1072 q 953 1143 953 1111 q 981 1210 953 1185 q 1040 1236 1008 1236 q 1092 1216 1071 1236 q 1114 1163 1114 1196 q 1085 1097 1114 1122 q 1025 1072 1057 1072 z "},"ẅ":{"ha":1093,"x_min":188,"x_max":1224,"o":"m 796 150 q 874 263 831 193 q 958 413 917 333 q 1036 574 1000 493 q 1092 722 1072 656 l 1224 722 q 1146 525 1193 626 q 1044 328 1099 424 q 930 149 989 233 q 817 0 871 64 l 701 0 q 674 243 686 121 q 660 492 663 365 q 597 363 632 429 q 524 231 563 296 q 446 107 485 167 q 371 0 407 47 l 256 0 q 208 326 226 143 q 188 722 190 508 l 317 722 q 321 581 318 657 q 328 427 324 504 q 338 278 332 350 q 351 150 343 206 q 437 282 394 210 q 517 429 479 354 q 588 579 556 504 q 644 722 621 654 l 761 722 q 763 588 761 660 q 770 442 765 517 q 781 292 775 367 q 796 150 788 218 m 617 856 q 565 875 586 856 q 544 926 544 894 q 572 994 544 968 q 632 1019 600 1019 q 684 999 663 1019 q 706 946 706 979 q 677 881 706 906 q 617 856 649 856 m 881 856 q 829 875 850 856 q 808 926 808 894 q 836 994 808 968 q 896 1019 864 1019 q 948 999 926 1019 q 969 946 969 979 q 941 881 969 906 q 881 856 913 856 z "},"Ỳ":{"ha":794,"x_min":228,"x_max":1011,"o":"m 322 0 l 414 386 q 313 678 360 532 q 228 963 267 825 l 374 963 q 433 733 400 850 q 506 508 465 617 q 691 733 597 615 q 857 963 785 851 l 1011 963 q 793 678 907 821 q 549 386 679 536 l 457 0 l 322 0 m 581 1299 l 757 1076 l 689 1017 l 486 1219 l 581 1299 z "},"ỳ":{"ha":664,"x_min":-78,"x_max":783,"o":"m 390 117 q 486 290 443 200 q 562 461 529 379 q 617 612 594 543 q 649 722 639 681 l 783 722 q 740 591 768 669 q 673 422 713 513 q 584 235 633 331 q 476 53 535 140 q 388 -70 432 -12 q 292 -170 343 -128 q 181 -237 242 -212 q 43 -261 119 -261 q -29 -251 4 -261 q -78 -231 -62 -242 l -33 -125 q 4 -144 -19 -136 q 57 -151 28 -151 q 194 -112 138 -151 q 300 -10 250 -74 q 216 344 249 158 q 176 722 183 531 l 308 722 q 315 585 310 660 q 331 431 321 511 q 356 271 342 351 q 390 117 371 190 m 447 1082 l 624 860 l 556 800 l 353 1003 l 447 1082 z "},"⁄":{"ha":206,"x_min":-232,"x_max":663,"o":"m -100 0 l -232 0 l 531 963 l 663 963 l -100 0 z "},"⁰":{"ha":499,"x_min":197,"x_max":638,"o":"m 368 426 q 243 471 289 426 q 197 611 197 515 q 213 733 197 668 q 262 855 229 799 q 345 948 294 911 q 467 985 396 985 q 592 940 546 985 q 638 800 638 896 q 622 678 638 743 q 573 556 606 613 q 490 463 540 500 q 368 426 439 426 m 371 511 q 447 542 415 511 q 499 618 479 574 q 529 712 519 663 q 539 797 539 761 q 523 872 539 844 q 464 900 507 900 q 388 869 419 900 q 335 793 356 838 q 306 699 315 749 q 296 614 296 650 q 312 539 296 567 q 371 511 328 511 z "},"⁴":{"ha":499,"x_min":179,"x_max":629,"o":"m 619 644 l 600 567 l 531 567 l 500 438 l 406 438 l 436 567 l 179 567 l 194 631 q 255 713 217 668 q 340 806 293 758 q 439 897 388 853 q 539 974 490 940 l 629 974 l 550 644 l 619 644 m 456 644 l 508 864 q 452 815 482 842 q 393 760 422 789 q 338 701 364 731 q 292 644 311 672 l 456 644 z "},"⁵":{"ha":499,"x_min":168,"x_max":653,"o":"m 379 771 q 475 752 436 764 q 538 722 514 740 q 573 676 563 703 q 583 614 583 649 q 513 474 583 522 q 331 426 443 426 q 235 438 275 426 q 168 464 196 449 l 206 542 q 263 521 229 531 q 333 511 297 511 q 392 515 364 511 q 440 531 419 519 q 473 560 461 542 q 485 608 485 579 q 437 676 485 653 q 264 704 389 699 q 310 838 288 768 q 353 974 333 907 l 653 974 l 632 888 l 419 888 q 401 828 411 863 q 379 771 390 794 z "},"⁶":{"ha":499,"x_min":207,"x_max":644,"o":"m 207 594 q 240 754 207 683 q 330 874 272 825 q 468 950 388 924 q 644 976 549 976 l 636 893 q 544 884 590 892 q 459 860 499 876 q 388 817 419 843 q 339 753 357 790 q 399 771 368 765 q 451 776 429 776 q 523 765 494 776 q 569 734 551 754 q 594 688 586 714 q 601 633 601 663 q 586 556 601 593 q 542 490 571 518 q 470 444 513 461 q 375 426 428 426 q 249 475 292 426 q 207 594 207 524 m 424 699 q 363 692 396 699 q 310 676 331 686 q 299 614 299 639 q 319 533 299 560 q 385 507 339 507 q 475 544 444 507 q 506 626 506 581 q 424 699 506 699 z "},"⁷":{"ha":499,"x_min":233,"x_max":682,"o":"m 233 438 q 286 559 253 496 q 360 683 319 622 q 447 795 401 743 q 539 885 493 847 l 263 885 l 285 974 l 682 974 l 664 897 q 582 819 628 868 q 490 708 536 769 q 405 576 444 646 q 343 438 365 507 l 233 438 z "},"⁸":{"ha":499,"x_min":189,"x_max":631,"o":"m 357 426 q 278 438 310 426 q 226 467 246 449 q 197 507 206 485 q 189 551 189 529 q 226 653 189 613 q 310 718 263 693 q 276 755 290 733 q 263 817 263 776 q 278 885 263 854 q 322 938 294 915 q 388 972 350 960 q 469 985 425 985 q 546 974 515 985 q 595 944 576 963 q 622 905 614 926 q 631 861 631 883 q 621 809 631 832 q 596 767 611 786 q 561 735 581 749 q 522 710 542 721 q 567 669 550 694 q 583 607 583 643 q 565 529 583 563 q 516 473 547 496 q 444 438 485 450 q 357 426 403 426 m 283 567 q 299 526 283 546 q 368 506 315 506 q 453 528 417 506 q 489 594 489 550 q 458 644 489 626 q 368 679 426 663 q 308 633 333 663 q 283 567 283 603 m 539 850 q 523 887 539 868 q 463 906 507 906 q 386 883 418 906 q 354 825 354 861 q 374 781 354 800 q 453 743 394 761 q 512 787 485 760 q 539 850 539 814 z "},"⁹":{"ha":499,"x_min":183,"x_max":632,"o":"m 632 817 q 601 658 632 729 q 516 538 571 588 q 386 463 461 489 q 222 436 311 436 q 201 437 213 436 q 183 439 189 438 l 200 521 q 213 519 204 519 q 224 519 221 519 q 311 527 269 519 q 389 551 353 535 q 453 592 425 567 q 499 656 482 618 q 440 640 471 644 q 388 635 410 635 q 315 646 343 635 q 269 676 286 657 q 244 721 251 696 q 238 774 238 746 q 253 853 238 815 q 297 921 268 892 q 369 967 326 950 q 464 985 411 985 q 590 936 547 985 q 632 817 632 888 m 415 714 q 474 719 443 714 q 529 735 504 725 q 540 797 540 772 q 520 878 540 851 q 454 904 500 904 q 365 867 396 904 q 333 778 333 829 q 415 714 333 714 z "},"₀":{"ha":499,"x_min":94,"x_max":535,"o":"m 265 -8 q 140 36 186 -8 q 94 176 94 81 q 110 299 94 233 q 159 420 126 364 q 242 513 192 476 q 364 550 293 550 q 489 506 443 550 q 535 365 535 461 q 519 243 535 308 q 470 122 503 178 q 387 28 438 65 q 265 -8 336 -8 m 268 76 q 344 108 313 76 q 397 183 376 139 q 426 277 417 228 q 436 363 436 326 q 420 438 436 410 q 361 465 404 465 q 285 434 317 465 q 233 358 253 403 q 203 265 213 314 q 193 179 193 215 q 209 104 193 132 q 268 76 225 76 z "},"₁":{"ha":499,"x_min":174,"x_max":463,"o":"m 174 428 q 294 476 238 447 q 393 539 350 504 l 463 539 l 333 3 l 235 3 l 332 406 q 255 372 296 386 q 186 349 214 357 l 174 428 z "},"₂":{"ha":499,"x_min":69,"x_max":501,"o":"m 456 90 l 435 3 l 69 3 q 92 90 75 53 q 133 156 108 126 q 190 208 158 185 q 258 254 222 232 q 322 294 294 276 q 367 329 349 313 q 394 365 385 346 q 403 407 403 383 q 383 450 403 436 q 335 464 363 464 q 242 444 276 464 q 190 408 208 424 l 157 476 q 233 526 185 503 q 346 550 282 550 q 463 513 425 550 q 501 414 501 476 q 483 340 501 374 q 435 279 464 307 q 371 228 406 251 q 304 186 336 206 q 240 144 275 167 q 193 90 206 122 l 456 90 z "},"₃":{"ha":499,"x_min":54,"x_max":499,"o":"m 219 76 q 276 81 249 76 q 324 97 303 85 q 358 128 344 108 q 371 176 371 147 q 335 232 371 215 q 239 249 299 249 l 210 249 l 229 326 l 264 326 q 308 331 283 326 q 353 344 332 335 q 388 369 374 354 q 403 408 403 385 q 384 453 403 440 q 325 465 365 465 q 252 454 288 465 q 194 432 217 443 l 175 504 q 208 520 188 513 q 252 535 228 528 q 301 546 276 542 q 349 550 326 550 q 465 517 431 550 q 499 436 499 483 q 470 347 499 381 q 392 290 442 314 q 447 250 425 276 q 468 179 468 224 q 399 40 468 88 q 217 -8 329 -8 q 122 3 161 -8 q 54 29 82 14 l 92 107 q 149 86 115 96 q 219 76 183 76 z "},"₄":{"ha":499,"x_min":76,"x_max":526,"o":"m 517 210 l 497 132 l 428 132 l 397 3 l 303 3 l 333 132 l 76 132 l 92 196 q 152 278 114 233 q 238 371 190 324 q 336 462 285 418 q 436 539 388 506 l 526 539 l 447 210 l 517 210 m 353 210 l 406 429 q 349 381 379 407 q 290 325 319 354 q 235 267 261 296 q 189 210 208 238 l 353 210 z "},"₅":{"ha":499,"x_min":65,"x_max":550,"o":"m 276 336 q 372 317 333 329 q 435 287 411 306 q 470 241 460 268 q 481 179 481 214 q 410 40 481 88 q 228 -8 340 -8 q 133 3 172 -8 q 65 29 93 14 l 103 107 q 160 86 126 96 q 231 76 194 76 q 289 81 261 76 q 338 96 317 85 q 370 126 358 107 q 382 174 382 144 q 334 241 382 218 q 161 269 286 264 q 208 403 185 333 q 250 539 231 472 l 550 539 l 529 453 l 317 453 q 298 394 308 428 q 276 336 288 360 z "},"₆":{"ha":499,"x_min":104,"x_max":542,"o":"m 104 160 q 137 319 104 249 q 227 440 169 390 q 365 515 285 489 q 542 542 446 542 l 533 458 q 442 449 488 457 q 356 425 396 442 q 285 382 317 408 q 236 318 254 356 q 296 336 265 331 q 349 342 326 342 q 420 331 392 342 q 466 299 449 319 q 491 253 483 279 q 499 199 499 228 q 483 121 499 158 q 439 55 468 83 q 367 9 410 26 q 272 -8 325 -8 q 147 40 189 -8 q 104 160 104 89 m 321 264 q 260 258 293 264 q 207 242 228 251 q 196 179 196 204 q 216 99 196 125 q 282 72 236 72 q 372 109 342 72 q 403 192 403 146 q 321 264 403 264 z "},"₇":{"ha":499,"x_min":131,"x_max":579,"o":"m 131 3 q 183 124 150 61 q 258 248 217 188 q 344 360 299 308 q 436 450 390 413 l 160 450 l 182 539 l 579 539 l 561 463 q 479 384 525 433 q 388 273 433 335 q 302 142 342 211 q 240 3 263 72 l 131 3 z "},"₈":{"ha":499,"x_min":86,"x_max":528,"o":"m 254 -8 q 175 3 207 -8 q 123 32 143 14 q 94 72 103 50 q 86 117 86 94 q 123 218 86 178 q 207 283 160 258 q 174 320 188 299 q 160 382 160 342 q 176 450 160 419 q 219 503 192 481 q 285 538 247 525 q 367 550 322 550 q 443 539 413 550 q 492 510 474 528 q 519 470 511 492 q 528 426 528 449 q 518 374 528 397 q 493 333 508 351 q 458 300 478 314 q 419 275 439 286 q 464 234 447 260 q 481 172 481 208 q 463 94 481 128 q 413 38 444 61 q 341 3 382 15 q 254 -8 300 -8 m 181 132 q 197 91 181 111 q 265 71 213 71 q 350 93 314 71 q 386 160 386 115 q 355 210 386 192 q 265 244 324 228 q 206 198 231 228 q 181 132 181 168 m 436 415 q 420 452 436 433 q 360 471 404 471 q 283 449 315 471 q 251 390 251 426 q 272 346 251 365 q 350 308 292 326 q 409 352 382 325 q 436 415 436 379 z "},"₉":{"ha":499,"x_min":81,"x_max":529,"o":"m 529 382 q 499 224 529 294 q 413 103 468 153 q 283 28 358 54 q 119 1 208 1 q 98 2 110 1 q 81 4 86 3 l 97 86 q 110 85 101 85 q 121 85 118 85 q 208 92 167 85 q 286 116 250 100 q 351 158 322 132 q 396 221 379 183 q 338 205 368 210 q 285 200 307 200 q 212 211 240 200 q 166 242 183 222 q 142 286 149 261 q 135 339 135 311 q 150 419 135 381 q 194 486 165 457 q 266 533 224 515 q 361 550 308 550 q 487 501 444 550 q 529 382 529 453 m 313 279 q 371 285 340 279 q 426 300 401 290 q 438 363 438 338 q 417 443 438 417 q 351 469 397 469 q 262 432 293 469 q 231 343 231 394 q 313 279 231 279 z "},"ℓ":{"ha":625,"x_min":106,"x_max":690,"o":"m 247 354 l 247 756 q 266 914 247 851 q 317 1013 285 976 q 390 1063 349 1049 q 476 1078 431 1078 q 572 1056 535 1078 q 629 999 608 1033 q 657 923 650 965 q 664 840 664 881 q 643 699 664 767 q 585 570 622 632 q 494 451 547 508 q 375 339 440 393 l 375 278 q 408 137 375 182 q 511 92 440 92 q 585 108 556 92 q 639 143 615 125 l 690 47 q 606 -2 656 17 q 489 -21 556 -21 q 374 0 419 -21 q 299 56 328 21 q 259 136 271 90 q 247 232 247 182 l 247 243 l 156 178 l 106 251 l 247 354 m 375 454 q 513 629 463 535 q 564 842 564 724 q 561 888 564 864 q 549 930 558 911 q 522 960 539 949 q 479 972 506 972 q 440 964 458 972 q 406 933 421 956 q 383 869 392 910 q 375 761 375 828 l 375 454 z "},"℮":{"ha":1294,"x_min":197,"x_max":1311,"o":"m 408 468 q 401 463 401 468 l 401 189 q 414 158 401 171 q 567 49 481 88 q 754 10 653 10 q 956 55 864 10 q 1114 175 1047 100 l 1193 175 q 1109 95 1157 131 q 1004 35 1061 60 q 883 -4 947 10 q 753 -18 819 -18 q 536 22 638 -18 q 360 128 435 61 q 241 287 285 196 q 197 482 197 378 q 241 677 197 586 q 360 836 285 768 q 536 944 435 904 q 753 983 638 983 q 970 944 868 983 q 1148 836 1072 904 q 1267 677 1224 768 q 1311 482 1311 586 l 1311 468 l 408 468 m 1106 778 q 1093 811 1106 796 q 940 915 1026 878 q 754 953 854 953 q 568 913 654 953 q 415 806 482 872 q 405 791 408 800 q 401 772 401 782 l 401 504 q 408 494 401 494 l 1100 494 q 1106 504 1106 494 l 1106 778 z "},"⅓":{"ha":1214,"x_min":243,"x_max":1211,"o":"m 276 863 q 397 910 340 882 q 496 974 453 939 l 565 974 l 436 438 l 338 438 l 435 840 q 358 806 399 821 q 289 783 317 792 l 276 863 m 375 0 l 243 0 l 1006 963 l 1138 963 l 375 0 m 932 76 q 988 81 961 76 q 1036 97 1015 85 q 1070 128 1057 108 q 1083 176 1083 147 q 1047 232 1083 215 q 951 249 1011 249 l 922 249 l 942 326 l 976 326 q 1020 331 996 326 q 1065 344 1044 335 q 1101 369 1086 354 q 1115 408 1115 385 q 1097 453 1115 440 q 1038 465 1078 465 q 965 454 1000 465 q 907 432 929 443 l 888 504 q 920 520 900 513 q 965 535 940 528 q 1014 546 989 542 q 1061 550 1039 550 q 1177 517 1143 550 q 1211 436 1211 483 q 1183 347 1211 381 q 1104 290 1154 314 q 1159 250 1138 276 q 1181 179 1181 224 q 1111 40 1181 88 q 929 -8 1042 -8 q 834 3 874 -8 q 767 29 794 14 l 804 107 q 862 86 828 96 q 932 76 896 76 z "},"⅔":{"ha":1214,"x_min":172,"x_max":1211,"o":"m 558 525 l 538 438 l 172 438 q 194 524 178 488 q 236 590 211 561 q 293 643 261 619 q 361 689 325 667 q 424 729 397 711 q 469 764 451 747 q 497 799 488 781 q 506 842 506 818 q 485 885 506 871 q 438 899 465 899 q 345 878 379 899 q 293 843 311 858 l 260 911 q 336 961 288 938 q 449 985 385 985 q 566 948 528 985 q 604 849 604 911 q 585 775 604 808 q 538 714 567 742 q 474 663 508 686 q 407 621 439 640 q 343 579 378 601 q 296 525 308 557 l 558 525 m 404 0 l 272 0 l 1035 963 l 1167 963 l 404 0 m 932 76 q 988 81 961 76 q 1036 97 1015 85 q 1070 128 1057 108 q 1083 176 1083 147 q 1047 232 1083 215 q 951 249 1011 249 l 922 249 l 942 326 l 976 326 q 1020 331 996 326 q 1065 344 1044 335 q 1101 369 1086 354 q 1115 408 1115 385 q 1097 453 1115 440 q 1038 465 1078 465 q 965 454 1000 465 q 907 432 929 443 l 888 504 q 920 520 900 513 q 965 535 940 528 q 1014 546 989 542 q 1061 550 1039 550 q 1177 517 1143 550 q 1211 436 1211 483 q 1183 347 1211 381 q 1104 290 1154 314 q 1159 250 1138 276 q 1181 179 1181 224 q 1111 40 1181 88 q 929 -8 1042 -8 q 834 3 874 -8 q 767 29 794 14 l 804 107 q 862 86 828 96 q 932 76 896 76 z "},"⅛":{"ha":1214,"x_min":243,"x_max":1240,"o":"m 276 863 q 397 910 340 882 q 496 974 453 939 l 565 974 l 436 438 l 338 438 l 435 840 q 358 806 399 821 q 289 783 317 792 l 276 863 m 375 0 l 243 0 l 1006 963 l 1138 963 l 375 0 m 967 -8 q 888 3 919 -8 q 835 32 856 14 q 807 72 815 50 q 799 117 799 94 q 835 218 799 178 q 919 283 872 258 q 886 320 900 299 q 872 382 872 342 q 888 450 872 419 q 932 503 904 481 q 997 538 960 525 q 1079 550 1035 550 q 1156 539 1125 550 q 1205 510 1186 528 q 1232 470 1224 492 q 1240 426 1240 449 q 1231 374 1240 397 q 1206 333 1221 351 q 1171 300 1190 314 q 1132 275 1151 286 q 1176 234 1160 260 q 1193 172 1193 208 q 1175 94 1193 128 q 1126 38 1157 61 q 1053 3 1094 15 q 967 -8 1013 -8 m 893 132 q 909 91 893 111 q 978 71 925 71 q 1063 93 1026 71 q 1099 160 1099 115 q 1067 210 1099 192 q 978 244 1036 228 q 918 198 943 228 q 893 132 893 168 m 1149 415 q 1133 452 1149 433 q 1072 471 1117 471 q 996 449 1028 471 q 964 390 964 426 q 984 346 964 365 q 1063 308 1004 326 q 1122 352 1094 325 q 1149 415 1149 379 z "}}}
